<svg width="42" height="42" viewBox="0 0 42 42" fill="none" xmlns="http://www.w3.org/2000/svg">
<path d="M39.5811 24.2222C39.5811 28.5299 37.8698 32.6611 34.8238 35.7071C31.7778 38.7531 27.6466 40.4644 23.3389 40.4644C19.0312 40.4644 14.8999 38.7531 11.8539 35.7071C8.8079 32.6611 7.09668 28.5299 7.09668 24.2222C7.09668 19.9145 8.8079 15.7832 11.8539 12.7372C14.8999 9.69122 19.0312 7.98 23.3389 7.98C27.6466 7.98 31.7778 9.69122 34.8238 12.7372C37.8698 15.7832 39.5811 19.9145 39.5811 24.2222Z" fill="#9EE8D9"/>
<path d="M24.8206 1.54357C24.7293 1.5289 24.636 1.53479 24.547 1.56088C24.4581 1.58696 24.3756 1.63254 24.3051 1.69466C24.2346 1.75678 24.1779 1.83397 24.1386 1.92088C24.0994 2.0078 24.0787 2.10239 24.0777 2.19838L24.0843 3.44792L22.9372 3.0674C22.7773 3.02273 22.607 3.04365 22.4616 3.12588C22.3162 3.20811 22.2069 3.34523 22.1563 3.50896C22.1056 3.67268 22.1176 3.85035 22.1897 4.00515C22.2618 4.15995 22.3884 4.28009 22.5434 4.34049L23.6919 4.721L22.9883 5.73566C22.895 5.87998 22.8594 6.05627 22.8891 6.22736C22.9187 6.39845 23.0114 6.55096 23.1473 6.65242C23.2832 6.75388 23.4517 6.79632 23.6173 6.77098C23.7829 6.74564 23.9324 6.65442 24.0344 6.51656L24.7379 5.50206L25.4506 6.50999C25.5539 6.64639 25.7041 6.73586 25.8696 6.75945C26.0351 6.78303 26.203 6.73887 26.3378 6.6364C26.4726 6.53393 26.5639 6.38105 26.5923 6.21006C26.6207 6.03907 26.5841 5.86345 26.4901 5.71996L25.7774 4.71187L26.9219 4.32078C27.0791 4.26105 27.2078 4.14006 27.2807 3.98352C27.3536 3.82698 27.365 3.64714 27.3124 3.48204C27.2599 3.31694 27.1476 3.17956 26.9992 3.09896C26.8509 3.01837 26.6782 3.00091 26.5177 3.05026L25.3732 3.44135L25.3679 2.19197C25.3649 2.03423 25.3083 1.88266 25.2082 1.76403C25.108 1.6454 24.9708 1.56732 24.8206 1.54357Z" fill="#3A3640"/>
<path fill-rule="evenodd" clip-rule="evenodd" d="M24.7196 13.3496C24.6333 13.3507 24.5481 13.3689 24.4689 13.4031C24.3896 13.4372 24.3179 13.4868 24.2578 13.5487C24.1977 13.6106 24.1503 13.6838 24.1185 13.764C24.0868 13.8443 24.0711 13.9299 24.0725 14.0162V17.9367C24.0725 18.1108 24.1417 18.2777 24.2647 18.4007C24.3878 18.5238 24.5547 18.593 24.7287 18.593C24.9028 18.593 25.0697 18.5238 25.1928 18.4007C25.3159 18.2777 25.385 18.1108 25.385 17.9367V14.0162C25.3864 13.9284 25.3702 13.8412 25.3372 13.7597C25.3043 13.6783 25.2554 13.6043 25.1934 13.5421C25.1313 13.48 25.0574 13.4309 24.976 13.3978C24.8946 13.3647 24.8074 13.3483 24.7196 13.3496Z" fill="#3A3640"/>
<path fill-rule="evenodd" clip-rule="evenodd" d="M22.7705 15.3182C22.5965 15.3182 22.4295 15.3873 22.3064 15.5103C22.1834 15.6334 22.1143 15.8004 22.1143 15.9745C22.1143 16.1485 22.1834 16.3154 22.3064 16.4385C22.4295 16.5615 22.5965 16.6307 22.7705 16.6307H26.6883C26.8623 16.6307 27.0292 16.5615 27.1523 16.4385C27.2754 16.3154 27.3446 16.1485 27.3446 15.9745C27.3446 15.8004 27.2754 15.6334 27.1523 15.5103C27.0292 15.3873 26.8623 15.3182 26.6883 15.3182H22.7705Z" fill="#3A3640"/>
<path d="M35.9782 19.2648C35.8868 19.2503 35.7935 19.2565 35.7047 19.2828C35.6158 19.309 35.5334 19.3548 35.4631 19.417C35.3927 19.4793 35.3361 19.5564 35.297 19.6434C35.2579 19.7304 35.2373 19.8251 35.2366 19.9211L35.2432 21.1706L34.0947 20.7899C33.9352 20.7466 33.7658 20.7685 33.6213 20.851C33.4768 20.9335 33.3682 21.0703 33.3179 21.2334C33.2676 21.3965 33.2795 21.5735 33.351 21.7278C33.4225 21.8822 33.5482 22.002 33.7023 22.063L34.8493 22.4437L34.1459 23.4582C34.0526 23.6025 34.017 23.779 34.0467 23.95C34.0763 24.1211 34.1689 24.2735 34.3048 24.3749C34.4407 24.4764 34.6093 24.519 34.7748 24.4937C34.9404 24.4683 35.09 24.3771 35.192 24.2392L35.8955 23.2246L36.6081 24.2327C36.7096 24.3746 36.861 24.4691 37.0293 24.4954C37.1976 24.5218 37.3692 24.4779 37.5065 24.3733C37.6437 24.2688 37.7356 24.1122 37.7621 23.9375C37.7885 23.7629 37.7474 23.5844 37.6476 23.4412L36.935 22.4333L38.0795 22.042C38.2331 21.9796 38.3578 21.8584 38.428 21.7033C38.4981 21.5482 38.5083 21.3711 38.4565 21.2084C38.4047 21.0457 38.2948 20.9099 38.1494 20.8288C38.0041 20.7478 37.8343 20.7279 37.6752 20.7729L36.5307 21.164L36.5255 19.9145C36.5225 19.757 36.4661 19.6056 36.3662 19.487C36.2663 19.3684 36.1294 19.2901 35.9794 19.2661L35.9782 19.2648Z" fill="#3A3640"/>
<path fill-rule="evenodd" clip-rule="evenodd" d="M35.8771 7.44445C35.7035 7.44722 35.5381 7.51865 35.4171 7.64312C35.296 7.7676 35.2293 7.93495 35.2314 8.10855V12.0291C35.2314 12.2031 35.3006 12.37 35.4236 12.4931C35.5467 12.6161 35.7136 12.6853 35.8876 12.6853C36.0617 12.6853 36.2286 12.6161 36.3517 12.4931C36.4748 12.37 36.5439 12.2031 36.5439 12.0291V8.10855C36.5449 8.02082 36.5284 7.93375 36.4952 7.85252C36.4621 7.7713 36.413 7.69751 36.3508 7.63559C36.2886 7.57367 36.2147 7.52488 36.1333 7.49204C36.052 7.45919 35.9649 7.44304 35.8771 7.44445Z" fill="#3A3640"/>
<path fill-rule="evenodd" clip-rule="evenodd" d="M33.9293 9.41199C33.7553 9.41199 33.5884 9.48102 33.4653 9.60409C33.3423 9.72716 33.2731 9.89419 33.2731 10.0682C33.2731 10.2423 33.3423 10.4092 33.4653 10.5322C33.5884 10.6553 33.7553 10.7245 33.9293 10.7245H37.8458C38.0199 10.7245 38.1868 10.6553 38.3099 10.5322C38.433 10.4092 38.5021 10.2423 38.5021 10.0682C38.5021 9.89419 38.433 9.72716 38.3099 9.60409C38.1868 9.48102 38.0199 9.41199 37.8458 9.41199H33.9293Z" fill="#3A3640"/>
<path d="M14.3101 8.09945C14.2576 8.10077 14.2064 8.11251 14.1565 8.12301C7.21342 10.1233 2.42676 16.3997 2.42151 23.5345C2.42151 32.4057 9.73869 39.5995 18.7359 39.5995C25.3981 39.5995 31.3962 35.5963 33.8716 29.4971C33.9178 29.383 33.9309 29.2582 33.9096 29.1369C33.8882 29.0157 33.8332 28.903 33.7508 28.8115C33.6684 28.7201 33.5619 28.6537 33.4436 28.6199C33.3252 28.5861 33.1998 28.5863 33.0815 28.6204C31.7122 29.0172 30.2941 29.22 28.8684 29.2228C20.5695 29.2228 13.8639 22.6195 13.8639 14.4689C13.8687 12.5931 14.2364 10.7359 14.9467 8.99972C14.9879 8.89789 15.0029 8.78743 14.9902 8.67832C14.9776 8.56921 14.9377 8.46492 14.8744 8.37519C14.811 8.28546 14.7263 8.21309 14.6277 8.16466C14.5291 8.11624 14.4199 8.09346 14.3101 8.09817V8.09945ZM12.5514 14.4676C12.5514 23.3401 19.8712 30.5353 28.8684 30.5353C29.9315 30.5353 31.0563 30.4276 32.0971 30.2229C29.5719 35.1631 24.4374 38.2817 18.7359 38.2857C10.4356 38.2857 3.73401 31.6864 3.73401 23.5357C3.73795 17.3854 7.63216 11.9765 13.2759 9.78991C12.7601 11.3321 12.5685 13.1013 12.5514 14.4676Z" fill="#3A3640"/>
</svg>
