<svg width="16" height="16" viewBox="0 0 16 16" fill="none" xmlns="http://www.w3.org/2000/svg">
<path d="M8 6.76395C7.8644 6.76395 7.74938 6.64894 7.74938 6.51334V4.29333C7.74938 4.15773 7.8644 4.04272 8 4.04272C8.1356 4.04272 8.25062 4.15773 8.25062 4.29333V6.51334C8.25062 6.65344 8.13778 6.76395 8 6.76395Z" fill="#0E6074" stroke="#0E6074" stroke-width="0.498765"/>
<path d="M3.02581 12.5102L3.02474 12.5098C2.48413 12.3316 2.08578 11.95 1.91419 11.481C1.74206 11.0105 1.79614 10.462 2.0874 9.9746L2.93393 8.5615L2.93424 8.56098C3.04273 8.37886 3.13834 8.13125 3.20677 7.88738C3.27512 7.64378 3.32271 7.38124 3.32271 7.16668V5.76667C3.32271 3.17774 5.42439 1.07606 8.01333 1.07606C10.6023 1.07606 12.7039 3.17774 12.7039 5.76667V7.16668C12.7039 7.37807 12.7516 7.64066 12.8198 7.88465C12.8881 8.12897 12.9837 8.37851 13.0924 8.56098L13.0927 8.5615L13.9394 9.97483L13.9397 9.97538C14.2132 10.4293 14.2605 10.9704 14.079 11.4679C13.8991 11.9614 13.5039 12.3405 13.0003 12.5104L13 12.5105C11.3938 13.0546 9.70761 13.3173 8.01333 13.3173C6.31969 13.3173 4.63312 13.0481 3.02581 12.5102ZM3.36697 8.82368L3.36696 8.82367L3.36579 8.82563L2.51992 10.2443C2.51978 10.2445 2.51964 10.2448 2.5195 10.245C2.31459 10.5843 2.25502 10.9703 2.38649 11.3209L2.61741 11.2343L2.38649 11.3209C2.51812 11.6719 2.81178 11.9179 3.1878 12.0433L3.18795 12.0433C6.30546 13.0802 9.73372 13.0803 12.8513 12.0436C13.2094 11.9267 13.4874 11.6584 13.614 11.3063C13.7482 10.9516 13.7036 10.5669 13.5148 10.2467L13.5139 10.2452L12.6673 8.83185L12.6663 8.83034C12.4109 8.4106 12.2094 7.67568 12.2094 7.18001L12.2094 5.78001L12.2094 5.77925C12.2023 3.46253 10.3248 1.58396 8.01333 1.58396C5.70226 1.58396 3.82394 3.46228 3.82394 5.77334V7.17334C3.82394 7.66902 3.62246 8.40393 3.36697 8.82368Z" fill="#0E6074" stroke="#0E6074" stroke-width="0.498765"/>
<path d="M8 15.0173C7.35375 15.0173 6.71691 14.7509 6.25634 14.2903C5.85521 13.8892 5.60137 13.3544 5.54254 12.796H6.04695C6.10336 13.2259 6.30346 13.6295 6.61033 13.9363C6.97597 14.302 7.47896 14.516 8 14.516C8.99995 14.516 9.83034 13.7635 9.9536 12.796H10.4581C10.3327 14.0417 9.2781 15.0173 8 15.0173Z" fill="#0E6074" stroke="#0E6074" stroke-width="0.498765"/>
</svg>
