<svg width="375" height="101" viewBox="0 0 375 101" fill="none" xmlns="http://www.w3.org/2000/svg">
<g clip-path="url(#clip0_2_942)">
<path d="M316.632 129.051C312.612 125.145 308.66 121.147 304.64 117.24C302.675 115.343 300.62 113.514 298.565 111.73C298.045 111.278 298.091 110.962 298.362 110.465C299.107 109.133 299.784 107.778 300.552 106.446C302.02 103.894 303.149 101.161 305.227 98.9705C305.724 98.451 305.385 98.0897 304.798 97.8865C300.53 96.3282 296.984 93.4601 293.077 91.247C292.874 91.1341 292.738 90.6598 292.806 90.4114C294.071 86.2109 295.403 82.033 296.645 77.8325C297.82 73.8352 298.858 69.7928 299.965 65.773C300.123 65.1858 300.01 64.8471 299.355 64.689C297.639 64.2599 295.945 63.7856 294.229 63.334C291.158 62.521 288.086 61.6628 284.97 60.9175C281.492 60.082 278.014 59.3593 274.514 58.6141C273.904 58.4786 273.723 58.1624 273.723 57.5752C273.746 56.017 273.701 54.4361 273.723 52.8779C273.768 50.055 273.791 47.2546 273.949 44.4317C273.994 43.5284 273.768 43.3703 272.955 43.4832C271.555 43.6639 270.132 43.8446 268.732 43.8446C266.113 43.8671 263.493 43.7316 260.873 43.6865C259.112 43.6639 259.134 43.6639 258.728 41.9475C257.712 37.6567 256.673 33.3659 255.611 29.0976C254.708 25.4617 253.714 21.8484 252.788 18.235C252.63 17.6479 252.405 17.2414 251.704 17.4446C250.801 17.7156 249.875 18.0092 248.949 18.2576C245.381 19.2513 241.79 20.2224 238.222 21.2386C234.564 22.3001 230.905 23.4066 227.247 24.5584C226.637 24.7616 226.343 24.7165 226.05 24.1745C223.904 20.2676 221.036 16.7671 219.546 12.4989C219.32 11.8891 218.913 11.7762 218.394 12.2279C218.168 12.4086 217.988 12.6118 217.739 12.7699C214.103 14.8927 210.467 17.0156 206.809 19.0932C206.583 19.2061 206.018 19.0255 205.815 18.7996C204.144 17.0155 202.563 15.1185 200.869 13.3796C196.782 9.17913 192.649 5.02381 188.539 0.868472C187.523 -0.170361 187.523 -0.170359 186.461 0.913641C182.735 4.70764 178.964 8.47905 175.26 12.2956C173.25 14.3507 171.308 16.4736 169.433 18.6641C168.891 19.2965 168.507 19.4094 167.875 18.9803C167.649 18.8222 167.378 18.7319 167.13 18.5738C163.629 16.451 159.7 14.9831 156.583 12.2053C156.064 11.7536 155.68 11.9795 155.454 12.5892C153.919 16.88 151.051 20.4256 148.837 24.3325C148.724 24.5358 148.25 24.7165 148.024 24.6487C143.643 23.3615 139.307 21.9613 134.926 20.6966C131.358 19.6578 127.767 18.7545 124.176 17.7834C122.528 17.3317 122.55 17.3317 122.144 18.9125C121.015 23.2485 119.795 27.5846 118.711 31.9206C117.808 35.5791 117.063 39.2827 116.182 42.9638C116.114 43.2574 115.662 43.6413 115.391 43.6639C113.449 43.7542 111.507 43.8445 109.542 43.7994C106.99 43.7542 104.461 43.5735 101.932 43.4606C101.254 43.4155 100.893 43.5961 101.096 44.3866C101.232 44.8608 101.345 45.3576 101.345 45.8545C101.367 49.8291 101.345 53.8038 101.367 57.7785C101.367 58.4108 101.006 58.5463 100.532 58.6366C97.7313 59.2238 94.9084 59.7206 92.1306 60.4207C86.7106 61.7757 81.3132 63.2888 75.9158 64.6664C75.0802 64.8696 74.9898 65.2536 75.1931 65.9536C76.0061 68.7991 76.7965 71.6672 77.6095 74.5127C79.1452 79.7746 80.7034 85.0365 82.1939 90.2985C82.2843 90.592 82.1262 91.1566 81.9004 91.2921C78.0386 93.5053 74.5156 96.3282 70.2699 97.8865C69.4344 98.2026 69.4569 98.564 69.9989 99.1963C70.699 99.9867 71.3765 100.822 71.8959 101.748C73.3864 104.368 74.8318 107.01 76.2545 109.675C77.0449 111.165 77.0224 111.188 75.6674 112.295C75.5319 112.408 75.4189 112.543 75.2834 112.656C72.1895 115.637 69.0956 118.618 66.0243 121.622C63.4498 124.128 60.9204 126.658 58.3234 129.142C58.0072 129.458 57.8265 129.706 57.8265 129.977L59.3396 129.977C59.3396 129.571 59.7461 129.187 60.5591 128.351C63.8563 125.054 67.1083 121.734 70.4506 118.482C72.7089 116.292 75.1028 114.237 77.5869 111.978C78.3999 113.469 79.1452 114.801 79.8227 116.156C79.9356 116.382 79.8678 116.879 79.6872 117.037C76.8417 119.702 73.9962 122.344 71.1281 125.009C69.6376 126.387 68.1697 127.787 66.6566 129.142C66.3179 129.435 66.1372 129.706 66.1598 129.977L67.3341 129.977C71.7153 125.867 76.0738 121.802 80.5454 117.624C81.539 119.205 82.5101 120.786 83.4812 122.367C81.3583 124.106 79.2581 125.845 77.1804 127.561C76.5255 128.103 75.8706 128.645 75.2608 129.232C75.0124 129.481 74.8769 129.729 74.8995 129.955L75.9609 129.955C76.7288 129.255 77.4063 128.555 78.1515 127.945C79.7775 126.59 81.4487 125.257 83.0973 123.925C83.7296 123.406 84.2039 123.067 84.8588 124.038C85.4911 125.009 86.417 125.799 87.23 126.68C86.1686 127.516 85.1523 128.351 84.1135 129.164C83.7522 129.435 83.5941 129.706 83.5941 129.955L84.4749 129.955C85.7169 129.051 86.7783 128.306 87.8398 127.561C87.9753 127.471 88.2689 127.425 88.4044 127.516C90.211 128.351 92.0177 129.21 93.5985 129.955C93.5985 129.955 93.5985 129.955 93.5759 129.955L102.903 129.955C102.925 128.871 103.129 127.809 103.467 126.703C104.439 123.564 105.906 120.741 108.097 118.302C109.768 116.45 111.914 115.276 114.149 114.237C116.521 113.13 119.027 113.198 121.602 113.333C121.602 114.553 121.602 115.75 121.602 117.015C120.405 117.308 119.163 117.511 117.966 117.895C112.388 119.747 108.775 123.473 107.442 129.21C107.397 129.458 107.352 129.684 107.329 129.932L108.413 129.932C108.391 128.261 109.068 126.771 109.949 125.348C112.23 121.689 115.437 119.183 119.795 118.392C120.405 118.279 121.037 118.211 121.783 118.099C122.099 119.521 122.392 120.809 122.708 122.209C122.099 122.367 121.512 122.547 120.902 122.706C118.192 123.428 115.933 124.806 114.556 127.313C114.059 128.216 113.788 129.097 113.743 129.932L114.691 129.932C114.669 128.555 115.459 127.313 116.859 125.935C118.44 124.377 120.518 123.699 122.663 123.27C122.889 123.225 123.25 123.428 123.386 123.631C123.973 124.467 124.515 125.325 124.989 126.048C123.702 126.635 122.37 127.087 121.195 127.832C120.292 128.397 119.84 129.164 119.84 129.91L121.241 129.91C121.263 129.571 121.444 129.232 121.76 128.916C123.025 127.629 124.651 127.222 126.322 127.245C127.067 127.245 127.79 128.013 128.558 128.397C129.687 128.961 130.838 129.481 131.674 129.887C131.651 129.91 131.629 129.91 131.606 129.932L138.585 129.932C138.585 126.951 140.098 124.49 142.311 122.615C144.682 120.605 147.505 120.018 150.599 120.741C151.254 120.899 151.502 121.102 151.457 121.78C151.412 122.412 151.457 123.044 151.457 123.722C150.283 123.722 149.266 123.699 148.25 123.722C144.637 123.812 142.198 126.003 141.407 128.645C141.272 129.074 141.227 129.526 141.204 129.955L142.243 129.955C142.243 128.193 143.35 126.5 145.089 125.551C147.144 124.444 149.379 124.535 151.615 124.851C151.773 124.874 151.954 125.077 152.067 125.235C152.609 126.048 153.128 126.883 153.715 127.809C152.609 127.629 151.547 127.335 150.486 127.313C149.379 127.29 148.228 127.38 147.166 127.651C146.218 127.9 145.54 129.006 145.563 129.932L146.624 129.932C146.624 129.458 147.166 128.803 147.64 128.555C148.205 128.261 148.95 128.193 149.583 128.216C151.796 128.306 153.919 128.803 155.906 129.774C155.951 129.797 155.974 129.842 155.996 129.955L160.558 129.955C160.558 129.864 160.558 129.752 160.558 129.639C160.626 127.516 162.658 125.551 164.781 125.461C165.165 125.438 165.549 125.325 165.933 125.325C166.723 125.303 167.423 125.348 167.694 126.364C168.124 128.013 169.162 129.21 170.901 129.932L170.879 129.932L174.921 129.932C174.921 129.932 174.921 129.932 174.921 129.91C174.921 129.571 175.373 129.119 175.734 128.961C178.309 127.809 180.635 128.69 183.187 129.932L191.813 129.932C191.791 129.932 191.768 129.91 191.746 129.91C194.275 128.826 196.511 127.809 199.018 128.916C199.447 129.097 199.763 129.571 200.124 129.91C200.102 129.932 200.102 129.932 200.079 129.955L204.121 129.955C204.121 129.955 204.099 129.955 204.099 129.932C205.86 129.187 206.854 127.9 207.373 126.206C207.486 125.867 207.938 125.461 208.277 125.438C209.948 125.28 212.251 125.664 213.426 127.177C214.081 128.013 214.374 128.984 214.374 129.955L218.936 129.955C218.913 129.819 218.913 129.706 218.891 129.571C220.901 129.119 222.911 128.577 224.943 128.261C225.734 128.126 226.682 128.284 227.427 128.6C227.879 128.78 228.331 129.458 228.376 129.955L229.505 129.955C229.505 129.91 229.505 129.887 229.505 129.842C229.46 128.871 228.669 127.742 227.563 127.584C226.208 127.38 224.785 127.448 223.408 127.471C222.73 127.493 222.03 127.696 221.33 127.809C221.894 126.929 222.324 126.003 222.978 125.303C223.362 124.896 224.13 124.783 224.74 124.715C227.427 124.444 229.889 124.828 231.741 127.064C232.509 127.99 232.825 128.961 232.802 129.932L233.818 129.932C233.864 128.69 233.344 127.584 232.576 126.567C231.086 124.603 229.031 123.699 226.569 123.699C225.621 123.699 224.672 123.699 223.566 123.699C223.566 122.954 223.52 122.141 223.588 121.328C223.611 121.125 223.95 120.854 224.198 120.786C228.895 119.521 233.502 121.938 235.151 125.754C235.67 126.974 236.438 128.238 236.483 129.503C236.483 129.639 236.483 129.797 236.483 129.932L243.484 129.932C243.462 129.932 243.439 129.91 243.439 129.91C244.546 129.345 246.036 128.713 247.414 127.877C248.317 127.313 249.198 127.019 250.169 127.425C251.23 127.855 252.292 128.351 253.24 128.984C253.624 129.255 253.805 129.593 253.76 129.932L255.182 129.932C255.182 129.164 254.663 128.397 253.624 127.742C252.517 127.042 251.23 126.612 250.011 126.07C250.575 125.235 251.23 124.241 251.93 123.18C255.363 123.857 258.457 125.032 260.015 128.6C260.218 129.051 260.309 129.481 260.309 129.91L261.302 129.91C261.348 128.374 260.489 127.087 259.496 125.912C258.05 124.196 256.153 123.089 253.918 122.66C253.376 122.547 252.834 122.344 252.292 122.186C252.63 120.786 252.924 119.476 253.24 118.121C258.75 118.482 262.635 121.305 265.367 125.754C266.226 127.154 266.609 128.555 266.587 129.91L267.603 129.91C267.626 128.216 266.971 126.658 266.18 125.257C264.306 121.983 261.596 119.476 258.005 118.144C256.831 117.715 255.544 117.511 254.302 117.263C253.669 117.15 253.285 116.969 253.33 116.202C253.398 115.253 253.353 114.305 253.353 113.379C258.141 112.656 262.138 114.192 265.661 117.127C269.207 120.063 270.945 124.083 272.007 128.397C272.12 128.871 272.165 129.39 272.142 129.91L281.447 129.91C281.447 129.91 281.447 129.91 281.424 129.91C282.982 129.187 284.744 128.351 286.505 127.538C286.709 127.448 287.093 127.448 287.273 127.561C288.335 128.261 289.351 129.006 290.57 129.887C290.57 129.887 290.548 129.887 290.548 129.91L291.496 129.91C291.496 129.526 290.999 129.164 290.006 128.284C289.328 127.674 288.515 127.2 287.815 126.703C288.877 125.528 289.87 124.399 291.022 123.135C293.755 125.393 296.419 127.584 299.265 129.932L300.259 129.932C300.259 129.684 300.101 129.435 299.807 129.187C297.097 126.906 294.387 124.625 291.609 122.299C292.535 120.786 293.506 119.228 294.522 117.579C298.971 121.734 303.307 125.799 307.734 129.91L308.953 129.91C308.953 129.593 308.66 129.277 308.027 128.713C305.114 126.048 302.246 123.36 299.355 120.673C298.113 119.521 296.894 118.347 295.606 117.218C295.132 116.811 294.929 116.473 295.29 115.885C296.036 114.643 296.713 113.356 297.594 111.798C303.872 117.895 309.992 123.835 316.27 129.91L317.196 129.91C317.196 129.706 316.993 129.413 316.632 129.051ZM298.994 65.6375C296.623 73.9481 294.297 82.1911 291.903 90.5921C290.435 89.7565 289.261 89.1016 288.109 88.4466C287.454 88.0627 287.228 87.6111 287.499 86.7981C289.215 81.3555 290.841 75.9129 292.513 70.4703C292.919 69.1153 292.851 69.0476 291.474 68.754C287.747 67.9184 284.044 67.0602 280.318 66.2021C278.466 65.773 276.591 65.3213 274.739 64.9148C274.175 64.8019 273.836 64.6212 273.859 63.9889C273.881 62.5661 273.859 61.166 273.859 59.4948C282.373 61.053 290.525 63.5372 298.994 65.6375ZM275.982 82.5975C276.365 81.7168 276.772 80.8135 277.178 79.9327C278.059 78.0357 277.969 77.8099 275.959 77.4034C274.92 77.2001 273.859 77.1324 272.797 77.0195C273.068 75.6871 273.294 74.3772 273.633 73.1125C273.701 72.8415 274.175 72.4576 274.401 72.5028C277.562 72.9996 280.724 73.5868 283.886 74.1514C283.931 74.1514 283.976 74.2417 284.179 74.445C283.005 77.6066 281.785 80.8361 280.566 84.1106C278.94 83.5686 277.54 83.117 275.982 82.5975ZM268.732 82.9815C269.455 82.0555 270.494 81.22 270.923 80.136C271.849 77.8325 273.543 77.9454 275.44 78.239C275.778 78.2841 276.14 78.3519 276.727 78.4648C276.14 79.7972 275.575 81.0619 274.988 82.3266C274.92 82.4846 274.559 82.5298 274.333 82.5524C272.481 82.7105 270.629 82.846 268.732 82.9815ZM283.073 80.1811C283.773 78.2841 284.405 76.3871 285.083 74.4901C285.354 73.7223 285.15 73.3384 284.27 73.2029C282.531 72.9319 280.814 72.5028 279.075 72.1866C277.337 71.893 275.598 71.6672 273.768 71.4188C273.859 69.567 273.926 67.7377 274.017 65.8181C279.888 67.1731 285.715 68.5281 291.609 69.8831C289.87 75.5967 288.109 81.3329 286.325 87.182C284.654 86.2786 283.073 85.4431 281.402 84.5397C281.966 83.0492 282.553 81.6265 283.073 80.1811ZM254.776 44.7253C259.518 44.8382 264.283 44.906 269.026 44.9286C270.291 44.9286 271.555 44.7479 272.752 44.6576C272.752 49.0839 272.752 53.5328 272.752 57.9817C272.752 59.4045 272.73 60.8272 272.752 62.25C272.775 63.2436 272.933 64.2147 272.933 65.2084C272.955 67.0376 273.001 68.8895 272.865 70.7187C272.752 72.1866 272.436 73.6546 272.165 75.0999C271.668 77.7421 270.087 79.7746 268.461 81.8071C266.609 84.1106 263.832 85.014 261.596 86.5496C260.941 85.9399 260.309 85.3753 259.609 84.743C260.783 83.93 262.002 83.2525 262.996 82.3491C266.474 79.1875 268.687 75.3935 269.41 70.6284C269.997 66.7892 269.952 62.95 270.042 59.1109C270.132 55.6105 269.816 52.1101 269.703 48.6096C269.681 48.0225 269.5 47.7966 268.913 47.7741C267.987 47.7741 267.084 47.6386 266.158 47.616C262.07 47.5482 258.005 47.4127 253.918 47.4805C249.491 47.5482 245.042 47.887 241 49.8743C239.487 50.6196 238.222 51.9068 236.89 52.9682C236.257 53.4651 235.603 53.9619 235.083 54.5716C234.27 55.5879 233.57 56.6945 232.712 57.8914C232.102 57.1913 231.538 56.559 230.95 55.8589C232.441 53.6457 233.457 50.9131 235.693 48.9484C238.584 46.419 241.858 44.9963 245.675 44.7705C247.504 44.6576 249.333 44.4769 251.162 44.4543C252.405 44.3866 253.579 44.7027 254.776 44.7253ZM273.791 112.295C274.649 111.098 275.236 110.059 276.072 109.201C276.411 108.862 277.201 108.794 277.766 108.862C280.385 109.246 282.96 109.991 285.579 110.059C288.741 110.149 291.858 109.585 294.41 107.394C294.455 107.349 294.545 107.371 294.929 107.349C293.484 109.562 292.196 111.64 290.774 113.627C289.577 115.276 287.77 115.614 285.896 115.118C284.021 114.621 282.192 113.921 280.363 113.266C278.262 112.543 276.23 111.64 273.791 112.295ZM284.112 109.043C282.034 108.907 279.956 108.23 277.946 107.575C276.365 107.078 275.891 105.7 276.817 104.458C280.114 99.9867 284.405 97.0509 290.096 96.9831C293.167 96.9606 295.923 98.3155 298.339 100.213C295.471 107.01 291.112 109.539 284.112 109.043ZM278.804 100.777C277.879 101.613 276.998 102.471 276.094 103.329C275.552 103.848 275.033 104.029 274.288 103.623C273.362 103.126 272.368 102.764 271.126 102.222C274.627 100.935 276.14 97.8639 278.353 95.5152C279.121 94.7022 279.866 93.8215 280.769 93.1214C282.44 91.8341 284.292 91.9471 286.076 92.8278C287.973 93.7537 289.803 94.8151 291.767 95.8766C290.299 95.9669 288.99 95.9217 287.747 96.1475C284.315 96.8025 281.356 98.451 278.804 100.777ZM275.033 98.0446C273.633 99.8512 271.849 101.071 269.749 101.793C269.071 102.019 268.281 101.974 267.558 102.042C267.468 101.951 267.377 101.884 267.287 101.793C269.207 98.2026 271.081 94.5667 273.113 91.0211C273.565 90.2081 274.491 89.621 275.259 89.0338C275.891 88.5595 276.614 88.6725 277.359 88.966C278.94 89.5532 280.543 90.0726 282.305 90.6824C279.166 92.6697 277.111 95.3797 275.033 98.0446ZM267.761 99.0834C267.061 100.89 266 102.448 264.216 103.465C263.109 104.074 262.161 104.932 261.054 105.723C261.664 104.255 262.296 102.9 262.793 101.477C263.538 99.3995 263.628 97.2316 263.448 95.0636C263.29 93.0085 264.374 91.8341 265.932 90.8405C267.648 89.7565 269.523 89.2145 271.533 88.966C272.3 88.8757 273.046 88.7628 273.836 88.6725C270.945 91.6535 269.252 95.2894 267.761 99.0834ZM262.093 91.6083C262.861 95.741 262.838 99.8061 260.896 103.645C259.112 107.123 256.763 110.081 252.766 111.346C252.179 110.307 251.569 109.246 251.072 108.343C252.405 106.942 253.805 105.723 254.911 104.278C256.582 102.087 257.554 99.5125 257.825 96.7573C257.937 95.5152 257.915 94.228 257.825 92.9633C257.554 89.5081 255.205 87.611 252.45 86.098C250.191 84.8559 247.707 84.4945 245.2 84.3365C242.965 84.1784 240.864 84.8559 238.809 85.6689C238.629 85.7366 238.425 85.827 238.177 85.9173C237.522 84.8333 236.912 83.7719 236.28 82.7331C241.339 78.3745 249.649 78.6229 254.979 82.304C256.515 83.3654 257.983 84.5623 259.405 85.7592C261.167 87.2723 261.686 89.4177 262.093 91.6083ZM194.569 122.931C195.088 121.463 195.495 120.086 194.93 118.641C194.862 118.437 194.93 118.121 195.065 117.94C196.466 115.998 198.069 114.937 200.485 115.66C201.05 115.818 201.705 116.563 201.886 117.15C202.473 119.228 201.479 121.328 199.627 122.389C199.379 122.525 198.995 122.593 198.724 122.502C197.324 122.028 196.014 122.435 194.569 122.931ZM176.276 122.525C176.005 122.615 175.576 122.48 175.305 122.322C173.453 121.147 172.595 119.228 173.16 117.15C173.34 116.54 174.04 115.818 174.65 115.614C176.637 114.982 178.964 116.089 179.98 117.94C180.07 118.121 180.206 118.392 180.138 118.528C179.415 120.018 180.002 121.396 180.431 122.909C178.986 122.457 177.699 122.005 176.276 122.525ZM94.6825 113.266C93.1469 113.83 91.6338 114.44 90.0755 114.892C85.9654 116.089 84.7458 114.53 83.0521 112.046C82.0584 110.578 81.2228 109.02 80.4776 107.326C80.8615 107.62 81.2003 107.981 81.6293 108.207C84.6781 109.81 87.9301 110.465 91.3628 109.969C93.4179 109.675 95.4504 109.156 97.4829 108.749C98.1604 108.614 98.6798 108.681 99.0863 109.359C99.6734 110.307 100.419 111.165 101.254 112.272C98.7927 111.685 96.7376 112.52 94.6825 113.266ZM83.6618 108.094C80.9744 107.123 79.3258 104.91 77.7902 102.629C77.3159 101.929 77.0223 101.116 76.5933 100.28C79.4162 98.1801 82.4649 96.8025 85.9654 97.0057C87.4785 97.0961 88.9915 97.638 90.4369 98.2026C93.3501 99.377 95.7665 101.274 97.7087 103.736C99.2218 105.678 98.9056 106.92 96.6247 107.801C92.3564 109.472 87.9978 109.652 83.6618 108.094ZM98.7927 103.216C96.715 101.455 94.6825 99.6254 92.4468 98.1123C90.3239 96.6896 87.8172 96.0346 85.2427 95.9217C84.6555 95.8991 84.0684 96.0572 83.2328 96.1701C83.6619 95.8539 83.9103 95.6281 84.1813 95.4926C85.9879 94.5441 87.772 93.5279 89.6239 92.6697C91.9273 91.5857 93.8695 92.4665 95.4504 94.1602C97.1215 95.9443 98.5894 97.909 100.261 99.6705C101.232 100.687 102.451 101.5 103.58 102.403C102.745 102.764 101.774 103.103 100.893 103.6C99.9896 104.074 99.4476 103.781 98.7927 103.216ZM92.7178 90.6598C94.818 89.9597 96.6924 89.0564 98.6798 88.7402C99.967 88.537 101.028 89.7113 101.819 90.7953C103.738 93.415 105.161 96.283 106.336 99.3092C106.674 100.19 107.126 101.026 107.6 102.019C103.964 102.064 101.593 100.1 99.5379 97.48C97.6184 94.9958 95.6536 92.5116 92.7178 90.6598ZM106.674 97.751C105.658 94.4764 103.919 91.4728 101.299 88.7854C103.626 88.9209 105.726 89.1919 107.668 90.0952C108.345 90.4114 108.978 90.7953 109.61 91.2018C110.943 92.1051 111.733 93.302 111.62 95.041C111.349 98.7672 112.027 102.313 114.036 105.587C110.943 103.532 107.894 101.658 106.674 97.751ZM112.727 99.1059C112.072 95.6281 112.591 92.1955 113.63 88.8531C113.901 87.995 114.375 87.1142 114.985 86.4819C118.079 83.3202 121.534 80.678 126.006 79.865C130.071 79.1197 134.045 79.3907 137.591 81.8975C137.975 82.1685 138.359 82.3943 138.81 82.6879C138.155 83.817 137.546 84.8333 137.004 85.7141C135.174 85.285 133.436 84.7655 131.674 84.472C129.235 84.0655 126.819 84.5397 124.493 85.3075C122.596 85.9399 120.924 86.9787 119.434 88.3337C117.943 89.6661 117.356 91.3825 117.198 93.2343C116.656 99.3318 118.869 104.21 123.77 107.891C123.86 107.959 123.928 108.026 124.063 108.139C123.454 109.201 122.867 110.285 122.234 111.391C116.679 109.11 113.788 104.797 112.727 99.1059ZM119.389 76.1161C121.308 75.8677 123.183 75.5064 125.012 76.2968C126.548 76.9517 128.016 77.697 129.258 78.2616C127.135 78.781 124.764 79.2778 122.46 79.9779C121.399 80.294 120.382 80.9264 119.479 81.6039C117.718 82.9137 116.069 82.462 114.33 81.5813C111.868 80.3392 110.355 78.1486 108.639 75.9806C112.275 76.7033 115.843 76.5904 119.389 76.1161ZM152.496 54.0296C150.78 54.0974 149.673 53.3521 148.747 52.0649C146.986 49.6259 146.534 46.803 146.263 43.7091C149.221 46.532 152.631 48.158 156.177 49.5581C158.232 50.3711 160.016 51.4777 161.123 53.5102C161.687 54.5491 162.5 55.4298 163.087 56.2428C161.236 55.6331 159.339 54.82 157.329 54.3684C155.77 54.007 154.099 53.9619 152.496 54.0296ZM211.687 56.5364C213.923 53.7135 215.368 50.5066 219.117 49.4C222.007 48.5419 226.637 46.0351 228.715 43.7091C228.557 47.1417 228.105 48.9484 226.772 51.3196C225.779 53.0811 224.492 54.1425 222.256 54.0296C218.597 53.8264 216.497 54.0748 211.687 56.5364ZM268.619 48.6774C269.139 52.2004 268.823 55.5201 266.948 58.4108C265.232 61.0531 262.68 62.8597 259.722 63.9663C257.983 64.6212 256.153 65.0955 254.302 65.3439C252.721 65.5471 251.953 64.7341 252.088 63.1081C252.337 59.698 253.692 56.6945 255.634 53.9167C258.389 49.9872 262.251 48.4741 266.926 48.7C267.49 48.7 268.032 48.6774 268.619 48.6774ZM266.384 75.9355C264.329 78.6229 262.409 81.2651 259.021 82.2136C257.96 82.5072 257.012 82.5072 256.018 81.8297C252.856 79.6391 249.333 78.51 245.268 78.5551C248.836 76.7033 252.156 75.2128 256.266 76.1387C259.496 76.8614 262.906 76.7033 266.384 75.9355ZM241.203 78.7584C239.916 79.21 238.629 79.6843 237.319 80.136C238.29 77.4937 239.193 74.8515 240.232 72.277C241.632 68.8217 244.071 66.4505 247.775 65.5697C248.611 65.3665 249.536 65.502 250.417 65.6149C251.433 65.7504 251.885 66.5182 251.953 67.5119C252.201 70.7413 250.846 73.2706 248.43 75.3031C246.33 77.1098 243.733 77.9002 241.203 78.7584ZM258.525 75.4612C256.289 75.3935 254.053 74.9644 251.75 74.6934C252.879 72.4125 254.889 71.1478 257.26 70.5381C259.202 70.0412 261.235 69.838 263.199 69.3863C265.096 68.9572 266.971 68.3701 268.89 67.8281C268.552 69.6121 268.348 71.5995 267.693 73.4287C267.422 74.1966 266.18 74.9192 265.3 75.0547C263.064 75.4161 260.783 75.529 258.525 75.4612ZM264.825 68.0765C263.312 68.483 261.731 68.7088 260.151 68.9798C257.825 69.3863 255.453 69.6347 253.398 71.3962C253.511 69.9283 253.534 68.6636 253.782 67.4667C253.872 67.0828 254.573 66.6989 255.069 66.5634C258.57 65.5923 262.002 64.5083 264.825 62.0919C266.587 60.5788 268.281 59.0206 268.868 56.6267C268.981 56.6493 269.116 56.6719 269.229 56.6945C269.071 59.1109 268.936 61.5047 268.755 63.9211C268.574 66.3376 266.926 67.4893 264.825 68.0765ZM251.456 60.6014C250.53 63.6953 250.485 63.6953 247.278 63.9889C246.985 64.0115 246.668 64.0566 246.172 64.1018C248.723 60.7143 248.34 56.6945 249.288 53.0586C250.078 50.0776 251.298 48.9258 254.302 48.5193C254.844 48.4516 255.408 48.4064 255.973 48.4064C257.599 48.3838 259.225 48.4064 260.986 48.4064C255.521 50.8228 253.014 55.3395 251.456 60.6014ZM247.301 58.6818C246.985 60.7821 246.149 62.6113 244.794 64.2147C244.252 64.8471 243.507 65.2761 242.581 66.0214C242.355 62.0693 242.061 58.4334 242.016 54.82C241.994 53.5328 242.536 52.223 242.897 50.9583C243.1 50.1905 243.665 49.7614 244.5 49.6259C246.262 49.3323 248.023 48.9258 249.92 48.5419C248.227 51.8165 247.82 55.2717 247.301 58.6818ZM241.135 59.6303C241.203 61.2111 241.542 62.7694 241.677 64.3502C241.813 65.7956 241.406 67.128 240.729 68.4152C240.142 69.5218 239.69 70.7413 239.08 72.1189C238.945 70.8316 238.855 69.7476 238.696 68.6862C238.335 66.2246 237.409 63.9663 235.964 61.979C234.88 60.4659 234.925 58.9302 235.625 57.372C236.845 54.6168 239.148 52.8553 241.632 51.0261C240.774 54.0522 241 56.8526 241.135 59.6303ZM232.96 59.4496C235.196 62.2048 237.093 65.1181 237.68 68.6862C238.425 73.2255 237.861 77.4937 234.722 81.22C233.683 80.5876 232.622 79.9779 231.831 79.5036C232.305 77.1324 233.096 74.9418 233.118 72.7512C233.164 68.9572 232.147 65.3665 229.573 62.3403C227.473 59.8787 224.74 59.4271 221.782 59.5174C219.139 59.5851 216.61 60.3756 214.442 61.7757C212.522 63.0178 210.896 64.7341 209.045 66.3601C208.254 65.9085 207.193 65.3213 206.131 64.7116C208.028 58.7496 215.458 54.7297 220.607 55.0233C222.414 55.1136 224.198 55.2943 226.005 55.4524C228.918 55.7008 231.131 57.1913 232.96 59.4496ZM199.989 88.3111C199.943 88.3563 199.853 88.3337 199.605 88.4015C200.214 85.8947 200.756 83.4783 201.411 81.1071C201.502 80.7683 202.089 80.4521 202.518 80.3844C205.431 79.9101 207.351 78.1938 207.983 75.416C208.638 72.5254 207.531 69.3637 204.167 68.4152C199.605 67.128 196.217 71.351 196.827 75.2354C197.143 77.155 198.092 78.5777 199.537 79.752C199.763 79.9327 200.034 80.3166 199.989 80.5425C199.311 83.004 198.543 85.4656 197.821 87.9498C197.075 86.6625 196.488 85.3753 195.675 84.2461C193.959 81.8975 191.362 80.9038 188.72 80.0005C188.449 79.9101 188.019 79.594 188.019 79.4359C188.245 77.4485 188.268 75.3709 188.9 73.4965C190.594 68.483 194.23 65.6826 199.537 65.2987C201.276 65.1858 203.105 65.0955 204.776 65.5245C206.402 65.9536 207.961 66.8796 209.338 67.8732C211.167 69.2056 212.906 70.7413 213.832 72.9093C214.284 73.9707 214.6 75.0999 214.758 76.2516C215.187 79.6617 214.148 82.7782 212.455 85.6915C212.319 85.9399 211.822 86.2109 211.574 86.1431C207.351 85.0817 203.421 85.3076 199.989 88.3111ZM203.105 114.395C203.986 112.679 204.37 110.962 204.076 109.11C204.031 108.885 204.212 108.523 204.415 108.388C205.386 107.688 206.335 106.942 207.396 106.378C208.525 105.791 209.699 106.107 210.558 107.033C211.416 107.936 211.732 109.02 211.1 110.127C210.535 111.143 209.835 112.069 209.157 113.017C208.999 113.221 208.661 113.446 208.457 113.401C206.583 113.13 204.821 113.492 203.105 114.395ZM202.97 112.046C202.812 112.475 202.631 112.904 202.428 113.311C201.66 114.847 201.66 114.824 199.943 114.508C198.521 114.237 197.233 114.688 195.811 115.592C196.104 113.514 195.314 112.024 194.094 110.691C193.936 110.533 193.801 110.217 193.869 110.014C194.523 107.259 197.821 105.429 200.44 106.355C201.999 106.92 203.963 109.427 202.97 112.046ZM174.131 114.711C173.905 114.779 173.476 114.643 173.34 114.463C171.737 112.362 171.037 109.743 173.069 107.507C174.718 105.7 177.473 105.565 179.302 107.326C179.98 107.981 180.522 108.794 181.019 109.607C181.177 109.878 181.109 110.511 180.883 110.759C179.709 112.091 178.986 113.559 179.212 115.592C177.496 114.417 175.87 114.192 174.131 114.711ZM166.746 113.379C166.475 113.401 166.068 113.266 165.91 113.085C165.21 112.159 164.488 111.233 163.968 110.217C163.313 108.952 163.562 107.936 164.555 106.965C165.481 106.062 166.543 105.813 167.74 106.446C168.756 106.988 169.682 107.71 170.608 108.388C170.811 108.523 170.992 108.885 170.946 109.11C170.563 111.053 171.127 112.791 172.008 114.508C170.314 113.514 168.598 113.175 166.746 113.379ZM167.175 85.6689C165.933 85.8495 164.691 86.0302 163.449 86.1431C163.178 86.1657 162.771 85.9399 162.636 85.7141C160.49 82.1685 159.632 78.3293 160.671 74.2869C161.01 72.977 161.845 71.6898 162.726 70.6284C163.765 69.3863 165.075 68.37 166.339 67.3538C169.162 65.118 172.414 64.5761 175.87 65.3439C177.473 65.7052 179.099 66.1343 180.635 66.7215C182.419 67.399 183.503 68.8895 184.587 70.4251C186.552 73.1577 186.755 76.2516 187.003 79.3907C187.026 79.5714 186.755 79.9327 186.574 79.9779C182.216 81.1522 178.783 83.3654 177.225 87.9724C176.502 85.5334 175.757 83.117 175.079 80.6554C175.011 80.3844 175.282 79.8876 175.553 79.6843C177.857 77.8325 178.625 75.4386 178.06 72.5931C177.631 70.4477 175.17 68.5055 173.047 68.2571C171.421 68.0765 170.066 68.5507 168.824 69.4766C166.656 71.1026 166.181 75.0773 167.83 77.3582C169.004 78.9616 170.427 80.1585 172.505 80.3392C173.363 80.407 173.634 80.9038 173.792 81.6942C174.198 83.7041 174.74 85.6689 175.215 87.6788C175.26 87.882 175.282 88.0853 175.35 88.4918C174.537 87.9498 173.882 87.5207 173.227 87.0916C171.376 85.8721 169.366 85.3753 167.175 85.6689ZM152.609 73.3384C152.564 74.1062 152.518 74.874 152.609 75.6419C152.699 76.3645 152.948 77.0646 153.128 77.855C152.518 77.7647 151.954 77.6292 151.367 77.5841C150.78 77.5389 150.17 77.5841 149.492 77.5841C148.544 75.0547 148.115 72.5028 148.973 69.8606C149.899 67.0602 151.728 66.0214 154.89 66.6311C156.696 66.9699 158.255 67.8732 159.564 69.2056C160.084 69.725 160.581 70.2896 161.1 70.8316C160.558 71.9382 160.039 72.9771 159.497 74.0836C158.91 73.5416 158.368 72.9093 157.69 72.435C157.035 71.9608 156.29 71.5769 155.522 71.3285C153.941 70.7639 152.744 71.622 152.609 73.3384ZM158.029 66.8118C156.132 65.5471 153.964 65.1632 151.728 65.6149C149.56 66.044 147.64 69.0475 147.618 71.8479C147.618 72.8415 147.573 73.8578 147.708 74.8289C147.844 75.8 148.182 76.7485 148.453 77.7421C147.121 78.1486 145.856 78.5325 144.456 78.9616C143.35 76.8614 142.717 74.6256 142.853 72.277C142.988 69.9961 143.372 67.7377 144.479 65.6149C145.924 62.9049 147.753 60.8272 151.051 60.6014C156.854 60.2175 161.439 62.3855 164.894 67.128C163.833 68.1216 162.839 69.0475 161.891 69.9509C160.603 68.8669 159.406 67.7151 158.029 66.8118ZM153.761 76.0935C153.602 75.3257 153.625 74.4901 153.738 73.7223C153.919 72.5705 154.664 72.1866 155.748 72.5931C157.125 73.1125 158.164 74.0611 158.955 75.2805C159.181 75.6419 159.248 76.1387 159.271 76.5904C159.406 78.4196 159.474 80.2263 159.542 81.5813C158.548 80.9264 157.261 79.8875 155.838 79.1875C154.483 78.51 154.054 77.3582 153.761 76.0935ZM189.623 63.7179C188.426 61.7983 186.597 61.8209 185.4 63.7405C184.7 64.8922 184.248 66.2021 183.683 67.4441C182.916 66.9473 181.99 66.3827 181.109 65.773C180.973 65.6826 180.815 65.4116 180.861 65.2535C181.425 62.4532 182.396 59.8561 184.88 58.1624C187.387 56.4686 188.968 56.8751 191.452 59.2238C193.123 60.8046 193.778 62.9726 194.23 65.1858C194.275 65.3665 194.117 65.66 193.959 65.773C193.078 66.3601 192.197 66.9247 191.407 67.4216C190.797 66.1569 190.323 64.8696 189.623 63.7179ZM190.187 68.754C190.187 69.4315 189.51 70.109 189.149 70.7865C188.539 71.9834 187.974 73.2029 187.545 74.061C186.777 72.6157 185.806 70.8768 184.926 69.0701C184.745 68.6862 184.79 68.0765 184.971 67.6474C185.445 66.4505 185.942 65.2535 186.619 64.1921C187.048 63.5146 187.816 63.5598 188.449 64.147C189.781 65.3891 190.165 67.0602 190.187 68.754ZM194.411 62.3177C193.349 59.4948 191.61 57.3268 188.629 56.3557C186.597 55.7008 184.993 56.717 183.593 57.914C181.809 59.4045 180.657 61.3466 180.228 63.6727C180.138 64.1921 179.935 64.689 179.799 65.1858C178.625 64.9374 177.541 64.6438 176.434 64.4631C175.87 64.3728 175.734 64.1695 175.802 63.6275C176.095 60.8046 177.067 58.3205 178.851 56.0847C180.973 53.4425 183.525 51.5455 186.89 50.9357C187.613 50.8002 188.449 50.9357 189.149 51.1841C194.794 53.036 197.956 57.0784 199.198 62.7468C199.311 63.2211 199.221 63.7179 199.221 64.305C197.979 64.5986 196.669 64.8922 195.246 65.2084C194.975 64.2373 194.772 63.2436 194.411 62.3177ZM190.142 93.0085C190.165 91.9019 190.075 90.7501 189.826 89.6887C189.6 88.695 188.381 87.9272 187.477 87.995C186.348 88.0627 185.58 88.7402 185.151 89.7565C184.564 91.1792 184.722 92.6697 185.038 94.1376C185.174 94.7925 185.264 95.4475 185.4 96.1701C184.451 95.583 183.593 95.041 182.735 94.499C182.599 94.4086 182.419 94.2505 182.419 94.115C182.125 91.518 181.967 88.966 183.729 86.7077C186.213 83.546 190.21 84.2461 192.017 87.7466C193.056 89.7565 192.943 91.9245 192.604 94.0699C192.581 94.2506 192.333 94.4538 192.13 94.5667C191.339 95.0861 190.526 95.6055 189.645 96.1701C189.826 95.0861 190.12 94.0473 190.142 93.0085ZM188.426 96.5766C188.245 97.2541 187.884 97.8865 187.523 98.7672C186.258 96.012 185.49 93.415 185.942 90.5695C186.077 89.7113 186.506 89.079 187.432 89.0338C188.426 88.9886 188.878 89.6661 189.081 90.5469C189.555 92.6246 188.945 94.5893 188.426 96.5766ZM193.62 93.9118C193.62 92.3535 193.756 90.8856 193.598 89.4629C193.327 86.911 191.091 84.4494 188.878 83.817C185.851 82.9815 182.961 85.2624 181.945 87.6336C181.199 89.3726 181.109 91.2018 181.38 93.0536C181.425 93.2795 181.38 93.5279 181.38 93.8215C181.177 93.8666 181.109 93.8892 181.041 93.8892C178.263 94.0021 178.105 93.8666 178.083 91.0437C178.038 87.0465 179.731 84.0655 183.345 82.304C184.564 81.7168 185.897 80.949 187.184 80.9716C190.707 81.0393 193.507 82.733 195.517 85.6915C197.098 88.0175 197.279 90.5695 196.646 93.2343C196.579 93.4827 196.262 93.8666 196.037 93.8892C195.269 93.9795 194.501 93.9118 193.62 93.9118ZM168.937 76.5678C168.62 75.7548 168.507 74.874 168.304 74.0159C168.462 71.0349 170.879 69.0927 173.769 69.7702C175.147 70.0864 175.689 71.2833 176.299 72.3447C177.541 74.5353 177.157 77.8551 174.289 79.0745C172.392 79.8875 169.84 78.8036 168.937 76.5678ZM175.192 89.9371C176.186 91.1115 176.705 92.6923 177.428 94.1376C176.366 94.77 175.599 95.2216 175.034 95.5604C173.882 94.0021 172.889 92.331 171.556 90.9534C169.253 88.5821 164.939 88.6047 163.065 90.9308C161.349 93.031 161.1 95.47 162.003 97.9542C162.5 99.3318 163.336 100.574 164.036 101.884C163.313 102.313 162.545 102.764 161.755 103.216C157.78 99.9416 157.532 94.1151 160.106 90.6824C161.213 89.1919 162.094 87.5433 164.059 87.0465C168.304 85.9399 172.211 86.4593 175.192 89.9371ZM166.61 93.6182C165.459 94.228 165.007 95.3571 165.639 97.1638C166.046 98.3607 166.972 99.377 167.717 100.461C167.988 100.867 168.349 101.206 168.666 101.613C166.588 102.155 165.097 101.568 164.059 99.8738C162.907 98.022 162.184 96.1024 162.704 93.844C163.675 89.6661 168.146 89.4403 170.63 91.3825C172.256 92.6471 173.182 94.386 173.927 96.2379C173.995 96.4185 174.018 96.667 173.95 96.825C173.498 97.7284 173.002 98.6317 172.572 99.4447C171.782 97.8413 171.082 96.1927 170.133 94.657C169.32 93.3472 167.74 93.0085 166.61 93.6182ZM166.972 97.8413C166.701 97.3896 166.475 96.8928 166.385 96.3734C166.249 95.6055 166.317 94.7022 167.175 94.499C167.74 94.3635 168.643 94.5667 169.049 94.9732C170.653 96.5541 171.105 98.722 171.669 100.8C171.827 101.409 171.827 102.064 171.895 102.877C169.727 101.5 168.214 99.806 166.972 97.8413ZM174.56 97.6606C175.847 95.583 178.67 94.4538 181.019 95.0184C184.496 95.854 186.484 98.2252 187.026 101.929C186.281 102.222 185.558 102.493 184.813 102.787C184.293 101.703 183.842 100.529 183.209 99.4899C182.057 97.5703 180.702 97.1638 178.376 97.8187C176.931 98.2252 175.757 100.054 175.937 101.635C176.073 102.742 176.141 103.871 176.254 105.068C175.531 105.181 174.786 105.294 173.95 105.429C172.663 102.719 173.002 100.167 174.56 97.6606ZM177.044 103.013C177.044 102.448 176.954 101.884 176.976 101.319C176.999 99.8512 177.789 98.9253 179.347 98.4962C180.386 98.2026 181.809 98.835 182.396 99.919C182.825 100.732 183.164 101.59 183.525 102.426C183.751 102.99 183.616 103.465 183.322 104.074C182.622 105.52 182.17 107.078 181.696 108.32C180.883 107.597 179.935 106.423 178.715 105.791C177.45 105.136 177.044 104.278 177.044 103.013ZM187.794 103.081C190.662 103.194 193.101 106.942 191.972 109.562C191.859 109.833 191.43 110.059 191.113 110.172C189.307 110.804 188.381 111.595 187.5 113.379C186.732 111.662 185.535 110.601 183.864 110.172C183.187 110.014 182.983 109.63 182.893 109.02C182.374 105.858 184.745 102.945 187.794 103.081ZM181.809 111.301C182.148 111.03 182.758 110.917 183.209 110.985C185.355 111.278 187.229 113.695 187.048 115.885C187.026 116.043 187.003 116.292 186.913 116.36C185.49 117.24 185.377 118.821 184.88 120.199C183.842 119.25 183.051 117.94 181.425 117.94C181.267 117.94 181.086 117.715 180.973 117.557C179.641 115.66 180.002 112.791 181.809 111.301ZM186.597 118.211C186.755 117.85 187.229 117.421 187.523 117.421C187.839 117.421 188.29 117.873 188.471 118.211C189.668 120.786 188.697 123.135 187.545 125.709C186.303 123.112 185.377 120.786 186.597 118.211ZM188.11 116.382C188.042 116.337 187.997 116.202 187.974 116.111C187.432 114.079 190.052 110.94 192.152 110.962C193.53 110.985 195.246 113.717 194.862 115.208C194.682 115.863 194.501 116.495 194.298 117.127C194.117 117.647 193.733 117.828 193.191 118.053C192.197 118.505 191.362 119.295 190.458 119.95C190.346 120.018 190.323 120.199 190.187 120.447C189.713 118.799 189.533 117.263 188.11 116.382ZM193.756 108.072C193.552 108.252 193.439 108.501 193.123 108.907C193.191 106.784 192.626 105.113 191.452 103.668C191.317 103.51 191.294 103.171 191.362 102.968C191.859 101.793 192.243 100.551 192.943 99.5125C193.71 98.3607 194.998 98.1801 196.353 98.6995C197.414 99.0834 198.114 100.145 198.092 101.477C198.092 102.29 198.024 103.103 197.911 103.916C197.798 104.616 197.504 105.068 196.759 105.474C195.63 106.129 194.727 107.191 193.756 108.072ZM198.792 105.068C198.882 103.848 199.018 102.629 199.04 101.387C199.085 99.6931 198.114 98.2704 196.714 97.8187C194.546 97.1186 193.033 97.5025 191.972 99.2189C191.294 100.325 190.797 101.545 190.21 102.742C189.51 102.471 188.765 102.2 188.042 101.929C188.471 98.0897 190.526 96.0572 193.53 95.1087C195.991 94.3409 198.453 95.041 200.102 97.1638C202.044 99.648 202.541 102.426 201.095 105.407C200.26 105.294 199.537 105.181 198.792 105.068ZM204.957 94.5893C203.986 96.125 203.286 97.8413 202.473 99.4221C202.044 98.6317 201.569 97.751 201.095 96.825C201.027 96.6895 200.982 96.4863 201.05 96.3508C201.863 94.3183 202.902 92.4665 204.709 91.1115C205.973 90.163 209.045 89.8468 210.445 90.9082C211.913 92.0148 212.861 94.3635 212.432 96.4186C212.048 98.2704 211.1 99.8286 209.903 101.274C209.79 101.409 209.564 101.568 209.406 101.568C208.412 101.635 207.441 101.68 206.244 101.748C206.899 100.958 207.509 100.303 208.028 99.5576C208.548 98.8124 209.045 98.022 209.406 97.1864C210.038 95.741 209.632 94.3183 208.48 93.6408C207.351 93.0085 205.77 93.302 204.957 94.5893ZM205.747 95.1765C206.267 94.4538 207.057 93.9796 207.961 94.5216C208.864 95.041 208.819 95.9443 208.503 96.7799C207.509 99.3318 205.612 101.116 203.331 102.606C203.376 99.8512 204.144 97.3671 205.747 95.1765ZM212.048 100.032C213.516 97.5251 214.103 94.9506 212.748 92.1503C211.484 89.5532 209.112 88.7854 206.425 89.3951C203.466 90.0726 201.886 92.2181 200.689 94.77C200.576 94.9958 200.485 95.2216 200.373 95.4475C200.327 95.5378 200.26 95.6055 200.214 95.6733C199.401 95.199 198.634 94.7248 197.821 94.2731C198.792 89.0112 203.489 86.4593 206.899 86.5722C208.096 86.6174 209.293 86.7077 210.467 86.911C211.642 87.1142 212.726 87.6336 213.403 88.6499C214.352 90.0501 215.503 91.405 216.045 92.9633C217.197 96.3056 216.7 99.5125 214.216 102.245C213.9 102.584 213.606 102.923 213.313 103.239C212.5 102.764 211.732 102.313 210.874 101.816C211.258 101.229 211.687 100.642 212.048 100.032ZM201.931 79.3681C200.508 79.3455 198.882 78.1486 198.408 76.7259C197.685 74.603 198.453 71.735 200.192 70.3348C200.553 70.0412 201.118 69.7251 201.524 69.7928C202.834 69.9961 204.189 70.2219 205.363 70.7639C206.718 71.3962 206.538 72.8641 206.583 73.9707C206.56 77.2001 204.618 79.3907 201.931 79.3681ZM219.388 71.3285C218.236 71.8479 217.22 72.7286 216.181 73.4739C215.955 73.632 215.842 73.9255 215.639 74.2191C215.029 73.0674 214.51 72.0963 214.035 71.1252C213.968 70.9671 214.013 70.6284 214.126 70.4929C215.616 68.9798 217.152 67.5345 219.207 66.7666C222.504 65.5471 225.621 67.1731 226.298 70.6735C226.75 73.0222 226.434 75.3257 225.53 77.4711C224.311 77.5615 223.114 77.6518 221.94 77.7421C222.143 76.7936 222.414 75.8451 222.504 74.8966C222.572 74.2191 222.504 73.4739 222.324 72.7964C221.94 71.3736 220.765 70.6961 219.388 71.3285ZM215.729 76.3646C215.774 75.8677 215.955 75.2805 216.271 74.9192C216.926 74.1965 217.649 73.4513 218.507 72.977C219.117 72.6383 220.201 72.3673 220.63 72.6835C221.149 73.0674 221.443 74.1062 221.42 74.8289C221.398 75.8226 221.194 76.9517 220.652 77.7647C220.11 78.5777 219.072 79.0745 218.213 79.6617C217.242 80.3618 216.249 81.0167 215.481 81.5361C215.549 80.0231 215.594 78.1938 215.729 76.3646ZM226.569 77.7421C226.727 77.1324 226.908 76.5 227.066 75.8677C227.653 73.5868 227.676 71.2833 226.795 69.0927C225.305 65.4342 222.549 64.7116 218.552 66.0891C217.491 66.4505 216.497 67.0602 215.594 67.7377C214.736 68.3926 214.058 69.296 213.29 70.109C212.161 69.0701 211.167 68.1442 210.129 67.1731C212.771 63.1985 216.52 61.166 221.149 60.624C222.188 60.511 223.249 60.5562 224.288 60.6466C227.45 60.9401 229.189 63.0404 230.521 65.66C231.899 68.3926 232.441 71.3059 232.034 74.3095C231.831 75.8903 231.199 77.426 230.77 79.0068C229.234 78.5326 227.969 78.1486 226.569 77.7421ZM205.793 61.8886C205.386 59.8336 205.002 57.7333 204.573 55.6331C204.008 52.9231 203.941 50.2582 205.002 47.616C205.77 45.7416 207.012 44.2736 208.728 43.2574C210.558 42.196 211.642 42.5121 212.59 44.4317C213.832 46.9159 213.945 49.513 212.951 52.1326C211.913 54.8878 209.925 56.9881 208.051 59.1335C207.26 60.082 206.493 61.0305 205.793 61.8886ZM226.705 44.2285C224.13 45.7867 221.465 47.1417 218.801 48.5419C217.784 49.0839 216.678 49.4904 215.503 49.9872C215.436 46.7804 217.039 44.5221 219.297 42.5573C221.511 40.6377 223.656 38.6052 225.801 36.6179C226.163 36.2791 226.389 35.8275 226.795 35.2629C227.36 36.7986 227.947 38.2213 228.398 39.6666C229.008 41.7217 228.579 43.0767 226.705 44.2285ZM223.091 38.0858C221.443 39.6215 219.614 40.999 217.965 42.5573C216.904 43.551 216.068 44.7705 215.097 45.9222C214.645 44.9286 214.035 43.7994 213.652 42.5799C213.539 42.2411 213.99 41.6314 214.284 41.2249C215.865 39.2827 217.604 37.4535 219.049 35.3984C220.652 33.1175 221.352 30.4075 221.601 27.6297C221.646 27.0651 221.443 26.4554 221.352 25.8682C221.443 25.8231 221.533 25.7779 221.623 25.7327C222.64 27.6975 223.724 29.6396 224.672 31.627C226.027 34.3596 225.079 36.2566 223.091 38.0858ZM220.562 27.4491C220.63 29.3009 219.93 31.2656 219.207 33.0497C218.033 35.9856 216.068 38.4246 213.516 40.3216C211.845 41.5636 210.535 41.2023 209.767 39.2601C208.164 35.2177 207.893 31.1076 209.112 26.9071C210.016 23.8131 212.342 21.9387 214.848 20.2224C215.549 19.7481 216.362 19.4545 217.175 19.0255C219.252 21.5548 220.427 24.4003 220.562 27.4491ZM209.135 24.4003C207.08 28.5105 206.989 32.8239 208.051 37.205C208.277 38.1535 208.638 39.102 208.774 40.0731C208.841 40.5022 208.683 41.1346 208.39 41.4056C207.464 42.196 206.425 42.8509 205.228 43.6865C205.815 41.4733 205.138 39.644 204.483 37.8148C203.828 35.9856 203.083 34.1789 202.541 32.3045C201.682 29.2783 202.382 27.4942 205.025 25.8005C206.651 24.7616 208.322 23.7906 210.129 22.955C209.812 23.4066 209.406 23.8583 209.135 24.4003ZM204.031 39.5537C204.821 42.0605 204.596 44.3866 203.195 46.8707C201.208 43.8897 199.334 41.0668 197.459 38.2439C196.533 36.8437 195.946 35.2629 195.878 33.5917C195.856 33.0045 196.33 32.2593 196.782 31.8076C198.024 30.5881 199.401 29.4815 200.892 28.1717C200.96 32.4174 202.879 35.8726 204.031 39.5537ZM201.027 45.1996C202.292 46.7578 202.902 48.5645 202.902 50.6196C202.902 51.7487 203.105 52.8553 203.263 54.2555C202.97 53.8715 202.834 53.6909 202.721 53.5102C201.027 50.597 198.679 48.3612 195.653 46.9611C193.598 46.0125 192.897 44.4543 192.83 42.4218C192.717 39.6892 193.756 37.2276 194.885 34.6306C196.217 38.7181 198.453 42.0379 201.027 45.1996ZM189.6 45.6286C193.168 46.4416 196.443 47.9999 199.108 50.5292C201.637 52.9005 203.331 55.8589 203.986 59.2916C204.279 60.8272 204.189 62.4081 204.279 64.1018C202.97 64.1018 201.886 64.147 200.802 64.0566C200.576 64.034 200.237 63.5598 200.192 63.2662C199.65 57.9817 196.759 54.2103 192.446 51.4551C189.149 49.3323 185.716 49.4 182.441 51.5455C178.512 54.0974 175.847 57.5752 174.966 62.2725C174.628 64.1244 174.582 64.1244 172.685 64.1244C172.121 64.1244 171.556 64.1244 170.946 64.1244C170.269 59.2464 171.85 55.2491 174.831 51.7261C177.744 48.2709 181.674 46.5094 185.942 45.5157C187.094 45.2221 188.426 45.3576 189.6 45.6286ZM169.23 61.866C167.469 59.7432 165.594 57.6656 163.923 55.4524C161.507 52.2681 160.603 48.7451 162.229 44.906C163.449 42.0153 165.165 41.9927 167.672 44.3188C171.082 47.4353 171.24 51.4325 170.472 55.6105C170.066 57.6881 169.637 59.7884 169.23 61.866ZM180.206 46.4416C176.773 48.2031 173.905 50.5066 171.918 54.1877C171.872 50.1453 172.437 46.6675 175.147 43.6413C177.405 41.0894 179.144 38.0858 180.115 34.5628C181.515 37.9503 183.029 41.1571 181.674 44.7931C181.448 45.4254 180.838 46.1029 180.206 46.4416ZM178.58 36.1662C176.999 38.9214 175.215 41.5636 173.498 44.2285C172.956 45.0641 172.392 45.8771 171.782 46.7804C169.975 43.7768 170.427 40.8636 171.511 37.9051C172.414 35.421 173.182 32.8691 173.927 30.3397C174.108 29.7526 174.04 29.0976 174.108 28.1491C175.779 29.6622 177.473 30.8817 178.783 32.4625C179.664 33.4788 179.212 35.0596 178.58 36.1662ZM172.618 31.6496C172.166 33.4562 171.398 35.1951 170.879 36.9792C170.382 38.6504 169.953 40.3667 169.591 42.0831C169.501 42.5347 169.682 43.0541 169.75 43.6413C168.643 42.8509 167.649 42.1734 166.701 41.4507C166.046 40.9539 166.181 40.299 166.385 39.6215C167.152 36.934 167.807 34.2241 167.649 31.4011C167.536 29.0299 167.152 26.6812 166.001 24.5584C165.707 24.0164 165.301 23.5195 165.03 22.7969C166.317 23.5647 167.627 24.2874 168.891 25.0778C169.727 25.5972 170.54 26.1844 171.285 26.8167C172.843 28.0814 173.069 29.8429 172.618 31.6496ZM166.565 30.1816C166.836 33.3659 166.362 36.3921 165.233 39.3053C164.488 41.2023 163.133 41.6088 161.552 40.3441C157.622 37.2276 154.935 33.2981 154.551 28.1717C154.303 24.7616 155.748 21.7806 157.803 19.0255C162.681 21.2838 166.114 24.4906 166.565 30.1816ZM156.945 36.9341C158.051 38.4471 159.384 39.7795 160.671 41.1571C161.326 41.8572 161.642 42.4444 161.078 43.3929C160.581 44.2285 160.265 45.177 159.813 46.1932C159.361 45.4254 159.045 44.6124 158.503 44.0478C157.193 42.7154 155.748 41.5185 154.37 40.2538C153.196 39.1924 151.931 38.1761 150.915 36.9792C149.989 35.8726 149.379 34.5402 149.854 32.9594C150.667 30.3397 152.135 28.0814 153.648 25.5521C153.038 30.0461 154.551 33.6369 156.945 36.9341ZM156.561 43.3477C158.48 45.1092 159.61 47.2772 159.519 50.0098C155.635 48.2031 151.57 46.7804 148.137 44.1607C146.444 42.8509 146.06 41.6765 146.647 39.5763C146.737 39.2375 146.827 38.8988 146.963 38.56C147.369 37.4986 147.776 36.4598 148.25 35.2629C150.441 38.673 153.738 40.7732 156.561 43.3477ZM159.79 55.9492C163.878 57.7107 167.333 60.1723 168.891 64.689C167.853 65.2761 166.814 65.8633 165.82 66.4279C164.623 65.2084 163.517 63.8308 162.162 62.7694C159.813 60.9175 157.058 59.9013 154.054 59.6077C152.857 59.4948 151.638 59.5174 150.463 59.6529C146.489 60.1045 144.479 62.9049 143.146 66.2472C141.385 70.6058 141.407 74.987 143.508 79.3004C142.424 79.9553 141.385 80.5425 140.301 81.1974C138.607 79.1197 137.478 76.8162 137.207 74.1288C136.891 70.9445 137.139 67.828 138.517 64.8922C139.894 61.979 141.769 59.4045 144.185 57.2816C146.127 55.5879 148.657 55.3169 151.051 55.0685C154.009 54.7749 157.013 54.7523 159.79 55.9492ZM139.759 58.3882C140.075 59.4271 140.052 60.4207 139.375 61.4144C137.839 63.6501 136.71 66.0891 136.304 68.7991C136.146 69.8154 136.078 70.8542 135.965 72.006C134.136 68.5055 132.758 65.1858 133.684 61.1208C134.407 57.914 134.316 54.5265 133.413 51.0712C136.213 53.1037 138.765 55.0685 139.759 58.3882ZM132.69 52.381C132.916 54.7749 132.961 57.1687 132.894 59.5851C132.826 61.6176 132.487 63.6501 132.261 65.7278C129.98 64.6212 128.716 62.6565 128.128 60.3078C127.496 57.7785 127.18 55.1814 126.615 52.652C126.299 51.297 125.757 49.9872 125.283 48.5645C127.18 48.9484 129.145 49.2194 131.019 49.7388C132.193 50.055 132.6 51.3648 132.69 52.381ZM121.941 48.7677C124.154 49.0613 125.193 50.8002 125.667 52.8101C126.073 54.5491 126.277 56.3557 126.615 58.1172C127.022 60.1497 127.315 62.2274 128.964 64.0566C127.451 63.9437 126.277 63.9889 125.17 63.7179C124.718 63.605 124.222 62.8823 124.086 62.3403C123.138 58.8625 122.031 55.475 119.66 52.6746C118.147 50.8905 116.543 49.1968 114.127 48.5645C114.149 48.4516 114.172 48.3612 114.195 48.2483C116.769 48.429 119.389 48.4515 121.941 48.7677ZM117.379 51.6132C119.931 54.0071 121.602 57.0106 122.46 60.4207C122.708 61.3692 122.889 62.3629 122.934 63.334C122.979 64.689 122.234 65.5246 120.902 65.3439C119.005 65.0729 117.085 64.6438 115.279 63.9663C112.139 62.7694 109.407 60.8498 107.736 57.8688C106.561 55.7911 106.042 53.4199 106.223 50.9583C106.268 50.2582 106.223 49.5581 106.223 48.7677C110.378 48.429 114.262 48.7 117.379 51.6132ZM106.223 56.8074C107.216 60.0142 109.7 61.9112 112.365 63.605C114.714 65.118 117.379 65.8633 120.066 66.5408C120.879 66.744 121.331 67.1957 121.331 68.0991C121.353 69.1153 121.512 70.1316 121.647 71.3736C118.689 68.9798 115.166 69.2508 111.936 68.4604C111.191 68.2797 110.401 68.1668 109.678 67.9184C107.329 67.1505 106.2 65.389 106.065 63.063C105.929 60.9401 106.042 58.8173 106.042 56.6945C106.065 56.7171 106.2 56.7396 106.223 56.8074ZM116.25 70.1767C118.237 70.4929 119.998 71.2155 121.534 72.4802C122.234 73.0674 122.754 73.8804 123.431 74.6708C121.557 74.8966 119.908 75.2128 118.237 75.2805C115.708 75.3709 113.156 75.3935 110.604 75.258C109.7 75.2128 108.775 74.7385 107.962 74.2643C106.878 73.632 107.013 72.3673 106.765 71.3285C106.471 70.109 106.358 68.8443 106.155 67.5345C109.339 69.2734 112.817 69.6573 116.25 70.1767ZM123.115 67.6022C123.205 66.2924 123.86 65.6149 125.193 65.5471C128.332 65.389 130.816 66.6537 132.803 69.0024C134.7 71.2156 135.491 73.9481 136.417 76.613C136.823 77.8099 137.297 79.0068 137.772 80.3392C134.452 78.9842 131.064 77.9002 127.97 76.2516C124.696 74.4675 122.889 71.5317 123.115 67.6022ZM118.327 97.5929C118.034 96.0572 118.147 94.4312 118.282 92.873C118.531 89.8468 120.676 88.2886 123.092 87.0239C125.802 85.6011 128.716 85.0817 131.742 85.4656C133.345 85.6689 134.903 86.3012 136.529 86.7529C136.055 88.3111 135.671 89.5758 135.333 90.7275C133.503 90.5243 131.742 90.2307 129.958 90.1178C127.767 89.9823 125.848 90.7953 124.244 92.2632C122.934 93.4601 122.934 95.1087 123.07 96.6895C123.273 99.106 124.357 101.161 126.119 102.832C126.615 103.306 127.09 103.758 127.586 104.232C126.593 105.316 125.644 106.31 124.696 107.349C121.082 105.045 119.118 101.658 118.327 97.5929ZM124.402 98.293C123.205 94.1828 124.538 91.8115 129.145 91.0889C131.245 90.7727 132.894 91.1566 135.129 92.0148C135.129 92.5794 135.107 93.1891 135.129 93.7763C135.174 94.3635 135.287 94.9506 135.355 95.4023C133.91 95.2894 132.487 95.041 131.064 95.0636C129.1 95.0861 128.128 96.5541 128.964 98.3381C129.596 99.6706 130.567 100.867 131.403 102.11C130.5 102.539 129.461 103.058 128.377 103.577C126.706 102.132 125.057 100.551 124.402 98.293ZM132.329 96.0572C133.323 96.1927 134.361 96.396 135.287 96.8025C135.829 97.0509 136.236 97.6832 136.597 98.2252C137.523 99.5802 138.381 100.98 139.081 102.042C137.749 101.974 135.965 101.861 134.181 101.816C132.464 101.771 129.958 99.2189 130.003 97.5025C130.025 96.5766 131.087 95.8765 132.329 96.0572ZM136.191 94.0247C135.987 92.8504 136.213 91.5405 136.484 90.3662C137.049 87.9724 137.93 85.6689 139.375 83.659C140.911 81.5135 143.214 80.4521 145.608 79.6617C147.031 79.1875 148.544 78.8261 150.034 78.6003C151.728 78.3293 153.309 78.939 154.845 79.6391C157.78 81.0167 159.881 83.2525 161.507 86.0076C161.891 86.6626 161.868 87.0013 161.349 87.5433C159.632 89.35 158.097 91.3599 157.713 93.8892C157.487 95.4023 157.667 96.9831 157.667 98.7672C155.748 96.938 153.941 95.2442 152.157 93.5505C151.728 93.144 151.796 92.7601 152.022 92.2406C153.783 88.3111 151.254 83.2976 145.992 83.1621C143.372 83.0944 140.052 86.7529 140.865 89.8694C141.837 93.686 145.585 95.5152 148.589 94.8603C149.041 94.77 149.515 94.6571 149.899 94.4086C150.396 94.0925 150.757 94.2054 151.096 94.5667C152.789 96.3508 154.483 98.1349 156.245 99.9867C154.845 99.9867 153.58 99.8512 152.338 100.032C151.163 100.19 149.944 100.484 148.928 101.048C147.46 101.884 146.173 103.013 144.795 103.984C144.569 104.142 144.117 104.21 143.892 104.097C139.872 101.884 137.004 98.6769 136.191 94.0247ZM147.55 94.0699C145.111 94.1151 142.153 91.1115 142.175 88.6273C142.198 87.0013 144.637 84.6075 146.263 84.63C148.747 84.6526 151.638 87.5659 151.593 90.0049C151.547 92.0148 149.537 94.0473 147.55 94.0699ZM146.556 103.713C149.47 101.319 152.744 100.145 156.425 101.364C158.006 101.884 159.406 103.035 160.919 103.939C160.287 105.045 159.813 105.836 159.497 106.4C157.758 105.655 156.041 104.707 154.212 104.187C151.096 103.284 147.302 105.452 146.873 108.184C146.421 111.098 147.347 113.514 149.718 115.276C150.78 116.066 151.999 116.676 153.173 117.376C152.767 118.099 152.293 118.889 151.818 119.702C146.827 118.799 144.05 114.395 144.117 110.601C144.14 109.427 144.23 108.23 144.434 107.055C144.659 105.655 145.472 104.616 146.556 103.713ZM153.986 116.495C151.412 115.389 148.86 114.192 147.979 111.233C146.963 107.801 148.928 105.362 152.247 105.023C154.89 104.752 156.945 106.084 158.887 107.62C159 107.71 159.09 107.913 159.113 108.072C159.181 109.065 159.203 110.036 159.271 111.165C158.097 110.262 157.103 109.427 156.019 108.704C155.454 108.32 154.754 108.004 154.077 107.891C152.496 107.62 151.457 108.184 150.96 109.472C150.576 110.443 151.028 111.888 152.18 112.611C153.331 113.333 154.619 113.853 155.861 114.463C156.267 114.643 156.696 114.779 157.148 114.959C156.154 115.501 155.228 115.998 154.28 116.495C154.212 116.495 154.077 116.518 153.986 116.495ZM159.248 112.746C159.632 113.175 159.971 113.672 160.423 114.282C157.509 114.214 155.025 113.356 152.789 111.798C152.135 111.346 151.705 110.669 151.954 109.788C152.225 108.862 153.196 108.501 154.438 108.997C156.403 109.788 157.871 111.233 159.248 112.746ZM160.468 111.414C159.971 109.268 159.858 107.191 161.326 105.249C164.488 101.071 170.224 102.268 172.753 105.61C172.889 105.791 172.798 106.242 172.64 106.468C172.324 106.942 171.918 107.326 171.488 107.823C170.653 107.191 169.862 106.536 169.004 105.971C167.22 104.774 165.526 104.955 164.059 106.197C162.116 107.868 162.433 110.014 163.381 111.414C163.968 112.295 164.646 113.108 165.278 113.966C164.713 114.44 164.149 114.959 163.471 115.524C162.094 114.463 160.874 113.221 160.468 111.414ZM168.756 114.35C169.275 114.53 169.862 114.621 170.359 114.847C172.256 115.705 172.098 115.727 172.03 117.76C171.985 119.024 172.46 120.334 172.708 121.644C171.014 121.418 169.524 122.254 168.146 123.473C167.988 123.609 167.627 123.699 167.446 123.609C165.188 122.615 163.11 120.628 163.742 117.579C164.081 115.84 166.972 113.717 168.756 114.35ZM180.906 120.967C180.815 120.583 180.793 120.199 180.815 119.815C180.883 119.07 181.403 118.753 182.057 119.137C182.645 119.499 183.322 119.905 183.683 120.47C184.745 122.118 185.445 123.925 185.242 126.183C183.164 124.761 181.448 123.36 180.906 120.967ZM178.038 123.293C180.07 123.541 181.448 124.851 182.712 126.319C183.029 126.68 183.254 127.132 183.683 127.742C180.928 127.719 178.625 127.154 176.976 125.077C176.705 124.738 176.457 123.948 176.615 123.812C176.931 123.473 177.563 123.225 178.038 123.293ZM191.43 127.606C192.807 125.551 194.298 123.857 196.737 123.338C197.075 123.27 197.459 123.202 197.798 123.293C198.408 123.451 198.859 123.835 198.43 124.535C198.092 125.099 197.708 125.687 197.211 126.116C196.037 127.132 193.168 127.877 191.43 127.606ZM191.226 125.145C190.865 125.461 190.413 125.709 189.758 126.161C189.781 123.338 190.368 121.012 192.514 119.363C192.83 119.115 193.552 118.912 193.71 119.092C194.027 119.408 194.275 120.018 194.207 120.447C194.004 122.48 192.717 123.902 191.226 125.145ZM201.953 121.622C203.128 119.973 203.308 118.324 202.834 116.563C202.766 116.337 202.924 115.931 203.105 115.795C205.567 114.056 207.848 113.537 210.106 115.637C211.822 117.218 211.958 119.883 210.287 121.712C209.609 122.457 208.728 123.044 207.848 123.564C207.599 123.722 206.967 123.586 206.696 123.36C204.889 121.893 204.302 121.667 201.953 121.622ZM209.699 113.988C210.309 113.175 210.987 112.385 211.529 111.527C213.335 108.681 212.184 106.784 209.858 105.407C208.796 104.774 207.486 105.023 206.402 105.723C205.431 106.355 204.505 107.078 203.512 107.778C203.015 107.168 202.541 106.604 202.044 106.039C203.218 103.713 206.47 102.245 209.496 102.584C211.777 102.832 214.487 105.362 214.803 107.62C215.21 110.804 214.374 113.514 211.484 115.479C210.896 115.005 210.309 114.508 209.699 113.988ZM219.907 109.314C221.262 108.546 222.595 108.704 223.069 109.585C223.498 110.398 223.001 111.482 221.669 112.227C219.523 113.424 217.265 114.305 214.668 114.259C216.045 112.159 217.784 110.511 219.907 109.314ZM218.033 115.027C219.591 114.259 221.262 113.559 222.798 112.633C223.972 111.933 224.424 110.488 224.085 109.539C223.52 108.026 222.007 107.304 220.427 108.049C219.184 108.614 218.1 109.494 216.949 110.262C216.542 110.533 216.203 110.849 215.729 111.233C215.797 110.059 215.842 109.043 215.887 108.026C215.887 107.891 215.955 107.733 216.068 107.665C218.259 105.949 220.539 104.549 223.543 105.158C227.924 106.039 228.06 110.827 225.982 113.266C224.695 114.779 223.046 115.682 221.262 116.405C221.081 116.473 220.788 116.473 220.607 116.382C219.726 115.931 218.846 115.456 218.033 115.027ZM226.501 114.101C228.669 112.069 228.986 108.343 227.247 106.242C225.598 104.278 223.34 103.555 220.923 104.142C219.072 104.594 217.378 105.587 215.571 106.355C215.21 105.745 214.758 105 214.306 104.232C217.536 100.28 223.453 99.9867 226.931 102.629C228.376 103.736 230.002 104.616 230.476 106.536C231.605 111.053 231.063 114.553 227.473 117.76C226.366 118.753 224.763 119.205 223.34 119.905C223.024 119.295 222.798 118.866 222.549 118.437C222.324 118.053 222.053 117.669 221.94 117.534C223.475 116.382 225.124 115.389 226.501 114.101ZM230.002 103.826C228.557 102.335 226.863 101.048 224.875 100.529C223.001 100.032 220.991 100.054 218.959 99.8286C220.585 98.1123 222.278 96.3056 224.017 94.5216C224.198 94.3409 224.74 94.2957 225.011 94.4086C228.873 96.1024 233.931 94.1828 234.315 88.5144C234.451 86.64 233.231 85.0817 231.605 84.0881C229.37 82.7331 226.479 83.0718 224.627 84.7204C222.73 86.4141 221.736 89.6435 223.024 92.3084C223.272 92.8278 223.227 93.1666 222.888 93.5053C221.104 95.1991 219.32 96.8928 217.446 98.6543C217.446 97.2315 217.536 95.9443 217.423 94.6796C217.333 93.686 217.152 92.5794 216.655 91.7438C215.774 90.2307 214.69 88.808 213.606 87.4304C213.2 86.911 213.11 86.5948 213.493 86.0754C214.352 84.9462 215.052 83.7041 216 82.6653C218.055 80.4296 220.63 79.0294 223.633 78.5777C224.74 78.397 225.982 78.6003 227.111 78.8939C229.482 79.5036 231.786 80.3618 233.796 81.7845C235.941 83.3202 237.003 85.6237 237.816 87.995C238.313 89.4177 238.629 90.9082 238.9 92.3987C239.193 94.1376 238.561 95.741 237.816 97.2993C236.438 100.235 234.202 102.313 231.447 103.939C230.837 104.345 230.499 104.345 230.002 103.826ZM225.124 93.144C223.362 91.7664 223.046 89.7565 224.153 87.6562C225.011 86.0302 226.479 85.172 228.15 84.7204C228.782 84.5623 229.686 84.743 230.228 85.1043C231.447 85.9625 232.689 86.911 232.893 88.6725C232.509 90.7276 231.538 92.4439 229.595 93.4375C228.082 94.228 226.547 94.2731 225.124 93.144ZM238.38 98.2252C238.855 97.4122 239.374 96.667 240.39 96.5541C241.497 96.4186 242.603 96.1701 243.687 96.2153C244.839 96.2831 245.246 97.1186 244.884 98.18C244.184 100.303 242.197 101.748 239.984 101.793C238.516 101.816 237.048 101.974 235.941 102.042C236.664 100.935 237.567 99.6028 238.38 98.2252ZM243.484 102.042C244.184 101.161 244.952 100.303 245.584 99.3544C246.284 98.3156 246.736 97.1186 245.946 95.9669C245.2 94.8829 243.891 94.9281 242.739 94.9732C241.745 95.0184 240.752 95.3346 239.713 95.5378C239.803 94.3635 239.871 93.1665 239.961 91.947C242.4 91.0663 244.952 90.5469 247.504 91.4276C251.05 92.6697 251.682 94.7474 250.53 98.5414C249.875 100.687 248.249 102.155 246.668 103.577C245.584 103.058 244.523 102.539 243.484 102.042ZM250.666 100.484C251.637 98.9931 252.111 97.2767 252.066 95.4475C251.998 92.5794 249.875 90.9082 247.007 90.2759C244.568 89.7339 242.152 90.05 239.758 90.976C239.329 89.5532 238.945 88.266 238.516 86.8884C240.887 85.827 243.258 85.1043 245.901 85.3753C248.814 85.6689 251.479 86.4141 253.872 88.1982C256.515 90.163 257.283 92.8052 256.876 95.854C256.628 97.6606 256.131 99.4447 255.544 101.161C254.618 103.826 252.63 105.7 250.349 107.349C249.401 106.333 248.475 105.316 247.572 104.345C248.611 103.081 249.762 101.861 250.666 100.484ZM234.473 48.7451C234.451 48.7451 234.428 48.7451 234.473 48.7451V48.7451ZM234.519 48.7C234.654 46.803 234.79 44.9511 234.925 43.0993C234.948 42.8735 234.993 42.5347 235.128 42.467C236.37 41.8798 237.612 41.3378 239.058 40.7055C239.193 42.196 239.306 43.4381 239.397 44.7027C239.419 44.906 239.329 45.2221 239.193 45.335C237.658 46.4868 236.077 47.5934 234.519 48.7ZM244.342 43.9123C243.055 44.1156 241.79 44.4091 240.548 44.6576C240.277 43.0541 240.029 41.4281 239.713 39.5086C237.974 40.1861 236.483 40.7732 234.902 41.4056C234.428 39.9828 233.931 38.5149 233.412 36.9115C236.687 35.692 239.939 34.4725 243.394 33.1852C243.8 35.5791 244.184 37.747 244.568 39.9151C244.726 40.8861 244.884 41.8572 245.02 42.8283C245.065 43.3703 245.042 43.7994 244.342 43.9123ZM241.723 32.7787C238.809 33.7498 235.941 34.9016 232.96 36.0081C232.125 34.4499 231.244 32.8239 230.318 31.1075C236.145 29.3235 241.858 27.5846 247.617 25.8231C248.949 31.627 250.304 37.4535 251.682 43.4832C249.762 43.4832 247.956 43.4832 246.104 43.4832C245.607 40.5474 245.088 37.4309 244.5 34.337C244.026 31.7173 244.252 31.9431 241.723 32.7787ZM251.885 18.4383C254.008 26.8845 256.086 35.1951 258.208 43.5961C256.221 43.5961 254.527 43.5961 252.766 43.5961C251.84 39.6441 250.914 35.7823 250.033 31.9431C249.559 29.8429 249.107 27.7426 248.678 25.6198C248.52 24.8068 248.159 24.581 247.346 24.852C242.581 26.3651 237.816 27.833 233.051 29.3009C232.351 29.5267 231.56 29.5719 230.905 29.8881C229.866 30.3849 229.324 29.9106 228.873 29.0751C228.286 28.0136 227.698 26.9748 226.931 25.5521C235.286 23.1808 243.484 20.8321 251.885 18.4383ZM211.664 17.6479C214.035 16.3155 216.407 14.9605 218.665 13.6732C220.156 16.2026 221.714 18.9126 223.34 21.6C225.643 25.4391 228.037 29.2106 230.25 33.0723C231.334 34.9693 232.192 37.0018 233.051 39.0117C234.451 42.3089 234.315 45.6964 233.141 48.971C232.351 51.2067 231.086 53.2844 230.024 55.475C229.053 55.1814 228.218 54.933 227.405 54.662C227.992 53.3747 228.669 52.2004 229.076 50.9583C230.612 46.4191 230.544 41.925 228.692 37.4309C226.501 32.0786 223.498 27.2232 220.494 22.3452C219.681 21.0354 218.801 19.7481 218.055 18.3931C217.717 17.806 217.468 17.7382 216.904 18.077C212.613 20.4708 208.322 22.8646 204.008 25.2359C200.711 27.0425 197.775 29.3009 195.201 32.0335C193.485 33.8627 192.423 36.0307 191.701 38.4923C191.091 40.5474 190.571 42.5573 190.752 44.906C189.804 44.6576 189.013 44.4769 188.29 44.2962C187.59 39.3279 188.336 34.7209 191.362 30.7011C193.191 28.3072 195.675 26.6135 198.295 25.1456C202.721 22.5711 207.215 20.1321 211.664 17.6479ZM186.664 17.806C184.429 20.4934 182.148 23.1582 179.867 25.8682C178.354 24.9197 176.796 23.9486 175.17 22.955C179.28 18.5512 183.345 14.1926 187.5 9.74372C191.588 14.1249 195.675 18.5061 199.831 22.955C198.272 23.9261 196.691 24.9197 195.111 25.9134C193.349 23.768 191.61 21.6451 189.871 19.5223C189.329 18.8674 188.787 18.2125 188.178 17.6027C187.613 17.0155 187.139 17.2414 186.664 17.806ZM187.5 18.1899C189.826 21.0128 192.039 23.7002 194.298 26.4328C193.033 27.5846 191.926 28.5556 190.775 29.5945C189.962 28.5782 189.126 27.562 188.313 26.5231C187.748 25.8005 187.229 25.8456 186.687 26.5457C185.897 27.562 185.061 28.5782 184.248 29.6171C183.096 28.5782 181.967 27.562 180.725 26.4554C182.961 23.7454 185.151 21.0806 187.5 18.1899ZM187.523 26.8845C188.403 28.104 189.171 29.1428 189.894 30.2268C190.007 30.3849 189.984 30.701 189.916 30.8817C189.103 32.6658 188.268 34.4499 187.5 36.0985C186.732 34.3596 185.897 32.44 184.993 30.3623C185.739 29.3461 186.574 28.1943 187.523 26.8845ZM177.812 11.2116C180.748 8.16289 183.706 5.1593 186.619 2.11056C187.161 1.54597 187.636 1.32013 188.268 1.97505C190.955 4.73021 193.665 7.44022 196.33 10.1954C199.401 13.3796 202.405 16.609 205.544 19.9288C204.076 20.7644 202.766 21.5322 201.411 22.2097C201.14 22.3452 200.553 22.2097 200.327 21.9839C196.42 17.8286 192.559 13.628 188.697 9.42755C187.59 8.23063 187.432 8.23063 186.326 9.42755C183.661 12.3408 180.973 15.2089 178.309 18.0996C177.157 19.3416 175.983 20.5611 174.876 21.8484C174.424 22.3904 173.995 22.4807 173.408 22.142C172.189 21.4419 170.946 20.7418 169.479 19.8836C172.324 16.9252 175.057 14.0571 177.812 11.2116ZM149.831 24.6487C151.999 20.9225 154.257 17.264 156.403 13.6958C161.326 16.4961 166.43 19.3868 171.534 22.2775C174.311 23.8583 177.112 25.3714 179.799 27.0877C184.248 29.9332 186.371 34.2692 187.026 39.3956C187.139 40.3216 186.913 41.2926 186.868 42.2411C186.845 42.8735 187.184 43.8671 186.913 44.0478C186.213 44.4995 185.287 44.6124 184.361 44.8608C184.293 43.7316 184.316 42.7154 184.158 41.6991C183.345 36.0307 180.454 31.6044 175.802 28.3524C173.363 26.6586 170.834 25.1004 168.282 23.5647C166.181 22.3001 164.013 21.1709 161.868 19.9966C160.603 19.2965 159.339 18.619 158.029 18.0092C157.78 17.8963 157.193 18.0544 157.08 18.2802C153.851 23.6776 150.554 29.0525 147.55 34.5628C145.947 37.4986 144.885 40.7732 144.818 44.1833C144.795 45.6286 145.269 47.0966 145.427 48.5645C145.676 50.7325 146.489 52.652 147.799 54.5942C146.85 54.8878 146.037 55.1362 145.247 55.362C142.65 51.7939 140.888 47.9547 141.046 43.4155C141.114 41.0894 141.724 38.8988 142.808 36.9115C145.066 32.7787 147.437 28.7137 149.831 24.6487ZM140.527 48.7C139.759 48.1128 138.946 47.4353 138.088 46.803C137.501 46.3513 136.891 45.9222 136.236 45.5835C135.739 45.3125 135.491 45.0415 135.558 44.4543C135.716 43.28 135.829 42.1056 135.987 40.7281C137.342 41.3152 138.562 41.8572 139.781 42.4218C139.94 42.4896 140.03 42.8057 140.052 43.0316C140.233 44.906 140.391 46.803 140.527 48.7ZM130.793 33.0271C130.161 36.5727 129.483 40.0957 128.851 43.5284C127.09 43.5284 125.306 43.5284 123.341 43.5284C124.718 37.5212 126.051 31.6947 127.406 25.8231C133.097 27.562 138.856 29.3235 144.705 31.1075C143.801 32.8013 142.943 34.4047 142.062 36.0307C139.894 35.1951 137.772 34.3596 135.604 33.5691C134.339 33.0949 133.052 32.6884 131.764 32.3045C131.155 32.1238 130.906 32.3948 130.793 33.0271ZM116.814 43.6187C118.914 35.2403 120.992 26.9296 123.115 18.4835C131.493 20.9225 139.849 22.8421 148.047 25.7553C147.144 27.3136 146.331 28.7589 145.472 30.2268C144.027 29.8429 142.672 29.5493 141.385 29.1428C136.981 27.7878 132.6 26.3876 128.219 25.01C126.661 24.5132 126.683 24.5358 126.322 26.1844C125.418 30.2042 124.47 34.224 123.544 38.2665C123.205 39.7795 122.821 41.2926 122.483 42.8057C122.37 43.3703 122.144 43.6639 121.512 43.6639C120.044 43.5961 118.576 43.6187 116.814 43.6187ZM130.545 43.8671C130.319 43.822 130.003 43.3477 130.025 43.1445C130.522 39.9151 131.064 36.6856 131.629 33.1852C135.084 34.4725 138.359 35.692 141.611 36.9115C141.114 38.5149 140.64 39.9602 140.188 41.4281C138.652 40.8184 137.139 40.2312 135.333 39.5085C135.039 41.4055 134.791 43.009 134.52 44.6575C133.232 44.4091 131.877 44.1833 130.545 43.8671ZM102.271 58.3656C102.316 54.6845 102.406 50.9809 102.429 47.2998C102.429 46.4416 102.271 45.5609 102.18 44.7479C106.607 44.7479 111.033 44.7931 115.437 44.7253C118.101 44.6801 120.789 44.3188 123.454 44.4317C127.383 44.5898 131.448 44.3414 135.129 46.1481C138.201 47.6611 140.798 49.7614 142.356 52.9456C142.875 53.9845 143.508 54.9781 144.05 55.9041C143.463 56.559 142.875 57.1913 142.266 57.8688C141.43 56.6945 140.775 55.4524 139.849 54.4813C137.32 51.839 134.565 49.513 130.816 48.6548C126.864 47.7289 122.889 47.4127 118.847 47.4579C115.008 47.5031 111.168 47.5482 107.329 47.616C106.81 47.616 106.268 47.7063 105.748 47.8192C105.568 47.8644 105.342 48.0902 105.297 48.2935C105.184 48.7451 105.161 49.1968 105.139 49.671C105.071 54.5265 104.935 59.4045 104.981 64.2599C105.026 68.1216 105.477 71.9382 106.878 75.5516C107.645 77.5163 108.729 79.2778 110.423 80.6328C111.033 81.1296 111.439 81.8975 112.049 82.4169C113.065 83.2299 114.149 83.93 115.346 84.7655C114.646 85.3753 114.036 85.9173 113.223 86.6174C111.372 85.3527 109.204 84.1558 107.352 82.575C104.529 80.136 102.858 76.9743 102.406 73.2029C102.022 70.0412 101.864 66.8796 102.18 63.6953C102.383 61.9112 102.248 60.1271 102.271 58.3656ZM90.7756 74.174C92.6952 73.79 94.4341 73.4287 96.1956 73.1351C97.5054 72.9093 98.8604 72.7738 100.17 72.5254C100.961 72.3899 101.412 72.4125 101.503 73.4287C101.616 74.603 102 75.7774 102.271 76.9517C100.577 77.2227 98.9734 77.4937 97.1667 77.7873C97.528 78.8035 97.7539 79.5714 98.0475 80.3166C98.341 81.0619 98.7024 81.8071 99.0637 82.6201C97.5506 83.117 96.1053 83.5686 94.5019 84.1106C93.2598 80.836 92.0628 77.6066 90.7756 74.174ZM93.5308 84.5397C92.0403 85.3527 90.3917 86.2335 88.6754 87.1594C86.8913 81.3329 85.1524 75.6193 83.3909 69.8605C89.2399 68.5055 95.0439 67.1731 100.961 65.7955C101.051 67.7377 101.164 69.5218 101.254 71.351C98.4088 71.8253 95.5633 72.277 92.7178 72.7738C92.0854 72.8867 91.4757 73.1125 90.8434 73.1803C89.8497 73.2706 89.6464 73.7223 89.9626 74.603C91.1595 77.855 92.3113 81.1296 93.5308 84.5397ZM100.441 82.5524C100.261 82.5298 100.035 82.3717 99.967 82.2136C99.4024 81.0167 98.883 79.7746 98.2733 78.4196C99.6283 78.2841 100.735 78.1938 101.819 78.0809C102.474 78.0131 102.858 78.239 103.242 78.8261C104.122 80.136 105.139 81.3555 106.11 82.6201C106.2 82.7556 106.268 82.9137 106.313 82.9815C104.348 82.846 102.406 82.7105 100.441 82.5524ZM76.0513 65.5697C84.4749 63.4469 92.7404 61.3692 101.164 59.269C101.164 61.053 101.187 62.5661 101.141 64.0792C101.141 64.3502 100.78 64.7793 100.532 64.8245C94.8858 66.1569 89.2625 67.4667 83.5941 68.7314C82.1714 69.0475 82.1036 69.0927 82.5553 70.538C84.0458 75.3709 85.5588 80.1811 87.0494 85.014C87.2752 85.7592 87.5462 86.5045 87.6139 87.2723C87.6365 87.6562 87.2978 88.1982 86.959 88.424C85.8525 89.1467 84.7007 89.7339 83.3457 90.5017C80.3873 82.3265 78.4903 73.9481 76.0513 65.5697ZM98.0474 126.432C99.425 126.68 100.848 126.793 102.338 126.974C102.203 127.606 102.09 128.329 101.864 129.006C101.796 129.232 101.39 129.458 101.141 129.481C100.012 129.548 98.8605 129.661 97.7765 129.503C95.9472 129.232 94.0954 128.893 92.3113 128.351C88.1559 127.064 85.4911 123.97 83.4134 120.402C80.5453 115.479 77.8354 110.443 75.035 105.474C73.7704 103.239 72.4831 101.003 71.2636 98.8801C73.8607 97.3444 76.5933 95.741 79.3033 94.115C83.0973 91.8341 86.8461 89.4629 90.6853 87.2497C93.5985 85.556 96.6247 84.0655 100.035 83.6138C102.225 83.3428 104.393 83.5686 106.403 84.3591C108.662 85.2398 110.784 86.4141 113.043 87.4755C112.749 88.4918 112.501 89.2822 112.252 90.1178C112.004 90.0275 111.733 90.0275 111.575 89.892C109.655 88.3789 107.284 88.0853 105.026 87.5885C101.638 86.8432 98.3862 87.5433 95.1794 88.7854C89.4884 90.976 84.4071 94.2957 79.2355 97.4348C78.1289 98.1123 77.0449 98.8575 75.9384 99.5125C75.4641 99.806 75.2834 99.9867 75.6222 100.574C77.0675 103.171 78.3548 105.836 79.8453 108.41C81.5842 111.459 83.3231 114.508 85.3104 117.398C87.0268 119.905 88.9689 122.322 91.6564 123.902C93.0113 124.693 94.547 125.167 95.9923 125.754C96.6247 125.98 97.3248 126.296 98.0474 126.432ZM103.919 122.886C103.174 124.399 101.593 124.693 100.17 124.625C98.3862 124.557 96.6247 124.106 94.8858 123.699C94.005 123.496 93.192 123.044 92.5597 122.796C94.7954 121.554 97.1215 120.357 99.3573 118.979C100.78 118.121 102.045 117.015 103.377 116.043C104.777 115.027 106.358 114.643 108.074 114.598C109.226 114.553 110.355 114.395 111.507 114.282C108.029 116.382 105.658 119.341 103.919 122.886ZM97.7087 118.912C95.7891 120.154 93.8469 121.396 91.4305 121.599C90.482 121.667 89.8949 121.351 89.3303 120.718C88.1785 119.408 87.0268 118.076 85.7395 116.608C89.398 116.518 92.4468 115.208 95.5407 113.966C97.5506 113.175 99.6057 112.746 101.751 113.175C102.654 113.356 103.513 113.83 104.439 114.169C102.112 115.818 99.967 117.444 97.7087 118.912ZM102.429 110.646C101.638 109.833 101.028 108.839 100.441 107.846C99.8767 106.92 100.283 106.129 101.051 105.542C103.196 103.916 105.613 103.6 108.187 104.097C110.92 104.639 113.043 106.31 115.12 108.026C116.611 109.246 118.011 110.556 119.366 111.753C116.679 112.249 113.878 112.972 111.033 113.266C107.894 113.604 104.8 113.108 102.429 110.646ZM137.501 128.826C137.41 129.074 137.117 129.481 136.913 129.458C135.671 129.39 134.452 129.232 133.232 129.119C130.477 128.848 128.264 127.38 126.164 125.732C124.741 124.603 123.996 122.999 123.544 121.328C123.092 119.634 122.821 117.873 122.618 116.134C122.279 113.221 123.409 110.714 125.147 108.478C126.638 106.558 128.174 104.684 130.455 103.668C131.426 103.216 132.51 102.923 133.571 102.787C137.094 102.335 140.301 103.374 143.282 105.158C143.508 105.294 143.598 105.858 143.575 106.22C143.44 107.959 143.124 109.698 143.124 111.436C143.124 113.379 144.027 115.05 145.134 116.608C145.427 117.015 145.698 117.398 146.105 117.986C143.44 117.331 140.956 116.766 138.517 116.089C138.223 115.998 137.93 115.411 137.884 115.027C137.433 112.159 135.762 110.194 133.029 109.562C129.258 108.681 125.622 110.669 125.712 115.343C125.757 118.121 127.519 119.521 129.596 120.379C131.674 121.238 133.932 120.876 135.829 119.408C136.1 119.183 136.484 119.002 136.62 118.708C137.252 117.308 138.178 117.511 139.375 117.94C141.34 118.618 143.372 119.115 145.653 119.77C145.089 120.018 144.772 120.176 144.434 120.289C140.504 121.78 138.743 125.077 137.501 128.826ZM133.684 119.273C131.471 119.702 128.648 118.686 127.699 117.105C126.728 115.479 127.451 113.943 128.083 112.453C128.738 110.894 130.229 110.917 131.629 110.917C134.203 110.917 136.191 112.272 136.755 114.372C137.342 116.54 135.875 118.844 133.684 119.273ZM160.31 127.29C160.219 127.493 160.084 127.764 159.948 128.058C159.271 129.593 159.293 129.503 157.6 129.074C154.935 128.442 152.022 124.693 152.428 121.938C152.722 119.95 153.354 118.211 155.138 117.06C157.667 115.434 160.084 115.208 162.952 116.405C162.839 117.24 162.726 117.986 162.613 118.731C161.394 118.641 160.174 118.505 158.955 118.482C157.216 118.437 155.77 119.431 155.341 120.876C154.709 123.067 155.116 124.557 156.832 125.596C157.893 126.251 159.09 126.725 160.31 127.29ZM161.168 126.116C161.055 126.206 160.807 126.229 160.671 126.161C159.384 125.596 158.006 125.167 156.9 124.354C155.816 123.564 155.68 122.254 156.312 120.989C156.877 119.86 157.871 119.363 159.09 119.408C159.971 119.431 160.852 119.544 161.71 119.657C162.32 119.747 162.658 120.041 162.997 120.673C163.629 121.78 164.601 122.683 165.459 123.654C165.685 123.902 166.001 124.061 166.498 124.399C164.352 124.399 162.613 124.828 161.168 126.116ZM173.927 129.322C173.837 129.458 173.544 129.503 173.363 129.503C171.15 129.616 168.869 127.832 168.507 125.687C168.304 124.444 169.208 123.835 170.043 123.27C171.421 122.322 173.815 122.435 175.147 123.451C175.282 123.541 175.441 123.677 175.486 123.812C176.254 125.89 176.254 125.89 177.767 127.335C176.321 127.809 174.808 127.945 173.927 129.322ZM206.493 125.709C206.154 127.855 203.873 129.639 201.637 129.526C201.434 129.526 201.14 129.458 201.073 129.345C200.192 127.945 198.679 127.832 197.233 127.38C198.272 126.296 199.537 125.506 199.537 123.857C199.537 123.699 199.785 123.541 199.943 123.428C201.863 122.118 204.821 122.525 206.199 124.354C206.47 124.648 206.56 125.257 206.493 125.709ZM212.997 125.574C211.777 124.828 210.287 124.58 208.886 124.106C210.49 123.315 211.619 121.915 212.297 120.176C212.342 120.063 212.477 119.928 212.59 119.883C214.194 119.476 215.82 119.024 217.446 119.747C218.597 120.244 219.026 121.26 219.049 122.412C219.094 123.519 218.417 124.332 217.513 124.919C217.016 125.235 216.407 125.393 215.887 125.687C214.894 126.206 214.081 126.251 212.997 125.574ZM217.965 128.893C215.616 129.797 215.594 129.752 214.758 127.267C215.91 126.725 217.107 126.251 218.168 125.596C219.952 124.49 220.359 122.977 219.659 120.786C219.184 119.341 217.784 118.415 215.978 118.46C214.781 118.482 213.606 118.618 212.409 118.708C212.297 117.963 212.184 117.24 212.048 116.36C213.516 115.795 215.074 115.321 216.7 115.727C219.026 116.314 221.036 117.331 222.075 119.77C223.814 123.857 220.946 127.742 217.965 128.893ZM252.382 116.653C252.111 118.663 251.637 120.673 251.004 122.615C250.327 124.67 248.701 125.958 246.917 127.177C244.207 129.006 241.181 129.255 238.109 129.481C237.929 129.503 237.59 129.119 237.522 128.848C236.596 126.138 235.58 123.473 233.141 121.734C232.057 120.967 230.815 120.425 229.528 119.702C231.47 119.137 233.389 118.573 235.309 118.008C235.58 117.918 235.874 117.895 236.122 117.782C236.958 117.353 237.522 117.444 238.109 118.302C240.029 121.08 245.02 121.599 247.775 118.821C250.304 116.269 249.536 112.137 247.233 110.488C245.088 108.952 241.881 108.523 239.306 110.962C238.132 112.069 237.296 113.333 237.161 114.982C237.093 115.772 236.687 116.066 235.919 116.224C233.638 116.721 231.402 117.331 229.053 117.94C229.821 116.631 230.566 115.501 231.176 114.305C232.17 112.362 232.034 110.262 231.831 108.162C231.831 108.094 231.786 108.026 231.763 107.959C231.199 105.203 231.199 105.203 233.796 104.029C236.732 102.719 239.735 102.335 242.92 103.035C245.404 103.577 247.097 105.203 248.701 106.988C249.401 107.778 250.011 108.659 250.62 109.517C252.156 111.64 252.721 114.079 252.382 116.653ZM238.154 115.005C238.313 113.288 239.351 112.137 240.842 111.459C241.655 111.098 242.581 110.985 243.462 110.759C246.465 110.917 248.317 113.175 247.752 116.134C247.481 117.557 246.262 118.166 245.155 118.753C243.529 119.634 241.813 119.725 240.187 118.799C238.742 117.986 237.996 116.676 238.154 115.005ZM260.083 112.588C258.57 112.317 257.034 112.024 255.566 111.73C257.666 109.991 259.767 108.117 262.002 106.4C264.961 104.097 268.303 103.216 271.984 104.413C272.775 104.661 273.497 105.181 274.152 105.7C274.762 106.175 275.01 106.852 274.672 107.688C273.384 110.962 270.787 112.498 267.513 113.153C264.983 113.672 262.544 113.017 260.083 112.588ZM279.234 113.853C281.831 114.779 284.473 115.569 287.093 116.382C287.68 116.563 288.357 116.54 289.17 116.631C288.064 117.963 287.002 119.25 285.963 120.538C284.631 122.164 282.847 121.847 281.447 121.102C278.646 119.612 276.027 117.782 273.362 116.089C272.481 115.524 271.623 114.892 270.697 114.259C273.475 112.543 276.298 112.814 279.234 113.853ZM273.723 124.512C272.504 124.264 271.51 123.767 270.923 122.547C269.252 119.115 266.903 116.292 263.245 114.372C263.696 114.305 263.899 114.259 264.103 114.259C265.254 114.372 266.406 114.508 267.581 114.598C269.365 114.756 270.968 115.389 272.346 116.518C275.485 119.115 278.827 121.305 282.802 122.66C279.843 123.925 276.975 125.167 273.723 124.512ZM295.9 112.837C294.184 115.885 292.467 118.957 290.616 121.938C287.77 126.522 283.411 128.826 278.172 129.503C276.682 129.706 275.146 129.548 273.633 129.503C273.475 129.503 273.249 129.3 273.204 129.142C273.001 128.397 272.842 127.651 272.684 126.951C274.017 126.793 275.281 126.748 276.546 126.5C281.402 125.596 285.308 123.202 288.357 119.25C291.451 115.253 293.868 110.849 296.307 106.446C297.368 104.503 298.384 102.516 299.446 100.574C299.739 100.054 299.671 99.8061 299.152 99.4899C296.894 98.1123 294.681 96.6218 292.4 95.2894C289.351 93.5053 286.28 91.6986 283.118 90.1178C280.069 88.6047 276.885 87.3852 273.407 87.3175C272.007 87.2949 270.607 87.5659 269.229 87.7917C268.123 87.9724 267.016 88.2434 265.955 88.6273C264.916 89.0112 263.945 89.5984 262.815 90.1404C262.544 89.2371 262.319 88.4466 262.07 87.6336C264.532 86.3916 266.7 84.6526 269.545 83.9977C273.43 83.117 277.088 83.5009 280.566 85.285C283.14 86.5948 285.625 88.1305 288.131 89.5984C291.767 91.7438 295.381 93.9344 299.017 96.0572C300.643 97.0283 302.336 97.909 303.804 98.7446C301.185 103.397 298.565 108.139 295.9 112.837Z" fill="white" fill-opacity="0.15"/>
</g>
<defs>
<clipPath id="clip0_2_942">
<rect width="101" height="375" fill="white" transform="translate(375) rotate(90)"/>
</clipPath>
</defs>
</svg>
