<svg width="375" height="101" viewBox="0 0 375 101" fill="none" xmlns="http://www.w3.org/2000/svg">
<g clip-path="url(#clip0_2_1122)">
<path d="M57.8685 -28.0515C61.8883 -24.1446 65.8404 -20.1473 69.8602 -16.2404C71.825 -14.3434 73.8801 -12.5141 75.9351 -10.73C76.4546 -10.2784 76.4094 -9.96222 76.1384 -9.46539C75.3931 -8.13297 74.7156 -6.77796 73.9478 -5.44554C72.4799 -2.89362 71.3507 -0.161049 69.2731 2.02953C68.7762 2.54895 69.115 2.91027 69.7021 3.11352C73.9704 4.67177 77.516 7.53986 81.4229 9.75302C81.6261 9.86594 81.7616 10.3402 81.6939 10.5886C80.4292 14.7891 79.0968 18.967 77.8547 23.1675C76.6804 27.1648 75.6416 31.2072 74.535 35.227C74.3769 35.8142 74.4898 36.1529 75.1447 36.311C76.8611 36.7401 78.5548 37.2144 80.2711 37.666C83.3425 38.479 86.4138 39.3372 89.5303 40.0825C93.0081 40.918 96.486 41.6407 99.9864 42.3859C100.596 42.5214 100.777 42.8376 100.777 43.4248C100.754 44.983 100.799 46.5639 100.777 48.1221C100.732 50.945 100.709 53.7454 100.551 56.5683C100.506 57.4716 100.732 57.6297 101.545 57.5168C102.945 57.3361 104.368 57.1554 105.768 57.1554C108.387 57.1329 111.007 57.2684 113.627 57.3135C115.388 57.3361 115.366 57.3361 115.772 59.0524C116.788 63.3433 117.827 67.6341 118.889 71.9024C119.792 75.5383 120.786 79.1516 121.712 82.7649C121.87 83.3521 122.095 83.7586 122.796 83.5554C123.699 83.2844 124.625 82.9908 125.551 82.7424C129.119 81.7487 132.71 80.7776 136.278 79.7614C139.936 78.6999 143.595 77.5934 147.253 76.4416C147.863 76.2384 148.157 76.2835 148.45 76.8255C150.596 80.7324 153.464 84.2329 154.954 88.5011C155.18 89.1109 155.587 89.2238 156.106 88.7721C156.332 88.5914 156.512 88.3882 156.761 88.2301C160.397 86.1073 164.033 83.9844 167.691 81.9068C167.917 81.7939 168.482 81.9745 168.685 82.2004C170.356 83.9844 171.937 85.8814 173.631 87.6204C177.718 91.8209 181.851 95.9762 185.961 100.132C186.977 101.17 186.977 101.17 188.039 100.086C191.765 96.2924 195.536 92.5209 199.24 88.7044C201.25 86.6493 203.192 84.5264 205.067 82.3359C205.609 81.7035 205.993 81.5906 206.625 82.0197C206.851 82.1778 207.122 82.2681 207.37 82.4262C210.871 84.549 214.8 86.0169 217.917 88.7947C218.436 89.2464 218.82 89.0205 219.046 88.4108C220.581 84.1199 223.449 80.5744 225.663 76.6675C225.776 76.4642 226.25 76.2835 226.476 76.3513C230.857 77.6385 235.193 79.0387 239.574 80.3034C243.142 81.3422 246.733 82.2455 250.324 83.2166C251.972 83.6683 251.95 83.6683 252.356 82.0875C253.485 77.7515 254.705 73.4154 255.789 69.0794C256.692 65.4209 257.437 61.7173 258.318 58.0362C258.386 57.7426 258.838 57.3587 259.109 57.3361C261.051 57.2458 262.993 57.1554 264.958 57.2006C267.51 57.2458 270.039 57.4264 272.568 57.5394C273.246 57.5845 273.607 57.4039 273.404 56.6134C273.268 56.1392 273.155 55.6424 273.155 55.1455C273.133 51.1709 273.155 47.1962 273.133 43.2215C273.133 42.5892 273.494 42.4537 273.968 42.3634C276.769 41.7762 279.592 41.2794 282.369 40.5793C287.789 39.2243 293.187 37.7112 298.584 36.3336C299.42 36.1304 299.51 35.7464 299.307 35.0464C298.494 32.2009 297.703 29.3328 296.89 26.4873C295.355 21.2254 293.797 15.9635 292.306 10.7015C292.216 10.408 292.374 9.84337 292.6 9.70787C296.461 7.49471 299.984 4.67177 304.23 3.11352C305.066 2.79736 305.043 2.43604 304.501 1.80371C303.801 1.01329 303.123 0.177692 302.604 -0.748219C301.114 -3.36789 299.668 -6.01014 298.245 -8.67497C297.455 -10.1655 297.478 -10.188 298.833 -11.2946C298.968 -11.4075 299.081 -11.543 299.217 -11.656C302.31 -14.637 305.404 -17.618 308.476 -20.6216C311.05 -23.1283 313.58 -25.6576 316.177 -28.1418C316.493 -28.458 316.673 -28.7064 316.673 -28.9774L315.16 -28.9774C315.16 -28.5709 314.754 -28.187 313.941 -27.3514C310.644 -24.0542 307.392 -20.7345 304.049 -17.4825C301.791 -15.2919 299.397 -13.2368 296.913 -10.9785C296.1 -12.469 295.355 -13.8014 294.677 -15.1564C294.564 -15.3822 294.632 -15.879 294.813 -16.0371C297.658 -18.702 300.504 -21.3442 303.372 -24.0091C304.862 -25.3866 306.33 -26.7868 307.843 -28.1418C308.182 -28.4354 308.363 -28.7064 308.34 -28.9774L307.166 -28.9774C302.785 -24.8672 298.426 -20.8022 293.955 -16.6243C292.961 -18.2051 291.99 -19.786 291.019 -21.3668C293.142 -23.1057 295.242 -24.8446 297.32 -26.561C297.974 -27.103 298.629 -27.645 299.239 -28.2321C299.488 -28.4806 299.623 -28.729 299.6 -28.9548L298.539 -28.9548C297.771 -28.2547 297.094 -27.5546 296.348 -26.9449C294.722 -25.5899 293.051 -24.2575 291.403 -22.9251C290.77 -22.4056 290.296 -22.0669 289.641 -23.038C289.009 -24.0091 288.083 -24.7995 287.27 -25.6802C288.331 -26.5158 289.348 -27.3514 290.386 -28.1644C290.748 -28.4354 290.906 -28.7064 290.906 -28.9548L290.025 -28.9548C288.783 -28.0515 287.722 -27.3062 286.66 -26.561C286.525 -26.4706 286.231 -26.4255 286.096 -26.5158C284.289 -27.3514 282.482 -28.2096 280.901 -28.9548C280.901 -28.9548 280.901 -28.9548 280.924 -28.9548L271.597 -28.9548C271.575 -27.8708 271.371 -26.8094 271.033 -25.7028C270.061 -22.5637 268.594 -19.7408 266.403 -17.3018C264.732 -15.45 262.586 -14.2756 260.351 -13.2368C257.979 -12.1302 255.473 -12.198 252.898 -12.3335C252.898 -13.553 252.898 -14.7499 252.898 -16.0146C254.095 -16.3081 255.337 -16.5114 256.534 -16.8953C262.112 -18.7471 265.725 -22.4734 267.058 -28.2096C267.103 -28.458 267.148 -28.6838 267.171 -28.9322L266.087 -28.9322C266.109 -27.261 265.432 -25.7706 264.551 -24.3478C262.27 -20.6893 259.063 -18.1826 254.705 -17.3921C254.095 -17.2792 253.463 -17.2115 252.717 -17.0986C252.401 -18.5213 252.108 -19.8086 251.792 -21.2087C252.401 -21.3668 252.988 -21.5475 253.598 -21.7055C256.308 -22.4282 258.567 -23.8058 259.944 -26.3126C260.441 -27.2159 260.712 -28.0966 260.757 -28.9322L259.809 -28.9322C259.831 -27.5546 259.041 -26.3126 257.641 -24.935C256.06 -23.3767 253.982 -22.6992 251.837 -22.2701C251.611 -22.225 251.25 -22.4282 251.114 -22.6315C250.527 -23.4671 249.985 -24.3252 249.511 -25.0479C250.798 -25.6351 252.13 -26.0867 253.305 -26.832C254.208 -27.3966 254.66 -28.1644 254.66 -28.9096L253.259 -28.9096C253.237 -28.5709 253.056 -28.2321 252.74 -27.916C251.475 -26.6287 249.849 -26.2222 248.178 -26.2448C247.433 -26.2448 246.71 -27.0126 245.942 -27.3966C244.813 -27.9611 243.662 -28.4806 242.826 -28.8871C242.849 -28.9096 242.871 -28.9096 242.894 -28.9322L235.915 -28.9322C235.915 -25.9512 234.402 -23.4897 232.189 -21.6152C229.818 -19.6053 226.995 -19.0181 223.901 -19.7408C223.246 -19.8989 222.998 -20.1021 223.043 -20.7796C223.088 -21.412 223.043 -22.0443 223.043 -22.7218C224.217 -22.7218 225.234 -22.6992 226.25 -22.7218C229.863 -22.8121 232.302 -25.0027 233.093 -27.645C233.228 -28.0741 233.273 -28.5257 233.296 -28.9548L232.257 -28.9548C232.257 -27.1933 231.15 -25.4996 229.411 -24.5511C227.356 -23.4445 225.121 -23.5348 222.885 -23.851C222.727 -23.8735 222.546 -24.0768 222.433 -24.2349C221.891 -25.0479 221.372 -25.8835 220.785 -26.8094C221.891 -26.6287 222.953 -26.3351 224.014 -26.3126C225.121 -26.29 226.272 -26.3803 227.334 -26.6513C228.282 -26.8997 228.96 -28.0063 228.937 -28.9322L227.876 -28.9322C227.876 -28.458 227.334 -27.8031 226.86 -27.5546C226.295 -27.261 225.55 -27.1933 224.917 -27.2159C222.704 -27.3062 220.581 -27.8031 218.594 -28.7741C218.549 -28.7967 218.526 -28.8419 218.504 -28.9548L213.942 -28.9548C213.942 -28.8645 213.942 -28.7516 213.942 -28.6386C213.874 -26.5158 211.842 -24.5511 209.719 -24.4607C209.335 -24.4381 208.951 -24.3252 208.567 -24.3252C207.777 -24.3026 207.077 -24.3478 206.806 -25.3641C206.376 -27.0126 205.338 -28.2095 203.599 -28.9322L203.621 -28.9322L199.579 -28.9322C199.579 -28.9322 199.579 -28.9322 199.579 -28.9096C199.579 -28.5709 199.127 -28.1192 198.766 -27.9611C196.191 -26.8094 193.865 -27.6901 191.313 -28.9322L182.687 -28.9322C182.709 -28.9322 182.732 -28.9096 182.754 -28.9096C180.225 -27.8256 177.989 -26.8094 175.482 -27.916C175.053 -28.0966 174.737 -28.5709 174.376 -28.9096C174.398 -28.9322 174.398 -28.9322 174.421 -28.9548L170.379 -28.9548C170.379 -28.9548 170.401 -28.9548 170.401 -28.9322C168.64 -28.187 167.646 -26.8997 167.127 -25.206C167.014 -24.8672 166.562 -24.4607 166.223 -24.4382C164.552 -24.2801 162.249 -24.664 161.074 -26.1771C160.419 -27.0126 160.126 -27.9837 160.126 -28.9548L155.564 -28.9548C155.587 -28.8193 155.587 -28.7064 155.609 -28.5709C153.599 -28.1192 151.589 -27.5772 149.557 -27.2611C148.766 -27.1256 147.818 -27.2837 147.073 -27.5998C146.621 -27.7805 146.169 -28.458 146.124 -28.9548L144.995 -28.9548C144.995 -28.9097 144.995 -28.8871 144.995 -28.8419C145.04 -27.8708 145.831 -26.7417 146.937 -26.5836C148.292 -26.3803 149.715 -26.4481 151.092 -26.4707C151.77 -26.4932 152.47 -26.6965 153.17 -26.8094C152.606 -25.9286 152.176 -25.0027 151.522 -24.3026C151.138 -23.8961 150.37 -23.7832 149.76 -23.7155C147.073 -23.4445 144.611 -23.8284 142.759 -26.0641C141.991 -26.9901 141.675 -27.9611 141.698 -28.9322L140.682 -28.9322C140.636 -27.6901 141.156 -26.5836 141.924 -25.5673C143.414 -23.6026 145.469 -22.6992 147.931 -22.6992C148.879 -22.6992 149.828 -22.6992 150.934 -22.6992C150.934 -21.954 150.98 -21.141 150.912 -20.328C150.889 -20.1247 150.55 -19.8537 150.302 -19.786C145.605 -18.5213 140.998 -20.9377 139.349 -24.7543C138.83 -25.9738 138.062 -27.2385 138.017 -28.5032C138.017 -28.6387 138.017 -28.7967 138.017 -28.9322L131.016 -28.9322C131.038 -28.9322 131.061 -28.9096 131.061 -28.9096C129.954 -28.345 128.464 -27.7127 127.086 -26.8771C126.183 -26.3126 125.302 -26.019 124.331 -26.4255C123.27 -26.8546 122.208 -27.3514 121.26 -27.9837C120.876 -28.2547 120.695 -28.5935 120.74 -28.9322L119.318 -28.9322C119.318 -28.1644 119.837 -27.3966 120.876 -26.7416C121.983 -26.0416 123.27 -25.6125 124.489 -25.0705C123.925 -24.2349 123.27 -23.2412 122.57 -22.1798C119.137 -22.8573 116.043 -24.0317 114.485 -27.5998C114.282 -28.0515 114.191 -28.4806 114.191 -28.9096L113.198 -28.9096C113.152 -27.374 114.011 -26.0867 115.004 -24.9124C116.45 -23.1961 118.347 -22.0895 120.582 -21.6604C121.124 -21.5475 121.666 -21.3442 122.208 -21.1861C121.87 -19.786 121.576 -18.4761 121.26 -17.1211C115.75 -17.4825 111.865 -20.3054 109.133 -24.7543C108.274 -26.1545 107.891 -27.5546 107.913 -28.9096L106.897 -28.9096C106.874 -27.2159 107.529 -25.6576 108.32 -24.2575C110.194 -20.9829 112.904 -18.4761 116.495 -17.1437C117.669 -16.7146 118.956 -16.5114 120.198 -16.263C120.831 -16.1501 121.215 -15.9694 121.17 -15.2016C121.102 -14.2531 121.147 -13.3046 121.147 -12.3786C116.359 -11.656 112.362 -13.1916 108.839 -16.1275C105.293 -19.0633 103.555 -23.0831 102.493 -27.3966C102.38 -27.8708 102.335 -28.3902 102.358 -28.9096L93.0533 -28.9096C93.0533 -28.9096 93.0533 -28.9096 93.0759 -28.9096C91.5176 -28.187 89.7561 -27.3514 87.9946 -26.5384C87.7914 -26.4481 87.4075 -26.4481 87.2268 -26.561C86.1654 -27.261 85.1491 -28.0063 83.9296 -28.8871C83.9296 -28.8871 83.9522 -28.8871 83.9522 -28.9096L83.0037 -28.9096C83.0037 -28.5257 83.5006 -28.1644 84.4942 -27.2836C85.1717 -26.6739 85.9847 -26.1996 86.6848 -25.7028C85.6234 -24.5285 84.6297 -23.3993 83.478 -22.1346C80.7454 -24.393 78.0806 -26.5835 75.2351 -28.9322L74.2414 -28.9322C74.2414 -28.6838 74.3995 -28.4354 74.6931 -28.187C77.4031 -25.9061 80.1131 -23.6251 82.8908 -21.2991C81.9649 -19.786 80.9938 -18.2277 79.9776 -16.5791C75.5286 -20.7345 71.1926 -24.7995 66.7663 -28.9096L65.5468 -28.9096C65.5468 -28.5935 65.8404 -28.2773 66.4727 -27.7127C69.386 -25.0479 72.2541 -22.3605 75.1447 -19.673C76.3868 -18.5213 77.6063 -17.347 78.8936 -16.2178C79.3678 -15.8113 79.5711 -15.4726 79.2097 -14.8854C78.4645 -13.6433 77.787 -12.3561 76.9062 -10.7978C70.6281 -16.8953 64.508 -22.8347 58.2298 -28.9096L57.3039 -28.9096C57.3039 -28.7064 57.5071 -28.4128 57.8685 -28.0515ZM75.5061 35.3625C77.8773 27.0519 80.2034 18.8089 82.5972 10.4079C84.0651 11.2435 85.2395 11.8984 86.3912 12.5534C87.0461 12.9373 87.272 13.3889 87.001 14.2019C85.2846 19.6445 83.6586 25.0871 81.9875 30.5297C81.581 31.8847 81.6487 31.9524 83.0263 32.246C86.7526 33.0816 90.4562 33.9398 94.1825 34.7979C96.0343 35.227 97.9087 35.6787 99.7606 36.0852C100.325 36.1981 100.664 36.3788 100.641 37.0111C100.619 38.4339 100.641 39.834 100.641 41.5052C92.1274 39.9469 83.9748 37.4628 75.5061 35.3625ZM98.5185 18.4025C98.1346 19.2832 97.7281 20.1865 97.3216 21.0673C96.4408 22.9643 96.5311 23.1901 98.5411 23.5966C99.5799 23.7999 100.641 23.8676 101.703 23.9805C101.432 25.3129 101.206 26.6228 100.867 27.8875C100.799 28.1585 100.325 28.5424 100.099 28.4972C96.9376 28.0004 93.776 27.4132 90.6143 26.8486C90.5691 26.8486 90.524 26.7583 90.3207 26.555C91.4951 23.3934 92.7146 20.1639 93.9341 16.8894C95.5601 17.4314 96.9602 17.883 98.5185 18.4025ZM105.768 18.0185C105.045 18.9445 104.006 19.78 103.577 20.864C102.651 23.1675 100.957 23.0546 99.0605 22.761C98.7217 22.7159 98.3604 22.6481 97.7732 22.5352C98.3604 21.2028 98.925 19.9381 99.5121 18.6734C99.5799 18.5154 99.9412 18.4702 100.167 18.4476C102.019 18.2895 103.871 18.154 105.768 18.0185ZM91.4273 20.8189C90.7272 22.7159 90.0949 24.6129 89.4174 26.5099C89.1464 27.2777 89.3496 27.6616 90.2304 27.7971C91.9693 28.0681 93.6856 28.4972 95.4246 28.8134C97.1635 29.1069 98.9024 29.3328 100.732 29.5812C100.641 31.433 100.574 33.2623 100.483 35.1819C94.6116 33.8269 88.7851 32.4719 82.8908 31.1169C84.6297 25.4033 86.3912 19.6671 88.1753 13.818C89.8465 14.7214 91.4273 15.5569 93.0985 16.4603C92.5339 17.9508 91.9467 19.3735 91.4273 20.8189ZM119.724 56.2747C114.982 56.1618 110.217 56.094 105.474 56.0714C104.209 56.0714 102.945 56.2521 101.748 56.3424C101.748 51.9161 101.748 47.4672 101.748 43.0183C101.748 41.5955 101.77 40.1728 101.748 38.75C101.725 37.7564 101.567 36.7853 101.567 35.7916C101.545 33.9624 101.499 32.1105 101.635 30.2813C101.748 28.8134 102.064 27.3454 102.335 25.9001C102.832 23.2579 104.413 21.2254 106.039 19.1929C107.891 16.8894 110.668 15.986 112.904 14.4504C113.559 15.0601 114.191 15.6247 114.891 16.257C113.717 17.07 112.498 17.7475 111.504 18.6509C108.026 21.8125 105.813 25.6065 105.09 30.3716C104.503 34.2108 104.548 38.05 104.458 41.8891C104.368 45.3895 104.684 48.8899 104.797 52.3904C104.819 52.9775 105 53.2034 105.587 53.2259C106.513 53.2259 107.416 53.3614 108.342 53.384C112.43 53.4518 116.495 53.5873 120.582 53.5195C125.009 53.4518 129.458 53.113 133.5 51.1257C135.013 50.3804 136.278 49.0932 137.61 48.0318C138.243 47.5349 138.897 47.0381 139.417 46.4284C140.23 45.4121 140.93 44.3055 141.788 43.1086C142.398 43.8087 142.962 44.441 143.55 45.1411C142.059 47.3543 141.043 50.0869 138.807 52.0516C135.916 54.5809 132.642 56.0037 128.825 56.2295C126.996 56.3424 125.167 56.5231 123.338 56.5457C122.095 56.6134 120.921 56.2973 119.724 56.2747ZM100.709 -11.2946C99.8509 -10.0977 99.2637 -9.05889 98.4281 -8.20072C98.0894 -7.86198 97.299 -7.79423 96.7344 -7.86198C94.1147 -8.24589 91.5402 -8.99113 88.9206 -9.05888C85.7589 -9.14921 82.6424 -8.58464 80.0905 -6.39406C80.0453 -6.34889 79.955 -6.37146 79.5711 -6.34888C81.0164 -8.56204 82.3036 -10.6397 83.7264 -12.6271C84.9233 -14.2756 86.73 -14.6144 88.6044 -14.1175C90.4788 -13.6207 92.3081 -12.9206 94.1373 -12.2657C96.2376 -11.5431 98.2701 -10.6397 100.709 -11.2946ZM90.3885 -8.04263C92.4661 -7.90713 94.5438 -7.22962 96.5537 -6.57471C98.1346 -6.07787 98.6088 -4.70031 97.6829 -3.45823C94.3857 1.01328 90.0949 3.9491 84.4039 4.01685C81.3326 4.03944 78.5774 2.68446 76.161 0.787453C79.0291 -6.01013 83.3876 -8.53946 90.3885 -8.04263ZM95.6956 0.22287C96.6215 -0.612716 97.5022 -1.47089 98.4056 -2.32906C98.9476 -2.84847 99.467 -3.02913 100.212 -2.62263C101.138 -2.12579 102.132 -1.76447 103.374 -1.22247C99.8735 0.0647817 98.3604 3.1361 96.1472 5.48477C95.3794 6.29777 94.6341 7.17854 93.7308 7.87862C92.0596 9.16587 90.2078 9.05294 88.4237 8.17219C86.5267 7.24628 84.6975 6.18486 82.7327 5.12344C84.2006 5.03311 85.5105 5.07829 86.7526 4.85246C90.1852 4.19753 93.1436 2.54895 95.6956 0.22287ZM99.467 2.95544C100.867 1.14878 102.651 -0.0707163 104.751 -0.79338C105.429 -1.01921 106.219 -0.974044 106.942 -1.04179C107.032 -0.951461 107.123 -0.883712 107.213 -0.79338C105.293 2.79737 103.419 6.43327 101.387 9.97886C100.935 10.7919 100.009 11.379 99.2411 11.9662C98.6088 12.4405 97.8861 12.3275 97.1409 12.034C95.5601 11.4468 93.9566 10.9274 92.1951 10.3176C95.3342 8.33028 97.3893 5.62028 99.467 2.95544ZM106.739 1.91662C107.439 0.109955 108.5 -1.4483 110.284 -2.46455C111.391 -3.0743 112.339 -3.93247 113.446 -4.72288C112.836 -3.25497 112.204 -1.89996 111.707 -0.47721C110.962 1.60046 110.872 3.76843 111.052 5.93643C111.21 7.99152 110.126 9.16587 108.568 10.1595C106.852 11.2435 104.977 11.7855 102.967 12.034C102.2 12.1243 101.454 12.2372 100.664 12.3275C103.555 9.34653 105.248 5.71062 106.739 1.91662ZM112.407 9.39169C111.639 5.25895 111.662 1.19394 113.604 -2.64523C115.388 -6.12306 117.737 -9.08147 121.734 -10.3461C122.321 -9.30731 122.931 -8.24588 123.428 -7.34254C122.095 -5.94238 120.695 -4.72288 119.589 -3.27755C117.918 -1.08697 116.946 1.48752 116.675 4.24268C116.563 5.48477 116.585 6.77203 116.675 8.0367C116.946 11.4919 119.295 13.389 122.05 14.902C124.309 16.1441 126.793 16.5054 129.3 16.6635C131.535 16.8216 133.636 16.1441 135.691 15.3311C135.871 15.2634 136.075 15.173 136.323 15.0827C136.978 16.1667 137.588 17.2281 138.22 18.2669C133.161 22.6255 124.851 22.3771 119.521 18.696C117.985 17.6346 116.517 16.4377 115.095 15.2408C113.333 13.7277 112.814 11.5823 112.407 9.39169ZM179.931 -21.9314C179.412 -20.4635 179.005 -19.0859 179.57 -17.6405C179.638 -17.4373 179.57 -17.1211 179.435 -16.9405C178.034 -14.9983 176.431 -13.9369 174.015 -14.6596C173.45 -14.8176 172.795 -15.5629 172.614 -16.1501C172.027 -18.2277 173.021 -20.328 174.873 -21.3894C175.121 -21.5249 175.505 -21.5926 175.776 -21.5023C177.176 -21.0281 178.486 -21.4345 179.931 -21.9314ZM198.224 -21.5249C198.495 -21.6152 198.924 -21.4797 199.195 -21.3216C201.047 -20.1473 201.905 -18.2277 201.34 -16.1501C201.16 -15.5403 200.46 -14.8176 199.85 -14.6144C197.863 -13.9821 195.536 -15.0886 194.52 -16.9405C194.43 -17.1211 194.294 -17.3921 194.362 -17.5276C195.085 -19.0181 194.498 -20.3957 194.069 -21.9088C195.514 -21.4571 196.801 -21.0055 198.224 -21.5249ZM279.817 -12.2657C281.353 -12.8303 282.866 -13.44 284.424 -13.8917C288.535 -15.0886 289.754 -13.5304 291.448 -11.0462C292.442 -9.5783 293.277 -8.02005 294.022 -6.32629C293.638 -6.61988 293.3 -6.98121 292.871 -7.20705C289.822 -8.81047 286.57 -9.4654 283.137 -8.96856C281.082 -8.67498 279.05 -8.15555 277.017 -7.74906C276.34 -7.61355 275.82 -7.68129 275.414 -8.35879C274.827 -9.30729 274.081 -10.1655 273.246 -11.2721C275.707 -10.6849 277.762 -11.5205 279.817 -12.2657ZM290.838 -7.09414C293.526 -6.12305 295.174 -3.90989 296.71 -1.62898C297.184 -0.928891 297.478 -0.115888 297.907 0.719691C295.084 2.81994 292.035 4.19753 288.535 3.99428C287.022 3.90394 285.508 3.36196 284.063 2.79737C281.15 1.62304 278.733 -0.273954 276.791 -2.73554C275.278 -4.67771 275.594 -5.91979 277.875 -6.80054C282.144 -8.47171 286.502 -8.65239 290.838 -7.09414ZM275.707 -2.21614C277.785 -0.454641 279.817 1.37461 282.053 2.88769C284.176 4.31044 286.683 4.96537 289.257 5.07829C289.844 5.10087 290.432 4.94279 291.267 4.82987C290.838 5.14604 290.59 5.37187 290.319 5.50738C288.512 6.45587 286.728 7.47212 284.876 8.33029C282.573 9.41429 280.63 8.53352 279.05 6.83977C277.378 5.05569 275.911 3.09096 274.239 1.32946C273.268 0.313212 272.049 -0.499814 270.92 -1.40314C271.755 -1.76448 272.726 -2.10322 273.607 -2.60004C274.51 -3.07429 275.052 -2.78072 275.707 -2.21614ZM281.782 10.3402C279.682 11.0403 277.808 11.9436 275.82 12.2598C274.533 12.463 273.472 11.2887 272.681 10.2047C270.762 7.58502 269.339 4.71695 268.164 1.69079C267.826 0.810038 267.374 -0.0255483 266.9 -1.01921C270.536 -1.06438 272.907 0.900363 274.962 3.52003C276.882 6.0042 278.846 8.48835 281.782 10.3402ZM267.826 3.24904C268.842 6.52362 270.581 9.5272 273.201 12.2146C270.874 12.0791 268.774 11.8081 266.832 10.9048C266.155 10.5886 265.522 10.2047 264.89 9.79821C263.557 8.89488 262.767 7.69796 262.88 5.95904C263.151 2.23279 262.473 -1.3128 260.464 -4.58739C263.557 -2.53231 266.606 -0.657873 267.826 3.24904ZM261.773 1.89405C262.428 5.37187 261.909 8.80454 260.87 12.1469C260.599 13.005 260.125 13.8858 259.515 14.5181C256.421 17.6798 252.966 20.322 248.494 21.135C244.429 21.8803 240.455 21.6093 236.909 19.1025C236.525 18.8315 236.141 18.6057 235.69 18.3121C236.345 17.1829 236.954 16.1667 237.496 15.2859C239.326 15.715 241.064 16.2344 242.826 16.528C245.265 16.9345 247.681 16.4603 250.007 15.6925C251.904 15.0601 253.576 14.0213 255.066 12.6663C256.557 11.3339 257.144 9.61754 257.302 7.76571C257.844 1.66821 255.631 -3.2098 250.73 -6.89088C250.64 -6.95863 250.572 -7.02637 250.437 -7.13929C251.046 -8.2007 251.633 -9.28471 252.266 -10.3913C257.821 -8.11038 260.712 -3.79696 261.773 1.89405ZM255.111 24.8839C253.192 25.1323 251.317 25.4936 249.488 24.7032C247.952 24.0483 246.484 23.303 245.242 22.7384C247.365 22.219 249.736 21.7222 252.04 21.0221C253.101 20.706 254.118 20.0736 255.021 19.3961C256.782 18.0863 258.431 18.538 260.17 19.4187C262.632 20.6608 264.145 22.8514 265.861 25.0194C262.225 24.2967 258.657 24.4096 255.111 24.8839ZM222.004 46.9704C223.72 46.9026 224.827 47.6479 225.753 48.9351C227.514 51.3741 227.966 54.197 228.237 57.2909C225.279 54.468 221.869 52.842 218.323 51.4419C216.268 50.6289 214.484 49.5223 213.377 47.4898C212.813 46.4509 212 45.5702 211.413 44.7572C213.264 45.3669 215.161 46.1799 217.171 46.6316C218.73 46.9929 220.401 47.0381 222.004 46.9704ZM162.813 44.4636C160.577 47.2865 159.132 50.4934 155.383 51.6C152.493 52.4581 147.863 54.9649 145.785 57.2909C145.943 53.8583 146.395 52.0516 147.728 49.6804C148.721 47.9189 150.008 46.8574 152.244 46.9704C155.903 47.1736 158.003 46.9252 162.813 44.4636ZM105.881 52.3226C105.361 48.7996 105.677 45.4799 107.552 42.5892C109.268 39.9469 111.82 38.1403 114.778 37.0337C116.517 36.3788 118.347 35.9045 120.198 35.6561C121.779 35.4529 122.547 36.2659 122.412 37.8919C122.163 41.3019 120.808 44.3055 118.866 47.0833C116.111 51.0128 112.249 52.5259 107.574 52.3C107.01 52.3 106.468 52.3226 105.881 52.3226ZM108.116 25.0645C110.171 22.3771 112.091 19.7349 115.479 18.7864C116.54 18.4928 117.488 18.4928 118.482 19.1703C121.644 21.3609 125.167 22.49 129.232 22.4449C125.664 24.2967 122.344 25.7872 118.234 24.8613C115.004 24.1386 111.594 24.2967 108.116 25.0645ZM133.297 22.2416C134.584 21.79 135.871 21.3157 137.181 20.864C136.21 23.5063 135.307 26.1485 134.268 28.723C132.868 32.1783 130.429 34.5495 126.725 35.4303C125.889 35.6335 124.964 35.498 124.083 35.3851C123.067 35.2496 122.615 34.4818 122.547 33.4881C122.299 30.2587 123.654 27.7294 126.07 25.6969C128.17 23.8902 130.767 23.0998 133.297 22.2416ZM115.975 25.5388C118.211 25.6065 120.447 26.0356 122.75 26.3066C121.621 28.5875 119.611 29.8522 117.24 30.4619C115.298 30.9588 113.265 31.162 111.301 31.6137C109.404 32.0428 107.529 32.6299 105.61 33.1719C105.948 31.3879 106.152 29.4005 106.807 27.5713C107.078 26.8034 108.32 26.0808 109.2 25.9453C111.436 25.5839 113.717 25.471 115.975 25.5388ZM109.675 32.9235C111.188 32.517 112.769 32.2912 114.349 32.0202C116.675 31.6137 119.047 31.3653 121.102 29.6038C120.989 31.0717 120.966 32.3364 120.718 33.5333C120.628 33.9172 119.927 34.3011 119.431 34.4366C115.93 35.4077 112.498 36.4917 109.675 38.9081C107.913 40.4212 106.219 41.9794 105.632 44.3733C105.519 44.3507 105.384 44.3281 105.271 44.3055C105.429 41.8891 105.564 39.4953 105.745 37.0789C105.926 34.6624 107.574 33.5107 109.675 32.9235ZM123.044 40.3986C123.97 37.3047 124.015 37.3047 127.222 37.0111C127.515 36.9885 127.832 36.9434 128.328 36.8982C125.777 40.2857 126.16 44.3055 125.212 47.9414C124.422 50.9224 123.202 52.0742 120.198 52.4807C119.656 52.5484 119.092 52.5936 118.527 52.5936C116.901 52.6162 115.275 52.5936 113.514 52.5936C118.979 50.1772 121.486 45.6605 123.044 40.3986ZM127.199 42.3182C127.515 40.2179 128.351 38.3887 129.706 36.7853C130.248 36.1529 130.993 35.7239 131.919 34.9786C132.145 38.9307 132.439 42.5666 132.484 46.1799C132.506 47.4672 131.964 48.777 131.603 50.0417C131.4 50.8095 130.835 51.2386 130 51.3741C128.238 51.6677 126.477 52.0742 124.58 52.4581C126.273 49.1835 126.68 45.7283 127.199 42.3182ZM133.365 41.3697C133.297 39.7889 132.958 38.2306 132.823 36.6498C132.687 35.2044 133.094 33.872 133.771 32.5848C134.358 31.4782 134.81 30.2587 135.42 28.8811C135.555 30.1684 135.645 31.2524 135.804 32.3138C136.165 34.7754 137.091 37.0337 138.536 39.021C139.62 40.5341 139.575 42.0698 138.875 43.628C137.655 46.3832 135.352 48.1447 132.868 49.9739C133.726 46.9478 133.5 44.1474 133.365 41.3697ZM141.54 41.5504C139.304 38.7952 137.407 35.8819 136.82 32.3138C136.075 27.7745 136.639 23.5063 139.778 19.78C140.817 20.4124 141.878 21.0221 142.669 21.4964C142.195 23.8676 141.404 26.0582 141.382 28.2488C141.336 32.0428 142.353 35.6335 144.927 38.6597C147.027 41.1213 149.76 41.5729 152.718 41.4826C155.361 41.4149 157.89 40.6244 160.058 39.2243C161.978 37.9822 163.604 36.2659 165.455 34.6399C166.246 35.0915 167.307 35.6787 168.369 36.2884C166.472 42.2504 159.042 46.2703 153.893 45.9767C152.086 45.8864 150.302 45.7057 148.495 45.5476C145.582 45.2992 143.369 43.8087 141.54 41.5504ZM174.511 12.6889C174.557 12.6437 174.647 12.6663 174.895 12.5985C174.286 15.1053 173.744 17.5217 173.089 19.8929C172.998 20.2317 172.411 20.5479 171.982 20.6156C169.069 21.0899 167.149 22.8062 166.517 25.5839C165.862 28.4746 166.969 31.6363 170.333 32.5848C174.895 33.872 178.283 29.649 177.673 25.7646C177.357 23.845 176.408 22.4223 174.963 21.2479C174.737 21.0673 174.466 20.6834 174.511 20.4575C175.189 17.996 175.957 15.5344 176.679 13.0502C177.425 14.3374 178.012 15.6247 178.825 16.7539C180.541 19.1025 183.138 20.0962 185.78 20.9995C186.051 21.0899 186.481 21.406 186.481 21.5641C186.255 23.5515 186.232 25.6291 185.6 27.5035C183.906 32.517 180.27 35.3174 174.963 35.7013C173.224 35.8142 171.395 35.9045 169.724 35.4754C168.098 35.0464 166.539 34.1204 165.162 33.1268C163.333 31.7944 161.594 30.2587 160.668 28.0907C160.216 27.0293 159.9 25.9001 159.742 24.7484C159.313 21.3383 160.352 18.2218 162.045 15.3085C162.181 15.0601 162.678 14.7891 162.926 14.8569C167.149 15.9183 171.079 15.6924 174.511 12.6889ZM171.395 -13.3949C170.514 -11.6786 170.13 -9.96222 170.424 -8.11039C170.469 -7.88455 170.288 -7.52323 170.085 -7.38773C169.114 -6.68764 168.165 -5.94239 167.104 -5.37781C165.975 -4.79064 164.801 -5.10681 163.942 -6.03273C163.084 -6.93606 162.768 -8.02005 163.4 -9.12663C163.965 -10.1429 164.665 -11.0688 165.343 -12.0173C165.501 -12.2206 165.839 -12.4464 166.043 -12.4012C167.917 -12.1302 169.679 -12.4916 171.395 -13.3949ZM171.53 -11.0462C171.688 -11.4753 171.869 -11.9044 172.072 -12.3109C172.84 -13.8465 172.84 -13.824 174.557 -13.5078C175.979 -13.2368 177.267 -13.6885 178.689 -14.5918C178.396 -12.5141 179.186 -11.0236 180.406 -9.69122C180.564 -9.53313 180.699 -9.21697 180.631 -9.01372C179.977 -6.25855 176.679 -4.42931 174.06 -5.35523C172.501 -5.91981 170.537 -8.42655 171.53 -11.0462ZM200.369 -13.7111C200.595 -13.7788 201.024 -13.6433 201.16 -13.4626C202.763 -11.3624 203.463 -8.74272 201.431 -6.50697C199.782 -4.70031 197.027 -4.56479 195.198 -6.32629C194.52 -6.98121 193.978 -7.79421 193.481 -8.60721C193.323 -8.87821 193.391 -9.51057 193.617 -9.75898C194.791 -11.0914 195.514 -12.5593 195.288 -14.5918C197.004 -13.4175 198.63 -13.1916 200.369 -13.7111ZM207.754 -12.3786C208.025 -12.4012 208.432 -12.2657 208.59 -12.085C209.29 -11.1591 210.012 -10.2332 210.532 -9.21697C211.187 -7.95231 210.938 -6.93605 209.945 -5.96497C209.019 -5.06164 207.957 -4.81321 206.76 -5.44554C205.744 -5.98754 204.818 -6.71023 203.892 -7.38773C203.689 -7.52323 203.508 -7.88455 203.554 -8.11039C203.937 -10.0525 203.373 -11.7915 202.492 -13.5078C204.186 -12.5141 205.902 -12.1754 207.754 -12.3786ZM207.325 15.3311C208.567 15.1504 209.809 14.9698 211.051 14.8569C211.322 14.8343 211.729 15.0601 211.864 15.2859C214.01 18.8315 214.868 22.6707 213.829 26.7131C213.49 28.023 212.655 29.3102 211.774 30.3716C210.735 31.6137 209.425 32.63 208.161 33.6462C205.338 35.882 202.086 36.4239 198.63 35.6561C197.027 35.2948 195.401 34.8657 193.865 34.2785C192.081 33.601 190.997 32.1105 189.913 30.5749C187.948 27.8423 187.745 24.7484 187.497 21.6093C187.474 21.4286 187.745 21.0673 187.926 21.0221C192.284 19.8478 195.717 17.6346 197.275 13.0276C197.998 15.4666 198.743 17.883 199.421 20.3446C199.489 20.6156 199.218 21.1124 198.947 21.3157C196.643 23.1675 195.875 25.5614 196.44 28.4069C196.869 30.5523 199.33 32.4945 201.453 32.7429C203.079 32.9235 204.434 32.4493 205.676 31.5234C207.844 29.8974 208.319 25.9227 206.67 23.6418C205.496 22.0384 204.073 20.8415 201.995 20.6608C201.137 20.593 200.866 20.0962 200.708 19.3058C200.302 17.2959 199.76 15.3311 199.285 13.3212C199.24 13.118 199.218 12.9147 199.15 12.5082C199.963 13.0502 200.618 13.4793 201.273 13.9084C203.124 15.1279 205.134 15.6247 207.325 15.3311ZM221.891 27.6616C221.936 26.8938 221.982 26.1259 221.891 25.3581C221.801 24.6355 221.552 23.9354 221.372 23.145C221.982 23.2353 222.546 23.3708 223.133 23.4159C223.72 23.4611 224.33 23.4159 225.008 23.4159C225.956 25.9453 226.385 28.4972 225.527 31.1394C224.601 33.9398 222.772 34.9786 219.61 34.3689C217.804 34.0301 216.245 33.1268 214.936 31.7944C214.416 31.2749 213.919 30.7104 213.4 30.1684C213.942 29.0618 214.461 28.0229 215.003 26.9164C215.59 27.4584 216.132 28.0907 216.81 28.565C217.465 29.0392 218.21 29.4231 218.978 29.6715C220.559 30.2361 221.756 29.378 221.891 27.6616ZM216.471 34.1882C218.368 35.4529 220.536 35.8368 222.772 35.3851C224.94 34.956 226.86 31.9524 226.882 29.1521C226.882 28.1584 226.927 27.1422 226.792 26.1711C226.656 25.2 226.318 24.2515 226.047 23.2579C227.379 22.8514 228.644 22.4674 230.044 22.0384C231.15 24.1386 231.783 26.3744 231.647 28.723C231.512 31.0039 231.128 33.2623 230.021 35.3851C228.576 38.0951 226.747 40.1728 223.449 40.3986C217.646 40.7825 213.061 38.6145 209.606 33.872C210.667 32.8784 211.661 31.9525 212.609 31.0491C213.897 32.1331 215.094 33.2849 216.471 34.1882ZM220.739 24.9065C220.898 25.6743 220.875 26.5099 220.762 27.2777C220.581 28.4295 219.836 28.8134 218.752 28.4069C217.375 27.8875 216.336 26.9389 215.545 25.7194C215.319 25.3581 215.252 24.8613 215.229 24.4096C215.094 22.5804 215.026 20.7737 214.958 19.4187C215.952 20.0736 217.239 21.1125 218.662 21.8125C220.017 22.49 220.446 23.6418 220.739 24.9065ZM184.877 37.2821C186.074 39.2017 187.903 39.1791 189.1 37.2595C189.8 36.1078 190.252 34.7979 190.817 33.5559C191.584 34.0527 192.51 34.6173 193.391 35.227C193.527 35.3174 193.685 35.5884 193.639 35.7464C193.075 38.5468 192.104 41.1439 189.62 42.8376C187.113 44.5314 185.532 44.1249 183.048 41.7762C181.377 40.1954 180.722 38.0274 180.27 35.8142C180.225 35.6335 180.383 35.34 180.541 35.227C181.422 34.6399 182.303 34.0753 183.093 33.5784C183.703 34.8431 184.177 36.1304 184.877 37.2821ZM184.313 32.246C184.313 31.5685 184.99 30.891 185.351 30.2135C185.961 29.0166 186.526 27.7971 186.955 26.939C187.723 28.3843 188.694 30.1232 189.574 31.9299C189.755 32.3138 189.71 32.9235 189.529 33.3526C189.055 34.5495 188.558 35.7465 187.881 36.8079C187.452 37.4854 186.684 37.4402 186.051 36.853C184.719 35.6109 184.335 33.9398 184.313 32.246ZM180.089 38.6823C181.151 41.5052 182.89 43.6732 185.871 44.6443C187.903 45.2992 189.507 44.2829 190.907 43.086C192.691 41.5955 193.843 39.6534 194.272 37.3273C194.362 36.8079 194.565 36.311 194.701 35.8142C195.875 36.0626 196.959 36.3562 198.066 36.5369C198.63 36.6272 198.766 36.8305 198.698 37.3725C198.405 40.1954 197.433 42.6795 195.649 44.9153C193.527 47.5575 190.975 49.4545 187.61 50.0643C186.887 50.1998 186.051 50.0643 185.351 49.8159C179.706 47.964 176.544 43.9216 175.302 38.2532C175.189 37.7789 175.279 37.2821 175.279 36.695C176.521 36.4014 177.831 36.1078 179.254 35.7916C179.525 36.7627 179.728 37.7564 180.089 38.6823ZM184.358 7.99154C184.335 9.09812 184.425 10.2499 184.674 11.3113C184.9 12.3049 186.119 13.0728 187.023 13.005C188.152 12.9373 188.92 12.2598 189.349 11.2435C189.936 9.82079 189.778 8.33029 189.462 6.86237C189.326 6.20746 189.236 5.55255 189.1 4.82987C190.049 5.41704 190.907 5.95902 191.765 6.50102C191.901 6.59136 192.081 6.74945 192.081 6.88495C192.375 9.48203 192.533 12.034 190.771 14.2923C188.287 17.454 184.29 16.7539 182.483 13.2534C181.444 11.2435 181.557 9.07552 181.896 6.93011C181.919 6.74944 182.167 6.54621 182.37 6.43329C183.161 5.91387 183.974 5.39446 184.855 4.82987C184.674 5.91387 184.38 6.95271 184.358 7.99154ZM186.074 4.42336C186.255 3.74587 186.616 3.11354 186.977 2.23279C188.242 4.98796 189.01 7.58502 188.558 10.4305C188.423 11.2887 187.994 11.921 187.068 11.9662C186.074 12.0114 185.622 11.3339 185.419 10.4531C184.945 8.37544 185.555 6.4107 186.074 4.42336ZM180.88 7.08821C180.88 8.64646 180.744 10.1144 180.902 11.5371C181.173 14.089 183.409 16.5506 185.622 17.1829C188.649 18.0185 191.539 15.7376 192.555 13.3664C193.301 11.6274 193.391 9.79819 193.12 7.94636C193.075 7.72053 193.12 7.4721 193.12 7.17852C193.323 7.13336 193.391 7.11079 193.459 7.11079C196.237 6.99787 196.395 7.13336 196.417 9.95629C196.462 13.9535 194.769 16.9345 191.155 18.696C189.936 19.2832 188.603 20.051 187.316 20.0284C183.793 19.9607 180.993 18.267 178.983 15.3085C177.402 12.9825 177.221 10.4305 177.854 7.76571C177.921 7.51729 178.238 7.13337 178.463 7.11079C179.231 7.02046 179.999 7.08821 180.88 7.08821ZM205.563 24.4322C205.88 25.2452 205.993 26.126 206.196 26.9841C206.038 29.9651 203.621 31.9073 200.731 31.2298C199.353 30.9136 198.811 29.7167 198.201 28.6553C196.959 26.4647 197.343 23.1449 200.211 21.9254C202.108 21.1125 204.66 22.1964 205.563 24.4322ZM199.308 11.0629C198.314 9.88854 197.795 8.30771 197.072 6.86238C198.134 6.23004 198.901 5.77837 199.466 5.43962C200.618 6.99787 201.611 8.66904 202.944 10.0466C205.247 12.4179 209.561 12.3953 211.435 10.0692C213.151 7.96895 213.4 5.52995 212.497 3.04579C212 1.66821 211.164 0.426119 210.464 -0.883719C211.187 -1.3128 211.955 -1.76447 212.745 -2.21614C216.72 1.05844 216.968 6.88494 214.394 10.3176C213.287 11.8081 212.406 13.4567 210.441 13.9535C206.196 15.0601 202.289 14.5407 199.308 11.0629ZM207.89 7.38178C209.041 6.77203 209.493 5.64287 208.861 3.83621C208.454 2.63928 207.528 1.62304 206.783 0.539041C206.512 0.13254 206.151 -0.206228 205.834 -0.61273C207.912 -1.15473 209.403 -0.567549 210.441 1.12621C211.593 2.97804 212.316 4.89761 211.796 7.15595C210.825 11.3339 206.354 11.5597 203.87 9.61753C202.244 8.35286 201.318 6.61395 200.573 4.76212C200.505 4.58145 200.482 4.33304 200.55 4.17495C201.002 3.27162 201.498 2.3683 201.928 1.55529C202.718 3.15871 203.418 4.80728 204.367 6.34295C205.18 7.65278 206.76 7.99153 207.89 7.38178ZM207.528 3.1587C207.799 3.61037 208.025 4.1072 208.115 4.62662C208.251 5.39446 208.183 6.29777 207.325 6.50102C206.76 6.63652 205.857 6.43328 205.451 6.02677C203.847 4.44594 203.395 2.27796 202.831 0.200296C202.673 -0.40946 202.673 -1.06439 202.605 -1.87739C204.773 -0.499808 206.286 1.19396 207.528 3.1587ZM199.94 3.33936C198.653 5.41702 195.83 6.54621 193.481 5.98162C190.004 5.14604 188.016 2.77479 187.474 -0.928877C188.219 -1.22246 188.942 -1.49347 189.687 -1.78705C190.207 -0.703055 190.658 0.471277 191.291 1.51011C192.443 3.42969 193.798 3.8362 196.124 3.18128C197.569 2.77478 198.743 0.945528 198.563 -0.635306C198.427 -1.74189 198.359 -2.87105 198.246 -4.06796C198.969 -4.18088 199.714 -4.29379 200.55 -4.42929C201.837 -1.71929 201.498 0.832605 199.94 3.33936ZM197.456 -2.01288C197.456 -1.4483 197.546 -0.883719 197.524 -0.319136C197.501 1.14878 196.711 2.0747 195.153 2.50378C194.114 2.79736 192.691 2.16502 192.104 1.08102C191.675 0.268022 191.336 -0.59014 190.975 -1.42573C190.749 -1.99031 190.884 -2.46454 191.178 -3.07429C191.878 -4.51962 192.33 -6.07789 192.804 -7.31997C193.617 -6.5973 194.565 -5.42298 195.785 -4.79065C197.05 -4.13573 197.456 -3.27755 197.456 -2.01288ZM186.706 -2.08065C183.838 -2.19356 181.399 -5.94238 182.528 -8.56205C182.641 -8.83305 183.07 -9.05887 183.387 -9.17179C185.193 -9.80412 186.119 -10.5946 187 -12.3786C187.768 -10.6623 188.965 -9.60087 190.636 -9.17179C191.313 -9.01371 191.517 -8.6298 191.607 -8.02005C192.126 -4.85838 189.755 -1.94514 186.706 -2.08065ZM192.691 -10.301C192.352 -10.03 191.742 -9.91706 191.291 -9.98482C189.145 -10.2784 187.271 -12.6948 187.452 -14.8854C187.474 -15.0435 187.497 -15.2919 187.587 -15.3596C189.01 -16.2404 189.123 -17.8212 189.62 -19.1988C190.658 -18.2503 191.449 -16.9405 193.075 -16.9405C193.233 -16.9405 193.414 -16.7146 193.527 -16.5566C194.859 -14.6596 194.498 -11.7915 192.691 -10.301ZM187.903 -17.2115C187.745 -16.8501 187.271 -16.4211 186.977 -16.4211C186.661 -16.4211 186.21 -16.8727 186.029 -17.2115C184.832 -19.786 185.803 -22.1346 186.955 -24.7091C188.197 -22.1121 189.123 -19.786 187.903 -17.2115ZM186.39 -15.3822C186.458 -15.337 186.503 -15.2016 186.526 -15.1112C187.068 -13.0787 184.448 -9.93963 182.348 -9.96221C180.97 -9.98479 179.254 -12.7174 179.638 -14.2079C179.818 -14.8628 179.999 -15.4951 180.202 -16.1275C180.383 -16.6469 180.767 -16.8276 181.309 -17.0534C182.303 -17.505 183.138 -18.2955 184.042 -18.9504C184.154 -19.0181 184.177 -19.1988 184.313 -19.4472C184.787 -17.7986 184.967 -16.263 186.39 -15.3822ZM180.744 -7.07155C180.948 -7.25223 181.061 -7.50063 181.377 -7.90713C181.309 -5.78429 181.874 -4.11314 183.048 -2.66781C183.183 -2.50973 183.206 -2.17098 183.138 -1.96773C182.641 -0.793395 182.257 0.448701 181.557 1.48754C180.79 2.63928 179.502 2.81994 178.147 2.30052C177.086 1.91661 176.386 0.855211 176.408 -0.47721C176.408 -1.29021 176.476 -2.10322 176.589 -2.91622C176.702 -3.6163 176.996 -4.06798 177.741 -4.47447C178.87 -5.12939 179.773 -6.19081 180.744 -7.07155ZM175.708 -4.06796C175.618 -2.84846 175.482 -1.62898 175.46 -0.386893C175.415 1.30686 176.386 2.72962 177.786 3.18128C179.954 3.88136 181.467 3.49746 182.528 1.78113C183.206 0.674539 183.703 -0.544981 184.29 -1.7419C184.99 -1.47089 185.735 -1.19987 186.458 -0.928877C186.029 2.9103 183.974 4.94278 180.97 5.89128C178.509 6.65911 176.047 5.95904 174.398 3.83621C172.456 1.35204 171.959 -1.42571 173.405 -4.40671C174.24 -4.2938 174.963 -4.18088 175.708 -4.06796ZM169.543 6.41071C170.514 4.87504 171.214 3.1587 172.027 1.57787C172.456 2.36829 172.931 3.24904 173.405 4.17495C173.473 4.31046 173.518 4.5137 173.45 4.6492C172.637 6.6817 171.598 8.53352 169.791 9.88852C168.527 10.837 165.455 11.1532 164.055 10.0918C162.587 8.98519 161.639 6.63652 162.068 4.58144C162.452 2.7296 163.4 1.17136 164.597 -0.273978C164.71 -0.409476 164.936 -0.567549 165.094 -0.567549C166.088 -0.635298 167.059 -0.680472 168.256 -0.748221C167.601 0.0421919 166.991 0.697122 166.472 1.44238C165.952 2.18762 165.455 2.97804 165.094 3.81362C164.462 5.25896 164.868 6.6817 166.02 7.3592C167.149 7.99153 168.73 7.69796 169.543 6.41071ZM168.753 5.82352C168.233 6.54619 167.443 7.02044 166.539 6.47844C165.636 5.95902 165.681 5.0557 165.997 4.22011C166.991 1.66819 168.888 -0.115874 171.169 -1.60638C171.124 1.14879 170.356 3.63294 168.753 5.82352ZM162.452 0.968103C160.984 3.47485 160.397 6.04936 161.752 8.84969C163.016 11.4468 165.388 12.2146 168.075 11.6049C171.034 10.9274 172.614 8.78195 173.811 6.23003C173.924 6.0042 174.015 5.77837 174.127 5.55253C174.173 5.4622 174.24 5.39445 174.286 5.3267C175.099 5.80095 175.866 6.27519 176.679 6.72685C175.708 11.9888 171.011 14.5407 167.601 14.4278C166.404 14.3826 165.207 14.2923 164.033 14.089C162.858 13.8858 161.774 13.3664 161.097 12.3501C160.148 10.9499 158.997 9.59495 158.455 8.0367C157.303 4.69437 157.8 1.48753 160.284 -1.24505C160.6 -1.5838 160.894 -1.92255 161.187 -2.23871C162 -1.76447 162.768 -1.31279 163.626 -0.815955C163.242 -0.228789 162.813 0.358354 162.452 0.968103ZM172.569 21.6319C173.992 21.6545 175.618 22.8514 176.092 24.2741C176.815 26.397 176.047 29.265 174.308 30.6652C173.947 30.9588 173.382 31.2749 172.976 31.2072C171.666 31.0039 170.311 30.7781 169.137 30.2361C167.782 29.6038 167.962 28.1359 167.917 27.0293C167.94 23.7999 169.882 21.6093 172.569 21.6319ZM155.112 29.6715C156.264 29.1521 157.28 28.2714 158.319 27.5261C158.545 27.368 158.658 27.0744 158.861 26.7809C159.471 27.9326 159.99 28.9037 160.465 29.8748C160.532 30.0329 160.487 30.3716 160.374 30.5071C158.884 32.0202 157.348 33.4655 155.293 34.2334C151.996 35.4529 148.879 33.8269 148.202 30.3264C147.75 27.9778 148.066 25.6743 148.97 23.5289C150.189 23.4385 151.386 23.3482 152.56 23.2579C152.357 24.2064 152.086 25.1549 151.996 26.1034C151.928 26.7809 151.996 27.5261 152.176 28.2036C152.56 29.6264 153.735 30.3039 155.112 29.6715ZM158.771 24.6354C158.726 25.1323 158.545 25.7195 158.229 26.0808C157.574 26.8035 156.851 27.5487 155.993 28.023C155.383 28.3617 154.299 28.6327 153.87 28.3165C153.351 27.9326 153.057 26.8938 153.08 26.1711C153.102 25.1774 153.306 24.0483 153.848 23.2353C154.39 22.4223 155.428 21.9255 156.287 21.3383C157.258 20.6382 158.251 19.9833 159.019 19.4639C158.951 20.9769 158.906 22.8062 158.771 24.6354ZM147.931 23.2579C147.773 23.8676 147.592 24.4999 147.434 25.1323C146.847 27.4132 146.824 29.7167 147.705 31.9073C149.195 35.5658 151.951 36.2884 155.948 34.9109C157.009 34.5495 158.003 33.9398 158.906 33.2623C159.764 32.6074 160.442 31.704 161.21 30.891C162.339 31.9299 163.333 32.8558 164.371 33.8269C161.729 37.8015 157.98 39.834 153.351 40.376C152.312 40.4889 151.251 40.4438 150.212 40.3534C147.05 40.0599 145.311 37.9596 143.979 35.34C142.601 32.6074 142.059 29.6941 142.466 26.6905C142.669 25.1097 143.301 23.574 143.73 21.9932C145.266 22.4674 146.531 22.8514 147.931 23.2579ZM168.707 39.1114C169.114 41.1664 169.498 43.2667 169.927 45.3669C170.492 48.0769 170.559 50.7418 169.498 53.384C168.73 55.2584 167.488 56.7264 165.772 57.7426C163.942 58.804 162.858 58.4879 161.91 56.5683C160.668 54.0841 160.555 51.487 161.549 48.8674C162.587 46.1122 164.575 44.0119 166.449 41.8665C167.24 40.918 168.007 39.9695 168.707 39.1114ZM147.795 56.7715C150.37 55.2133 153.035 53.8583 155.699 52.4581C156.716 51.9161 157.822 51.5096 158.997 51.0128C159.064 54.2196 157.461 56.4779 155.203 58.4427C152.989 60.3623 150.844 62.3948 148.699 64.3821C148.337 64.7209 148.111 65.1725 147.705 65.7371C147.14 64.2014 146.553 62.7787 146.102 61.3334C145.492 59.2783 145.921 57.9233 147.795 56.7715ZM151.409 62.9142C153.057 61.3785 154.886 60.0009 156.535 58.4427C157.596 57.449 158.432 56.2295 159.403 55.0778C159.855 56.0714 160.465 57.2006 160.848 58.4201C160.961 58.7589 160.51 59.3686 160.216 59.7751C158.635 61.7173 156.896 63.5465 155.451 65.6016C153.848 67.8825 153.148 70.5925 152.899 73.3703C152.854 73.9349 153.057 74.5446 153.148 75.1318C153.057 75.1769 152.967 75.2221 152.877 75.2673C151.86 73.3025 150.776 71.3604 149.828 69.373C148.473 66.6404 149.421 64.7434 151.409 62.9142ZM153.938 73.5509C153.87 71.6991 154.57 69.7344 155.293 67.9503C156.467 65.0144 158.432 62.5754 160.984 60.6784C162.655 59.4364 163.965 59.7977 164.733 61.7399C166.336 65.7823 166.607 69.8924 165.388 74.0929C164.484 77.1869 162.158 79.0613 159.652 80.7776C158.951 81.2519 158.138 81.5454 157.325 81.9745C155.248 79.4452 154.073 76.5997 153.938 73.5509ZM165.365 76.5997C167.42 72.4895 167.511 68.1761 166.449 63.7949C166.223 62.8464 165.862 61.8979 165.726 60.9269C165.659 60.4978 165.817 59.8654 166.11 59.5944C167.036 58.804 168.075 58.1491 169.272 57.3135C168.685 59.5267 169.362 61.3559 170.017 63.1852C170.672 65.0144 171.417 66.8211 171.959 68.6955C172.818 71.7217 172.118 73.5058 169.475 75.1995C167.849 76.2384 166.178 77.2094 164.371 78.045C164.688 77.5934 165.094 77.1417 165.365 76.5997ZM170.469 61.4463C169.679 58.9395 169.904 56.6134 171.305 54.1293C173.292 57.1103 175.166 59.9332 177.041 62.7561C177.967 64.1563 178.554 65.7371 178.622 67.4083C178.644 67.9954 178.17 68.7407 177.718 69.1924C176.476 70.4119 175.099 71.5184 173.608 72.8283C173.54 68.5826 171.621 65.1274 170.469 61.4463ZM173.473 55.8004C172.208 54.2422 171.598 52.4355 171.598 50.3804C171.598 49.2513 171.395 48.1447 171.237 46.7445C171.53 47.1284 171.666 47.3091 171.779 47.4898C173.473 50.403 175.821 52.6388 178.847 54.0389C180.902 54.9874 181.603 56.5457 181.67 58.5782C181.783 61.3108 180.744 63.7724 179.615 66.3694C178.283 62.2819 176.047 58.9621 173.473 55.8004ZM184.9 55.3714C181.332 54.5584 178.057 53.0001 175.392 50.4708C172.863 48.0995 171.169 45.1411 170.514 41.7084C170.221 40.1728 170.311 38.5919 170.221 36.8982C171.53 36.8982 172.614 36.853 173.698 36.9434C173.924 36.9659 174.263 37.4402 174.308 37.7338C174.85 43.0183 177.741 46.7897 182.054 49.5449C185.351 51.6677 188.784 51.6 192.059 49.4545C195.988 46.9026 198.653 43.4248 199.534 38.7275C199.872 36.8756 199.918 36.8756 201.815 36.8756C202.379 36.8756 202.944 36.8756 203.554 36.8756C204.231 41.7536 202.65 45.7509 199.669 49.2739C196.756 52.7291 192.826 54.4906 188.558 55.4843C187.406 55.7779 186.074 55.6424 184.9 55.3714ZM205.27 39.134C207.031 41.2568 208.906 43.3344 210.577 45.5476C212.993 48.7319 213.897 52.2549 212.271 56.094C211.051 58.9847 209.335 59.0073 206.828 56.6812C203.418 53.5647 203.26 49.5674 204.028 45.3895C204.434 43.3119 204.863 41.2116 205.27 39.134ZM194.294 54.5584C197.727 52.7969 200.595 50.4934 202.582 46.8123C202.628 50.8547 202.063 54.3325 199.353 57.3587C197.095 59.9106 195.356 62.9142 194.385 66.4372C192.985 63.0497 191.471 59.8429 192.826 56.2069C193.052 55.5746 193.662 54.8971 194.294 54.5584ZM195.92 64.8338C197.501 62.0786 199.285 59.4364 201.002 56.7715C201.544 55.9359 202.108 55.1229 202.718 54.2196C204.525 57.2232 204.073 60.1364 202.989 63.0949C202.086 65.579 201.318 68.1309 200.573 70.6603C200.392 71.2474 200.46 71.9024 200.392 72.8509C198.721 71.3378 197.027 70.1183 195.717 68.5374C194.836 67.5212 195.288 65.9404 195.92 64.8338ZM201.882 69.3504C202.334 67.5438 203.102 65.8049 203.621 64.0208C204.118 62.3496 204.547 60.6333 204.909 58.9169C204.999 58.4653 204.818 57.9459 204.75 57.3587C205.857 58.1491 206.851 58.8266 207.799 59.5493C208.454 60.0461 208.319 60.701 208.115 61.3785C207.348 64.0659 206.693 66.7759 206.851 69.5989C206.964 71.9701 207.348 74.3188 208.499 76.4416C208.793 76.9836 209.199 77.4804 209.47 78.2031C208.183 77.4353 206.873 76.7126 205.609 75.9222C204.773 75.4028 203.96 74.8156 203.215 74.1833C201.657 72.9186 201.431 71.1571 201.882 69.3504ZM207.935 70.8184C207.664 67.6341 208.138 64.6079 209.267 61.6947C210.012 59.7977 211.367 59.3912 212.948 60.6559C216.878 63.7724 219.565 67.7019 219.949 72.8283C220.197 76.2384 218.752 79.2194 216.697 81.9745C211.819 79.7162 208.386 76.5094 207.935 70.8184ZM217.555 64.0659C216.449 62.5529 215.116 61.2204 213.829 59.8429C213.174 59.1428 212.858 58.5556 213.422 57.6071C213.919 56.7715 214.235 55.823 214.687 54.8068C215.139 55.5746 215.455 56.3876 215.997 56.9522C217.307 58.2846 218.752 59.4815 220.13 60.7462C221.304 61.8076 222.569 62.8239 223.585 64.0208C224.511 65.1274 225.121 66.4598 224.646 68.0406C223.833 70.6603 222.365 72.9186 220.852 75.4479C221.462 70.9539 219.949 67.3631 217.555 64.0659ZM217.939 57.6523C216.02 55.8908 214.89 53.7228 214.981 50.9902C218.865 52.7969 222.93 54.2196 226.363 56.8393C228.056 58.1491 228.44 59.3235 227.853 61.4237C227.763 61.7624 227.673 62.1012 227.537 62.4399C227.131 63.5014 226.724 64.5402 226.25 65.7371C224.059 62.327 220.762 60.2268 217.939 57.6523ZM214.71 45.0508C210.622 43.2893 207.167 40.8277 205.609 36.311C206.647 35.7239 207.686 35.1367 208.68 34.5721C209.877 35.7916 210.983 37.1692 212.338 38.2306C214.687 40.0824 217.442 41.0987 220.446 41.3923C221.643 41.5052 222.862 41.4826 224.037 41.3471C228.011 40.8954 230.021 38.0951 231.354 34.7528C233.115 30.3942 233.093 26.013 230.992 21.6996C232.076 21.0447 233.115 20.4575 234.199 19.8026C235.893 21.8803 237.022 24.1838 237.293 26.8712C237.609 30.0555 237.361 33.1719 235.983 36.1078C234.606 39.021 232.731 41.5955 230.315 43.7184C228.373 45.4121 225.843 45.6831 223.449 45.9315C220.491 46.2251 217.487 46.2477 214.71 45.0508ZM234.741 42.6118C234.425 41.5729 234.448 40.5793 235.125 39.5856C236.661 37.3499 237.79 34.9109 238.196 32.2009C238.354 31.1846 238.422 30.1458 238.535 28.994C240.364 32.4944 241.742 35.8142 240.816 39.8792C240.093 43.086 240.184 46.4735 241.087 49.9288C238.287 47.8963 235.735 45.9315 234.741 42.6118ZM241.81 48.6189C241.584 46.2251 241.539 43.8313 241.606 41.4149C241.674 39.3824 242.013 37.3499 242.239 35.2722C244.52 36.3788 245.784 38.3435 246.372 40.6922C247.004 43.2215 247.32 45.8186 247.885 48.3479C248.201 49.7029 248.743 51.0128 249.217 52.4355C247.32 52.0516 245.355 51.7806 243.481 51.2612C242.307 50.945 241.9 49.6352 241.81 48.6189ZM252.559 52.2323C250.346 51.9387 249.307 50.1998 248.833 48.1899C248.427 46.4509 248.223 44.6443 247.885 42.8828C247.478 40.8503 247.185 38.7726 245.536 36.9434C247.049 37.0563 248.223 37.0111 249.33 37.2821C249.782 37.395 250.278 38.1177 250.414 38.6597C251.362 42.1375 252.469 45.525 254.84 48.3254C256.353 50.1094 257.957 51.8032 260.373 52.4355C260.351 52.5484 260.328 52.6388 260.305 52.7517C257.731 52.571 255.111 52.5484 252.559 52.2323ZM257.121 49.3868C254.569 46.9929 252.898 43.9894 252.04 40.5793C251.792 39.6308 251.611 38.6371 251.566 37.666C251.521 36.311 252.266 35.4754 253.598 35.6561C255.495 35.9271 257.415 36.3562 259.221 37.0337C262.361 38.2306 265.093 40.1502 266.764 43.1312C267.939 45.2089 268.458 47.5801 268.277 50.0417C268.232 50.7418 268.277 51.4419 268.277 52.2323C264.122 52.571 260.238 52.3 257.121 49.3868ZM268.277 44.1926C267.284 40.9858 264.8 39.0888 262.135 37.395C259.786 35.8819 257.121 35.1367 254.434 34.4592C253.621 34.2559 253.169 33.8043 253.169 32.9009C253.147 31.8847 252.988 30.8684 252.853 29.6264C255.811 32.0202 259.334 31.7492 262.564 32.5396C263.309 32.7203 264.099 32.8332 264.822 33.0816C267.171 33.8495 268.3 35.611 268.435 37.937C268.571 40.0599 268.458 42.1827 268.458 44.3055C268.435 44.2829 268.3 44.2604 268.277 44.1926ZM258.25 30.8233C256.263 30.5071 254.502 29.7844 252.966 28.5198C252.266 27.9326 251.746 27.1196 251.069 26.3292C252.943 26.1034 254.592 25.7872 256.263 25.7194C258.792 25.6291 261.344 25.6065 263.896 25.742C264.8 25.7872 265.725 26.2614 266.538 26.7357C267.622 27.368 267.487 28.6327 267.735 29.6715C268.029 30.891 268.142 32.1557 268.345 33.4655C265.161 31.7266 261.683 31.3427 258.25 30.8233ZM251.385 33.3978C251.295 34.7076 250.64 35.3851 249.307 35.4529C246.168 35.611 243.684 34.3463 241.697 31.9976C239.8 29.7844 239.009 27.0519 238.083 24.387C237.677 23.1901 237.203 21.9932 236.728 20.6608C240.048 22.0158 243.436 23.0998 246.53 24.7484C249.804 26.5325 251.611 29.4683 251.385 33.3978ZM256.173 3.40711C256.466 4.94278 256.353 6.56879 256.218 8.12704C255.969 11.1532 253.824 12.7114 251.408 13.9761C248.698 15.3989 245.784 15.9183 242.758 15.5344C241.155 15.3311 239.597 14.6988 237.971 14.2471C238.445 12.6889 238.829 11.4242 239.167 10.2725C240.997 10.4757 242.758 10.7693 244.542 10.8822C246.733 11.0177 248.652 10.2047 250.256 8.73677C251.566 7.53986 251.566 5.89128 251.43 4.31045C251.227 1.89403 250.143 -0.161039 248.381 -1.8322C247.885 -2.30646 247.41 -2.75814 246.914 -3.23239C247.907 -4.31639 248.856 -5.31004 249.804 -6.34887C253.418 -4.04537 255.382 -0.657888 256.173 3.40711ZM250.098 2.70704C251.295 6.8172 249.962 9.18846 245.355 9.91113C243.255 10.2273 241.606 9.84336 239.371 8.98519C239.371 8.4206 239.393 7.81087 239.371 7.2237C239.326 6.63654 239.213 6.04936 239.145 5.59769C240.59 5.7106 242.013 5.95902 243.436 5.93643C245.4 5.91385 246.372 4.44594 245.536 2.66185C244.904 1.32944 243.933 0.132532 243.097 -1.10955C244 -1.53863 245.039 -2.05805 246.123 -2.57747C247.794 -1.13213 249.443 0.448702 250.098 2.70704ZM242.171 4.94279C241.177 4.80729 240.139 4.60403 239.213 4.19753C238.671 3.94911 238.264 3.31677 237.903 2.77477C236.977 1.41977 236.119 0.0196249 235.419 -1.04179C236.751 -0.974043 238.535 -0.86112 240.319 -0.815954C242.036 -0.770788 244.542 1.78112 244.497 3.49745C244.475 4.42337 243.413 5.12346 242.171 4.94279ZM238.309 6.97529C238.513 8.14963 238.287 9.45945 238.016 10.6338C237.451 13.0276 236.57 15.3311 235.125 17.341C233.589 19.4865 231.286 20.5479 228.892 21.3383C227.469 21.8125 225.956 22.1739 224.466 22.3997C222.772 22.6707 221.191 22.0609 219.655 21.3609C216.72 19.9833 214.619 17.7475 212.993 14.9924C212.609 14.3374 212.632 13.9987 213.151 13.4567C214.868 11.65 216.403 9.64012 216.787 7.11079C217.013 5.5977 216.833 4.01688 216.833 2.23279C218.752 4.06204 220.559 5.75579 222.343 7.44954C222.772 7.85604 222.704 8.23994 222.478 8.75936C220.717 12.6889 223.246 17.7024 228.508 17.8379C231.128 17.9056 234.448 14.2471 233.635 11.1306C232.663 7.31404 228.915 5.48477 225.911 6.1397C225.459 6.23003 224.985 6.34294 224.601 6.59136C224.104 6.90753 223.743 6.79462 223.404 6.43329C221.711 4.6492 220.017 2.86512 218.255 1.01328C219.655 1.01328 220.92 1.14877 222.162 0.968103C223.337 0.810022 224.556 0.516436 225.572 -0.0481471C227.04 -0.883726 228.327 -2.01289 229.705 -2.98398C229.931 -3.14206 230.383 -3.20981 230.608 -3.0969C234.628 -0.883726 237.496 2.32313 238.309 6.97529ZM226.95 6.93011C229.389 6.88494 232.347 9.88854 232.325 12.3727C232.302 13.9987 229.863 16.3925 228.237 16.37C225.753 16.3474 222.862 13.4341 222.907 10.9951C222.953 8.98519 224.963 6.95269 226.95 6.93011ZM227.944 -2.71296C225.03 -0.319128 221.756 0.855211 218.075 -0.364294C216.494 -0.883703 215.094 -2.03546 213.581 -2.9388C214.213 -4.04538 214.687 -4.8358 215.003 -5.40038C216.742 -4.65513 218.459 -3.70662 220.288 -3.18721C223.404 -2.28387 227.198 -4.45189 227.627 -7.18448C228.079 -10.0977 227.153 -12.5141 224.782 -14.2756C223.72 -15.0661 222.501 -15.6758 221.327 -16.3759C221.733 -17.0986 222.207 -17.889 222.682 -18.702C227.673 -17.7986 230.45 -13.3949 230.383 -9.60088C230.36 -8.42654 230.27 -7.22964 230.066 -6.0553C229.841 -4.65514 229.028 -3.61629 227.944 -2.71296ZM220.514 -15.4951C223.088 -14.3885 225.64 -13.1916 226.521 -10.2332C227.537 -6.80056 225.572 -4.36156 222.253 -4.02281C219.61 -3.75181 217.555 -5.08423 215.613 -6.61989C215.5 -6.71023 215.41 -6.91347 215.387 -7.07155C215.319 -8.06522 215.297 -9.0363 215.229 -10.1655C216.403 -9.26213 217.397 -8.42654 218.481 -7.70387C219.046 -7.31996 219.746 -7.0038 220.423 -6.89088C222.004 -6.61988 223.043 -7.18446 223.54 -8.47172C223.924 -9.44279 223.472 -10.8881 222.32 -11.6108C221.169 -12.3335 219.881 -12.8529 218.639 -13.4626C218.233 -13.6433 217.804 -13.7788 217.352 -13.9595C218.346 -14.5015 219.272 -14.9983 220.22 -15.4951C220.288 -15.4951 220.423 -15.5177 220.514 -15.4951ZM215.252 -11.7463C214.868 -12.1754 214.529 -12.6722 214.077 -13.282C216.991 -13.2142 219.475 -12.3561 221.711 -10.7978C222.365 -10.3461 222.795 -9.66863 222.546 -8.78789C222.275 -7.86197 221.304 -7.50063 220.062 -7.99747C218.097 -8.78789 216.629 -10.2332 215.252 -11.7463ZM214.032 -10.4139C214.529 -8.26845 214.642 -6.19081 213.174 -4.24864C210.012 -0.0707227 204.276 -1.26764 201.747 -4.60997C201.611 -4.79063 201.702 -5.24232 201.86 -5.46815C202.176 -5.9424 202.582 -6.32632 203.012 -6.82315C203.847 -6.19081 204.638 -5.53588 205.496 -4.9713C207.28 -3.77438 208.974 -3.95505 210.441 -5.19713C212.384 -6.86829 212.067 -9.01371 211.119 -10.4139C210.532 -11.2946 209.854 -12.1076 209.222 -12.9658C209.787 -13.4401 210.351 -13.9595 211.029 -14.5241C212.406 -13.4626 213.626 -12.2205 214.032 -10.4139ZM205.744 -13.3497C205.225 -13.5304 204.638 -13.6207 204.141 -13.8466C202.244 -14.7047 202.402 -14.7273 202.47 -16.7598C202.515 -18.0245 202.04 -19.3343 201.792 -20.6441C203.486 -20.4183 204.976 -21.2539 206.354 -22.4734C206.512 -22.6089 206.873 -22.6992 207.054 -22.6089C209.312 -21.6152 211.39 -19.6279 210.758 -16.5791C210.419 -14.8402 207.528 -12.7174 205.744 -13.3497ZM193.594 -19.9666C193.685 -19.5827 193.707 -19.1988 193.685 -18.8149C193.617 -18.0696 193.097 -17.7535 192.443 -18.1374C191.855 -18.4987 191.178 -18.9052 190.817 -19.4698C189.755 -21.1184 189.055 -22.9251 189.258 -25.1834C191.336 -23.7606 193.052 -22.3605 193.594 -19.9666ZM196.462 -22.2927C194.43 -22.5412 193.052 -23.851 191.788 -25.3189C191.471 -25.6802 191.246 -26.1319 190.817 -26.7416C193.572 -26.7191 195.875 -26.1545 197.524 -24.0768C197.795 -23.738 198.043 -22.9476 197.885 -22.8121C197.569 -22.4734 196.937 -22.225 196.462 -22.2927ZM183.07 -26.6061C181.693 -24.5511 180.202 -22.8573 177.763 -22.3379C177.425 -22.2701 177.041 -22.2024 176.702 -22.2927C176.092 -22.4508 175.641 -22.8347 176.07 -23.5348C176.408 -24.0994 176.792 -24.6866 177.289 -25.1157C178.463 -26.1319 181.332 -26.8772 183.07 -26.6061ZM183.274 -24.1446C183.635 -24.4607 184.087 -24.7091 184.742 -25.1608C184.719 -22.3379 184.132 -20.0118 181.986 -18.3632C181.67 -18.1148 180.948 -17.9115 180.79 -18.0922C180.473 -18.4084 180.225 -19.0181 180.293 -19.4472C180.496 -21.4797 181.783 -22.9025 183.274 -24.1446ZM172.547 -20.6216C171.372 -18.973 171.192 -17.3244 171.666 -15.5629C171.734 -15.3371 171.576 -14.9306 171.395 -14.7951C168.933 -13.0561 166.652 -12.5367 164.394 -14.637C162.678 -16.2178 162.542 -18.8827 164.213 -20.7119C164.891 -21.4572 165.772 -22.0443 166.652 -22.5637C166.901 -22.7218 167.533 -22.5863 167.804 -22.3605C169.611 -20.8926 170.198 -20.6667 172.547 -20.6216ZM164.801 -12.9884C164.191 -12.1754 163.513 -11.385 162.971 -10.5268C161.165 -7.68129 162.316 -5.78429 164.642 -4.40671C165.704 -3.77438 167.014 -4.0228 168.098 -4.72288C169.069 -5.35522 169.995 -6.07788 170.988 -6.77796C171.485 -6.16821 171.959 -5.60364 172.456 -5.03905C171.282 -2.71297 168.03 -1.24505 165.004 -1.5838C162.723 -1.83221 160.013 -4.36156 159.697 -6.61989C159.29 -9.80414 160.126 -12.5141 163.016 -14.4789C163.604 -14.0046 164.191 -13.5078 164.801 -12.9884ZM154.593 -8.31364C153.238 -7.54581 151.905 -7.70388 151.431 -8.58463C151.002 -9.39763 151.499 -10.4816 152.831 -11.2269C154.977 -12.4238 157.235 -13.3046 159.832 -13.2594C158.455 -11.1591 156.716 -9.51056 154.593 -8.31364ZM156.467 -14.0272C154.909 -13.2594 153.238 -12.5593 151.702 -11.6334C150.528 -10.9333 150.076 -9.48797 150.415 -8.53947C150.98 -7.02639 152.493 -6.30373 154.073 -7.04898C155.316 -7.61356 156.4 -8.4943 157.551 -9.26213C157.958 -9.53313 158.297 -9.84931 158.771 -10.2332C158.703 -9.05889 158.658 -8.04262 158.613 -7.02637C158.613 -6.89088 158.545 -6.73279 158.432 -6.66505C156.241 -4.94871 153.961 -3.54855 150.957 -4.1583C146.576 -5.03905 146.44 -9.82673 148.518 -12.2657C149.805 -13.7788 151.454 -14.6822 153.238 -15.4048C153.419 -15.4726 153.712 -15.4725 153.893 -15.3822C154.774 -14.9305 155.654 -14.4563 156.467 -14.0272ZM147.999 -13.1013C145.831 -11.0688 145.514 -7.34257 147.253 -5.24232C148.902 -3.27756 151.16 -2.55488 153.577 -3.14205C155.428 -3.59372 157.122 -4.58739 158.929 -5.35523C159.29 -4.74548 159.742 -4.00023 160.194 -3.23239C156.964 0.71969 151.047 1.01327 147.569 -1.62898C146.124 -2.73556 144.498 -3.61629 144.024 -5.53588C142.895 -10.0525 143.437 -13.553 147.027 -16.7598C148.134 -17.7535 149.737 -18.2052 151.16 -18.9052C151.476 -18.2955 151.702 -17.8664 151.951 -17.4373C152.176 -17.0534 152.447 -16.6695 152.56 -16.534C151.025 -15.3822 149.376 -14.3885 147.999 -13.1013ZM144.498 -2.82588C145.943 -1.33538 147.637 -0.0481328 149.625 0.471284C151.499 0.968118 153.509 0.945527 155.541 1.17136C153.915 2.88769 152.222 4.69436 150.483 6.47844C150.302 6.65911 149.76 6.70428 149.489 6.59136C145.627 4.89761 140.569 6.8172 140.185 12.4856C140.049 14.36 141.269 15.9183 142.895 16.9119C145.13 18.2669 148.021 17.9282 149.873 16.2796C151.77 14.5859 152.764 11.3565 151.476 8.69162C151.228 8.1722 151.273 7.83344 151.612 7.49469C153.396 5.80094 155.18 4.10721 157.054 2.34571C157.054 3.76846 156.964 5.0557 157.077 6.32037C157.167 7.31403 157.348 8.42062 157.845 9.2562C158.726 10.7693 159.81 12.192 160.894 13.5696C161.3 14.089 161.39 14.4052 161.007 14.9246C160.148 16.0538 159.448 17.2959 158.5 18.3347C156.445 20.5704 153.87 21.9706 150.867 22.4223C149.76 22.603 148.518 22.3997 147.389 22.1061C145.018 21.4964 142.714 20.6382 140.704 19.2154C138.559 17.6798 137.497 15.3763 136.684 13.005C136.187 11.5823 135.871 10.0918 135.6 8.60128C135.307 6.86237 135.939 5.25896 136.684 3.70071C138.062 0.764878 140.298 -1.3128 143.053 -2.9388C143.663 -3.3453 144.001 -3.3453 144.498 -2.82588ZM149.376 7.85602C151.138 9.23361 151.454 11.2435 150.347 13.3438C149.489 14.9698 148.021 15.828 146.35 16.2796C145.718 16.4377 144.814 16.257 144.272 15.8957C143.053 15.0375 141.811 14.089 141.607 12.3275C141.991 10.2724 142.962 8.55612 144.905 7.56246C146.418 6.77203 147.953 6.72685 149.376 7.85602ZM136.12 2.77477C135.645 3.58777 135.126 4.33302 134.11 4.44594C133.003 4.58144 131.897 4.82986 130.813 4.78469C129.661 4.71694 129.254 3.88137 129.616 2.81995C130.316 0.697122 132.303 -0.748214 134.516 -0.79338C135.984 -0.815963 137.452 -0.974044 138.559 -1.04179C137.836 0.0647898 136.933 1.39719 136.12 2.77477ZM131.016 -1.04179C130.316 -0.16104 129.548 0.697106 128.916 1.6456C128.216 2.68443 127.764 3.88136 128.554 5.0331C129.3 6.1171 130.609 6.07194 131.761 6.02677C132.755 5.98161 133.748 5.66544 134.787 5.46219C134.697 6.63653 134.629 7.83345 134.539 9.05295C132.1 9.93369 129.548 10.4531 126.996 9.57237C123.45 8.33029 122.818 6.25263 123.97 2.45863C124.625 0.31321 126.251 -1.15472 127.832 -2.57747C128.916 -2.05805 129.977 -1.53863 131.016 -1.04179ZM123.834 0.516435C122.863 2.00694 122.389 3.72328 122.434 5.55253C122.502 8.42062 124.625 10.0918 127.493 10.7241C129.932 11.2661 132.348 10.95 134.742 10.024C135.171 11.4468 135.555 12.734 135.984 14.1116C133.613 15.173 131.242 15.8957 128.599 15.6247C125.686 15.3311 123.021 14.5859 120.628 12.8018C117.985 10.837 117.217 8.19477 117.624 5.14602C117.872 3.33936 118.369 1.55527 118.956 -0.161063C119.882 -2.8259 121.87 -4.70029 124.151 -6.34888C125.099 -5.33263 126.025 -4.31639 126.928 -3.34531C125.889 -2.08064 124.738 -0.861144 123.834 0.516435ZM140.027 52.2549C140.049 52.2549 140.072 52.2549 140.027 52.2549V52.2549ZM139.981 52.3C139.846 54.197 139.71 56.0489 139.575 57.9007C139.552 58.1265 139.507 58.4653 139.372 58.533C138.13 59.1202 136.888 59.6622 135.442 60.2945C135.307 58.804 135.194 57.5619 135.103 56.2973C135.081 56.094 135.171 55.7779 135.307 55.6649C136.842 54.5132 138.423 53.4066 139.981 52.3ZM130.158 57.0877C131.445 56.8844 132.71 56.5909 133.952 56.3424C134.223 57.9459 134.471 59.5719 134.787 61.4914C136.526 60.8139 138.017 60.2268 139.598 59.5944C140.072 61.0172 140.569 62.4851 141.088 64.0885C137.813 65.308 134.561 66.5275 131.106 67.8148C130.7 65.4209 130.316 63.2529 129.932 61.0849C129.774 60.1139 129.616 59.1428 129.48 58.1717C129.435 57.6297 129.458 57.2006 130.158 57.0877ZM132.777 68.2213C135.691 67.2502 138.559 66.0984 141.54 64.9919C142.375 66.5501 143.256 68.1761 144.182 69.8924C138.355 71.6765 132.642 73.4154 126.883 75.1769C125.551 69.373 124.196 63.5465 122.818 57.5168C124.738 57.5168 126.544 57.5168 128.396 57.5168C128.893 60.4526 129.412 63.5691 130 66.663C130.474 69.2827 130.248 69.0569 132.777 68.2213ZM122.615 82.5617C120.492 74.1155 118.414 65.8049 116.292 57.4039C118.279 57.4039 119.973 57.4039 121.734 57.4039C122.66 61.3559 123.586 65.2177 124.467 69.0569C124.941 71.1571 125.393 73.2574 125.822 75.3802C125.98 76.1932 126.341 76.419 127.154 76.148C131.919 74.6349 136.684 73.167 141.449 71.6991C142.149 71.4733 142.94 71.4281 143.595 71.1119C144.634 70.6151 145.176 71.0894 145.627 71.9249C146.214 72.9864 146.802 74.0252 147.569 75.4479C139.214 77.8192 131.016 80.1679 122.615 82.5617ZM162.836 83.3521C160.465 84.6845 158.093 86.0395 155.835 87.3268C154.344 84.7974 152.786 82.0874 151.16 79.4C148.857 75.5609 146.463 71.7894 144.25 67.9277C143.166 66.0307 142.308 63.9982 141.449 61.9883C140.049 58.6911 140.185 55.3036 141.359 52.029C142.149 49.7933 143.414 47.7156 144.476 45.525C145.447 45.8186 146.282 46.067 147.095 46.338C146.508 47.6253 145.831 48.7996 145.424 50.0417C143.888 54.5809 143.956 59.075 145.808 63.5691C147.999 68.9214 151.002 73.7768 154.006 78.6548C154.819 79.9646 155.699 81.2519 156.445 82.6069C156.783 83.194 157.032 83.2618 157.596 82.923C161.887 80.5292 166.178 78.1354 170.492 75.7641C173.789 73.9575 176.725 71.6991 179.299 68.9665C181.015 67.1373 182.077 64.9693 182.799 62.5077C183.409 60.4526 183.929 58.4427 183.748 56.094C184.696 56.3424 185.487 56.5231 186.21 56.7038C186.91 61.6721 186.164 66.2791 183.138 70.2989C181.309 72.6928 178.825 74.3865 176.205 75.8544C171.779 78.4289 167.285 80.8679 162.836 83.3521ZM187.836 83.194C190.071 80.5066 192.352 77.8418 194.633 75.1318C196.146 76.0803 197.704 77.0514 199.33 78.045C195.22 82.4488 191.155 86.8074 187 91.2563C182.912 86.8751 178.825 82.4939 174.669 78.045C176.228 77.0739 177.809 76.0803 179.389 75.0866C181.151 77.232 182.89 79.3549 184.629 81.4777C185.171 82.1326 185.713 82.7875 186.322 83.3973C186.887 83.9844 187.361 83.7586 187.836 83.194ZM187 82.8101C184.674 79.9872 182.461 77.2998 180.202 74.5672C181.467 73.4154 182.574 72.4444 183.725 71.4055C184.538 72.4218 185.374 73.438 186.187 74.4769C186.752 75.1995 187.271 75.1544 187.813 74.4543C188.603 73.438 189.439 72.4218 190.252 71.3829C191.404 72.4218 192.533 73.438 193.775 74.5446C191.539 77.2546 189.349 79.9194 187 82.8101ZM186.977 74.1155C186.097 72.896 185.329 71.8572 184.606 70.7732C184.493 70.6151 184.516 70.2989 184.584 70.1183C185.397 68.3342 186.232 66.5501 187 64.9015C187.768 66.6404 188.603 68.56 189.507 70.6377C188.761 71.6539 187.926 72.8057 186.977 74.1155ZM196.688 89.7884C193.752 92.8371 190.794 95.8407 187.881 98.8894C187.339 99.454 186.864 99.6799 186.232 99.0249C183.545 96.2698 180.835 93.5598 178.17 90.8046C175.099 87.6204 172.095 84.3909 168.956 81.0712C170.424 80.2356 171.734 79.4678 173.089 78.7903C173.36 78.6548 173.947 78.7903 174.173 79.0161C178.08 83.1714 181.941 87.3719 185.803 91.5724C186.91 92.7694 187.068 92.7694 188.174 91.5724C190.839 88.6592 193.527 85.7911 196.191 82.9004C197.343 81.6584 198.517 80.4389 199.624 79.1516C200.076 78.6096 200.505 78.5193 201.092 78.858C202.311 79.5581 203.554 80.2582 205.021 81.1164C202.176 84.0748 199.443 86.9429 196.688 89.7884ZM224.669 76.3513C222.501 80.0775 220.243 83.736 218.097 87.3042C213.174 84.5039 208.07 81.6132 202.966 78.7225C200.189 77.1417 197.388 75.6286 194.701 73.9123C190.252 71.0668 188.129 66.7308 187.474 61.6044C187.361 60.6784 187.587 59.7074 187.632 58.7589C187.655 58.1265 187.316 57.1329 187.587 56.9522C188.287 56.5005 189.213 56.3876 190.139 56.1392C190.207 57.2684 190.184 58.2846 190.342 59.3009C191.155 64.9693 194.046 69.3956 198.698 72.6476C201.137 74.3414 203.666 75.8996 206.218 77.4353C208.319 78.6999 210.487 79.8291 212.632 81.0034C213.897 81.7035 215.161 82.381 216.471 82.9908C216.72 83.1037 217.307 82.9456 217.42 82.7198C220.649 77.3224 223.946 71.9475 226.95 66.4372C228.553 63.5014 229.615 60.2268 229.682 56.8167C229.705 55.3714 229.231 53.9034 229.073 52.4355C228.824 50.2675 228.011 48.3479 226.701 46.4058C227.65 46.1122 228.463 45.8638 229.253 45.6379C231.85 49.2061 233.612 53.0453 233.454 57.5845C233.386 59.9106 232.776 62.1012 231.692 64.0885C229.434 68.2213 227.063 72.2863 224.669 76.3513ZM233.973 52.3C234.741 52.8872 235.554 53.5647 236.412 54.197C236.999 54.6487 237.609 55.0778 238.264 55.4165C238.761 55.6875 239.009 55.9585 238.942 56.5457C238.784 57.72 238.671 58.8944 238.513 60.2719C237.158 59.6848 235.938 59.1428 234.719 58.5782C234.56 58.5104 234.47 58.1943 234.448 57.9684C234.267 56.094 234.109 54.197 233.973 52.3ZM243.707 67.9729C244.339 64.4273 245.017 60.9043 245.649 57.4716C247.41 57.4716 249.194 57.4716 251.159 57.4716C249.782 63.4788 248.449 69.3053 247.094 75.1769C241.403 73.438 235.644 71.6765 229.795 69.8924C230.699 68.1987 231.557 66.5953 232.438 64.9693C234.606 65.8049 236.728 66.6404 238.896 67.4309C240.161 67.9051 241.448 68.3116 242.736 68.6955C243.345 68.8762 243.594 68.6052 243.707 67.9729ZM257.686 57.3813C255.586 65.7597 253.508 74.0704 251.385 82.5165C243.007 80.0775 234.651 78.1579 226.453 75.2447C227.356 73.6864 228.169 72.2411 229.028 70.7732C230.473 71.1571 231.828 71.4507 233.115 71.8572C237.519 73.2122 241.9 74.6124 246.281 75.99C247.839 76.4868 247.817 76.4642 248.178 74.8156C249.082 70.7958 250.03 66.7759 250.956 62.7335C251.295 61.2204 251.679 59.7074 252.017 58.1943C252.13 57.6297 252.356 57.3361 252.988 57.3361C254.456 57.4039 255.924 57.3813 257.686 57.3813ZM243.955 57.1329C244.181 57.178 244.497 57.6523 244.475 57.8555C243.978 61.0849 243.436 64.3144 242.871 67.8148C239.416 66.5275 236.141 65.308 232.889 64.0885C233.386 62.4851 233.86 61.0398 234.312 59.5719C235.848 60.1816 237.361 60.7688 239.167 61.4914C239.461 59.5944 239.709 57.991 239.98 56.3424C241.268 56.5909 242.623 56.8167 243.955 57.1329ZM272.229 42.6344C272.184 46.3155 272.094 50.0191 272.071 53.7002C272.071 54.5584 272.229 55.4391 272.32 56.2521C267.893 56.2521 263.467 56.2069 259.063 56.2747C256.399 56.3199 253.711 56.6812 251.046 56.5683C247.117 56.4102 243.052 56.6586 239.371 54.8519C236.299 53.3389 233.702 51.2386 232.144 48.0544C231.625 47.0155 230.992 46.0219 230.45 45.0959C231.037 44.441 231.625 43.8087 232.234 43.1312C233.07 44.3055 233.725 45.5476 234.651 46.5187C237.18 49.1609 239.935 51.487 243.684 52.3452C247.636 53.2711 251.611 53.5873 255.653 53.5421C259.492 53.4969 263.332 53.4518 267.171 53.384C267.69 53.384 268.232 53.2937 268.752 53.1808C268.932 53.1356 269.158 52.9098 269.203 52.7065C269.316 52.2549 269.339 51.8032 269.361 51.3289C269.429 46.4735 269.565 41.5955 269.519 36.7401C269.474 32.8784 269.023 29.0618 267.622 25.4484C266.855 23.4837 265.771 21.7222 264.077 20.3672C263.467 19.8704 263.061 19.1025 262.451 18.5831C261.435 17.7701 260.351 17.07 259.154 16.2344C259.854 15.6247 260.464 15.0827 261.277 14.3826C263.128 15.6473 265.296 16.8442 267.148 18.425C269.971 20.864 271.642 24.0257 272.094 27.7971C272.478 30.9588 272.636 34.1204 272.32 37.3047C272.117 39.0888 272.252 40.8729 272.229 42.6344ZM283.724 26.826C281.805 27.2099 280.066 27.5713 278.304 27.8649C276.995 28.0907 275.64 28.2262 274.33 28.4746C273.539 28.6101 273.088 28.5875 272.997 27.5713C272.884 26.397 272.5 25.2226 272.229 24.0483C273.923 23.7773 275.527 23.5063 277.333 23.2127C276.972 22.1965 276.746 21.4286 276.453 20.6834C276.159 19.9381 275.798 19.1929 275.436 18.3799C276.949 17.883 278.395 17.4314 279.998 16.8894C281.24 20.164 282.437 23.3934 283.724 26.826ZM280.969 16.4603C282.46 15.6473 284.108 14.7665 285.825 13.8406C287.609 19.6671 289.348 25.3807 291.109 31.1394C285.26 32.4944 279.456 33.8269 273.539 35.2044C273.449 33.2623 273.336 31.4782 273.246 29.649C276.091 29.1747 278.937 28.723 281.782 28.2262C282.415 28.1133 283.024 27.8874 283.657 27.8197C284.65 27.7294 284.854 27.2777 284.537 26.3969C283.34 23.1449 282.189 19.8704 280.969 16.4603ZM274.059 18.4476C274.239 18.4702 274.465 18.6283 274.533 18.7864C275.098 19.9833 275.617 21.2254 276.227 22.5804C274.872 22.7159 273.765 22.8062 272.681 22.9191C272.026 22.9869 271.642 22.761 271.258 22.1739C270.378 20.864 269.361 19.6445 268.39 18.3799C268.3 18.2444 268.232 18.0863 268.187 18.0185C270.152 18.154 272.094 18.2895 274.059 18.4476ZM298.449 35.4303C290.025 37.5531 281.76 39.6308 273.336 41.731C273.336 39.947 273.313 38.4339 273.359 36.9208C273.359 36.6498 273.72 36.2207 273.968 36.1755C279.614 34.8431 285.237 33.5333 290.906 32.2686C292.329 31.9524 292.396 31.9073 291.945 30.4619C290.454 25.6291 288.941 20.8189 287.451 15.986C287.225 15.2408 286.954 14.4955 286.886 13.7277C286.863 13.3438 287.202 12.8018 287.541 12.5759C288.648 11.8533 289.799 11.2661 291.154 10.4983C294.113 18.6735 296.01 27.0519 298.449 35.4303ZM276.453 -25.4318C275.075 -25.6802 273.652 -25.7931 272.162 -25.9738C272.297 -26.6061 272.41 -27.3288 272.636 -28.0063C272.704 -28.2321 273.11 -28.458 273.359 -28.4805C274.488 -28.5483 275.64 -28.6612 276.724 -28.5032C278.553 -28.2321 280.405 -27.8934 282.189 -27.3514C286.344 -26.0641 289.009 -22.9702 291.087 -19.4021C293.955 -14.4789 296.665 -9.44281 299.465 -4.47447C300.73 -2.23872 302.017 -0.00295729 303.236 2.11988C300.639 3.65554 297.907 5.25895 295.197 6.88495C291.403 9.16587 287.654 11.5371 283.815 13.7503C280.901 15.444 277.875 16.9345 274.465 17.3862C272.275 17.6572 270.107 17.4314 268.097 16.6409C265.838 15.7602 263.716 14.5859 261.457 13.5244C261.751 12.5082 261.999 11.7178 262.248 10.8822C262.496 10.9725 262.767 10.9725 262.925 11.108C264.845 12.6211 267.216 12.9147 269.474 13.4115C272.862 14.1568 276.114 13.4567 279.321 12.2146C285.012 10.024 290.093 6.70427 295.264 3.56519C296.371 2.88769 297.455 2.14245 298.562 1.48754C299.036 1.19395 299.217 1.01329 298.878 0.426127C297.432 -2.17096 296.145 -4.8358 294.655 -7.41031C292.916 -10.4591 291.177 -13.5078 289.19 -16.3985C287.473 -18.9052 285.531 -21.3216 282.844 -22.9025C281.489 -23.6929 279.953 -24.1671 278.508 -24.7543C277.875 -24.9801 277.175 -25.2963 276.453 -25.4318ZM270.581 -21.8862C271.326 -23.3993 272.907 -23.6929 274.33 -23.6251C276.114 -23.5574 277.875 -23.1057 279.614 -22.6992C280.495 -22.496 281.308 -22.0443 281.94 -21.7959C279.705 -20.5538 277.378 -19.3569 275.143 -17.9793C273.72 -17.1211 272.455 -16.0145 271.123 -15.0435C269.723 -14.0272 268.142 -13.6433 266.426 -13.5981C265.274 -13.553 264.145 -13.3949 262.993 -13.282C266.471 -15.3822 268.842 -18.3406 270.581 -21.8862ZM276.791 -17.9116C278.711 -19.1536 280.653 -20.3957 283.069 -20.599C284.018 -20.6667 284.605 -20.3506 285.17 -19.7182C286.321 -18.4084 287.473 -17.076 288.76 -15.608C285.102 -15.5177 282.053 -14.2079 278.959 -12.9658C276.949 -12.1754 274.894 -11.7463 272.749 -12.1754C271.846 -12.3561 270.987 -12.8303 270.061 -13.1691C272.388 -14.8176 274.533 -16.4436 276.791 -17.9116ZM272.071 -9.64606C272.862 -8.83306 273.472 -7.83939 274.059 -6.84572C274.623 -5.9198 274.217 -5.12937 273.449 -4.5422C271.304 -2.9162 268.887 -2.60006 266.313 -3.0969C263.58 -3.6389 261.457 -5.31004 259.38 -7.02637C257.889 -8.24587 256.489 -9.55571 255.134 -10.7526C257.821 -11.2495 260.622 -11.9721 263.467 -12.2657C266.606 -12.6045 269.7 -12.1076 272.071 -9.64606ZM236.999 -27.8257C237.09 -28.0741 237.383 -28.4806 237.587 -28.458C238.829 -28.3902 240.048 -28.2321 241.268 -28.1192C244.023 -27.8482 246.236 -26.3803 248.336 -24.7317C249.759 -23.6026 250.504 -21.9991 250.956 -20.328C251.408 -18.6342 251.679 -16.8727 251.882 -15.1338C252.221 -12.2205 251.091 -9.71379 249.353 -7.47804C247.862 -5.55845 246.326 -3.68406 244.045 -2.66781C243.074 -2.21614 241.99 -1.92255 240.929 -1.78705C237.406 -1.33539 234.199 -2.37422 231.218 -4.1583C230.992 -4.2938 230.902 -4.85837 230.925 -5.21971C231.06 -6.95862 231.376 -8.69756 231.376 -10.4365C231.376 -12.3786 230.473 -14.0498 229.366 -15.608C229.073 -16.0145 228.802 -16.3985 228.395 -16.9857C231.06 -16.3307 233.544 -15.7661 235.983 -15.0886C236.277 -14.9983 236.57 -14.4111 236.616 -14.0272C237.067 -11.1591 238.738 -9.19439 241.471 -8.56205C245.242 -7.6813 248.878 -9.66863 248.788 -14.3434C248.743 -17.1211 246.981 -18.5213 244.904 -19.3795C242.826 -20.2376 240.568 -19.8763 238.671 -18.4084C238.4 -18.1826 238.016 -18.0019 237.88 -17.7083C237.248 -16.3081 236.322 -16.5114 235.125 -16.9405C233.16 -17.618 231.128 -18.1148 228.847 -18.7697C229.411 -19.0181 229.728 -19.1762 230.066 -19.2891C233.996 -20.7796 235.757 -24.0768 236.999 -27.8257ZM240.816 -18.2729C243.029 -18.702 245.852 -17.6857 246.801 -16.1049C247.772 -14.4789 247.049 -12.9432 246.417 -11.4527C245.762 -9.89448 244.271 -9.91705 242.871 -9.91705C240.297 -9.91705 238.309 -11.2721 237.745 -13.3723C237.158 -15.5403 238.625 -17.8438 240.816 -18.2729ZM214.19 -26.29C214.281 -26.4932 214.416 -26.7642 214.552 -27.0578C215.229 -28.5935 215.207 -28.5031 216.9 -28.0741C219.565 -27.4417 222.478 -23.6929 222.072 -20.9377C221.778 -18.9504 221.146 -17.2115 219.362 -16.0597C216.833 -14.4337 214.416 -14.2079 211.548 -15.4048C211.661 -16.2404 211.774 -16.9856 211.887 -17.7309C213.106 -17.6406 214.326 -17.5051 215.545 -17.4825C217.284 -17.4373 218.73 -18.431 219.159 -19.8763C219.791 -22.0669 219.384 -23.5574 217.668 -24.5962C216.607 -25.2511 215.41 -25.7254 214.19 -26.29ZM213.332 -25.1157C213.445 -25.206 213.693 -25.2286 213.829 -25.1608C215.116 -24.5962 216.494 -24.1671 217.6 -23.3541C218.684 -22.5637 218.82 -21.2539 218.188 -19.9892C217.623 -18.8601 216.629 -18.3632 215.41 -18.4084C214.529 -18.431 213.648 -18.5439 212.79 -18.6568C212.18 -18.7471 211.842 -19.0407 211.503 -19.673C210.871 -20.7796 209.899 -21.683 209.041 -22.6541C208.815 -22.9025 208.499 -23.0605 208.002 -23.3993C210.148 -23.3993 211.887 -23.8284 213.332 -25.1157ZM200.573 -28.3225C200.663 -28.458 200.956 -28.5032 201.137 -28.5032C203.35 -28.6161 205.631 -26.832 205.993 -24.6866C206.196 -23.4445 205.292 -22.8347 204.457 -22.2701C203.079 -21.3216 200.685 -21.4346 199.353 -22.4508C199.218 -22.5411 199.059 -22.6766 199.014 -22.8121C198.246 -24.8898 198.246 -24.8898 196.733 -26.3351C198.179 -26.8094 199.692 -26.9449 200.573 -28.3225ZM168.007 -24.7091C168.346 -26.8546 170.627 -28.6386 172.863 -28.5257C173.066 -28.5257 173.36 -28.458 173.427 -28.345C174.308 -26.9449 175.821 -26.832 177.267 -26.3803C176.228 -25.2963 174.963 -24.5059 174.963 -22.8573C174.963 -22.6992 174.715 -22.5411 174.557 -22.4282C172.637 -21.1184 169.679 -21.5249 168.301 -23.3541C168.03 -23.6477 167.94 -24.2575 168.007 -24.7091ZM161.503 -24.5736C162.723 -23.8284 164.213 -23.58 165.614 -23.1057C164.01 -22.3153 162.881 -20.9151 162.203 -19.1762C162.158 -19.0633 162.023 -18.9278 161.91 -18.8826C160.306 -18.4761 158.68 -18.0245 157.054 -18.7471C155.903 -19.244 155.474 -20.2602 155.451 -21.412C155.406 -22.5186 156.083 -23.3316 156.987 -23.9187C157.484 -24.2349 158.093 -24.393 158.613 -24.6866C159.606 -25.206 160.419 -25.2511 161.503 -24.5736ZM156.535 -27.8934C158.884 -28.7967 158.906 -28.7516 159.742 -26.2674C158.59 -25.7254 157.393 -25.2511 156.332 -24.5962C154.548 -23.4896 154.141 -21.9765 154.841 -19.786C155.316 -18.3406 156.716 -17.4147 158.522 -17.4599C159.719 -17.4825 160.894 -17.618 162.091 -17.7083C162.203 -16.9631 162.316 -16.2404 162.452 -15.3596C160.984 -14.7951 159.426 -14.3208 157.8 -14.7273C155.474 -15.3145 153.464 -16.3307 152.425 -18.7697C150.686 -22.8573 153.554 -26.7416 156.535 -27.8934ZM122.118 -15.6532C122.389 -17.6631 122.863 -19.6731 123.496 -21.6152C124.173 -23.6703 125.799 -24.9576 127.583 -26.1771C130.293 -28.0063 133.319 -28.2547 136.391 -28.4805C136.571 -28.5031 136.91 -28.1192 136.978 -27.8482C137.904 -25.1382 138.92 -22.4734 141.359 -20.7345C142.443 -19.9667 143.685 -19.4247 144.972 -18.702C143.03 -18.1374 141.111 -17.5728 139.191 -17.0082C138.92 -16.9179 138.626 -16.8953 138.378 -16.7824C137.542 -16.3533 136.978 -16.4436 136.391 -17.3018C134.471 -20.0796 129.48 -20.599 126.725 -17.8212C124.196 -15.2693 124.964 -11.1366 127.267 -9.48796C129.412 -7.9523 132.619 -7.52321 135.194 -9.96221C136.368 -11.0688 137.204 -12.3335 137.339 -13.9821C137.407 -14.7725 137.813 -15.0661 138.581 -15.2241C140.862 -15.721 143.098 -16.3307 145.447 -16.9405C144.679 -15.6306 143.934 -14.5015 143.324 -13.3045C142.33 -11.3624 142.466 -9.26214 142.669 -7.16189C142.669 -7.09415 142.714 -7.02639 142.737 -6.95864C143.301 -4.20347 143.301 -4.20347 140.704 -3.02914C137.768 -1.71931 134.765 -1.33538 131.58 -2.03546C129.096 -2.57746 127.403 -4.20346 125.799 -5.98755C125.099 -6.77796 124.489 -7.65873 123.88 -8.5169C122.344 -10.6397 121.779 -13.0787 122.118 -15.6532ZM136.346 -14.0046C136.187 -12.2883 135.149 -11.1366 133.658 -10.4591C132.845 -10.0977 131.919 -9.98482 131.038 -9.75898C128.035 -9.91706 126.183 -12.1754 126.748 -15.1338C127.019 -16.5566 128.238 -17.1663 129.345 -17.7535C130.971 -18.6342 132.687 -18.7246 134.313 -17.7986C135.758 -16.9856 136.504 -15.6758 136.346 -14.0046ZM114.417 -11.5882C115.93 -11.3172 117.466 -11.0236 118.934 -10.73C116.834 -8.99113 114.733 -7.11672 112.498 -5.40038C109.539 -3.09689 106.197 -2.21612 102.516 -3.41304C101.725 -3.66146 101.003 -4.18089 100.348 -4.70031C99.738 -5.17456 99.4896 -5.85204 99.8283 -6.68762C101.116 -9.96221 103.713 -11.4979 106.987 -12.1528C109.517 -12.6722 111.956 -12.0173 114.417 -11.5882ZM95.2665 -12.8529C92.6694 -13.7788 90.0271 -14.5692 87.4075 -15.3822C86.8203 -15.5629 86.1428 -15.5403 85.3298 -15.6307C86.4364 -16.9631 87.4978 -18.2503 88.5366 -19.5376C89.8691 -21.1636 91.6531 -20.8474 93.0533 -20.1021C95.8536 -18.6116 98.4733 -16.7824 101.138 -15.0886C102.019 -14.5241 102.877 -13.8917 103.803 -13.2594C101.025 -11.5431 98.2023 -11.8141 95.2665 -12.8529ZM100.777 -23.5122C101.996 -23.2638 102.99 -22.767 103.577 -21.5475C105.248 -18.1148 107.597 -15.2919 111.255 -13.3723C110.804 -13.3046 110.601 -13.2594 110.397 -13.2594C109.246 -13.3723 108.094 -13.5078 106.919 -13.5981C105.135 -13.7562 103.532 -14.3886 102.154 -15.5177C99.0153 -18.1148 95.673 -20.3054 91.6983 -21.6604C94.6567 -22.9251 97.5248 -24.1671 100.777 -23.5122ZM78.6 -11.8366C80.3163 -14.8854 82.0326 -17.9567 83.8845 -20.9377C86.73 -25.5222 91.0886 -27.8257 96.3279 -28.5032C97.8184 -28.7064 99.3541 -28.5483 100.867 -28.5032C101.025 -28.5032 101.251 -28.2999 101.296 -28.1418C101.499 -27.3965 101.658 -26.6513 101.816 -25.9512C100.483 -25.7931 99.2186 -25.748 97.9539 -25.4996C93.0985 -24.5962 89.1916 -22.2024 86.1428 -18.2503C83.0489 -14.2531 80.6325 -9.84929 78.1935 -5.44554C77.1321 -3.50337 76.1158 -1.51604 75.0544 0.426125C74.7608 0.945542 74.8286 1.19394 75.348 1.51011C77.6063 2.88769 79.8195 4.37819 82.1004 5.7106C85.1491 7.49468 88.2205 9.30136 91.3821 10.8822C94.4309 12.3953 97.6151 13.6148 101.093 13.6825C102.493 13.7051 103.893 13.4341 105.271 13.2083C106.377 13.0276 107.484 12.7566 108.545 12.3727C109.584 11.9888 110.555 11.4016 111.685 10.8596C111.956 11.7629 112.181 12.5534 112.43 13.3664C109.968 14.6084 107.8 16.3474 104.955 17.0023C101.07 17.883 97.4119 17.4991 93.9341 15.715C91.3596 14.4052 88.8754 12.8695 86.3686 11.4016C82.7327 9.2562 79.1194 7.06562 75.4835 4.94279C73.8575 3.97171 72.1637 3.09095 70.6958 2.25537C73.3155 -2.3968 75.9351 -7.1393 78.6 -11.8366Z" fill="white" fill-opacity="0.15"/>
</g>
<defs>
<clipPath id="clip0_2_1122">
<rect width="101" height="375" fill="white" transform="translate(0 101) rotate(-90)"/>
</clipPath>
</defs>
</svg>
