<svg width="42" height="42" viewBox="0 0 42 42" fill="none" xmlns="http://www.w3.org/2000/svg">
<g clip-path="url(#clip0_14_2895)">
<path d="M40.6224 22.3104C40.2528 22.3104 39.9168 22.176 39.6816 21.9072C39.4128 21.672 39.2784 21.3024 39.2784 20.9664C39.2784 20.8656 39.2784 20.7984 39.312 20.6976C39.3456 20.6304 39.3456 20.5296 39.3792 20.4288C39.4128 20.3616 39.4464 20.2608 39.5136 20.1936C39.5472 20.1264 39.6144 20.0592 39.6816 19.992C39.7488 19.9248 39.816 19.8912 39.8832 19.824C39.9504 19.7904 40.0512 19.7232 40.1184 19.6896C40.1856 19.656 40.2864 19.6224 40.3872 19.6224C40.824 19.5216 41.2944 19.6896 41.5968 19.992C41.664 20.0592 41.7312 20.1264 41.7648 20.1936C41.7984 20.2608 41.8656 20.3616 41.8992 20.4288C41.9328 20.496 41.9664 20.5968 41.9664 20.6976C41.9664 20.7984 42 20.8656 42 20.9664C42 21.3024 41.8656 21.672 41.5968 21.9072C41.2944 22.176 40.9584 22.3104 40.6224 22.3104ZM20.9665 2.68807C20.6305 2.68807 20.2609 2.55367 20.0257 2.28487C19.9585 2.21767 19.9249 2.15047 19.8577 2.08327C19.8241 2.01607 19.7569 1.94887 19.7233 1.84807C19.6897 1.78087 19.6561 1.68007 19.6561 1.57927C19.6561 1.47847 19.6225 1.41127 19.6225 1.31047C19.6225 0.974468 19.7569 0.604868 20.0257 0.369668C20.0929 0.336069 20.1601 0.268869 20.2273 0.235269C20.2945 0.201669 20.3617 0.134469 20.4625 0.100869C20.5297 0.0672688 20.6305 0.0336688 20.7313 0.0336688C21.1681 -0.0671312 21.6385 0.100869 21.9409 0.403268C22.1761 0.638468 22.3105 1.00807 22.3105 1.34407C22.3105 1.44487 22.3105 1.51207 22.2769 1.61287C22.2769 1.71367 22.2433 1.78087 22.2097 1.88167C22.1761 1.94887 22.1425 2.01607 22.1089 2.08327C22.0753 2.15047 22.0081 2.21767 21.9409 2.28487C21.8737 2.35207 21.8065 2.38567 21.7393 2.45287C21.6721 2.52007 21.5713 2.55367 21.5041 2.58727C21.4369 2.62087 21.3361 2.65447 21.2353 2.65447C21.1681 2.68807 21.0673 2.68807 20.9665 2.68807ZM20.9667 41.9665C20.8659 41.9665 20.7987 41.9665 20.6979 41.9329C20.6307 41.8993 20.5299 41.8993 20.4291 41.8657C20.3619 41.8321 20.2611 41.7985 20.1939 41.7313C20.1267 41.6977 20.0595 41.6305 19.9923 41.5633C19.9251 41.4961 19.8915 41.4289 19.8243 41.3617C19.7907 41.2945 19.7235 41.2273 19.6899 41.1265C19.6563 41.0593 19.6227 40.9585 19.6227 40.8913C19.6227 40.7905 19.5891 40.7233 19.5891 40.6225C19.5891 40.2865 19.7235 39.9169 19.9923 39.6817C20.0595 39.6145 20.1267 39.5473 20.1939 39.5137C20.2611 39.4465 20.3283 39.4129 20.4291 39.3793C20.4963 39.3457 20.5971 39.3121 20.6979 39.3121C21.1347 39.2113 21.6051 39.3793 21.9075 39.6817C21.9747 39.7489 22.0419 39.8161 22.0755 39.8833C22.1091 39.9505 22.1763 40.0513 22.2099 40.1185C22.2435 40.1857 22.2771 40.2865 22.2771 40.3873C22.3107 40.4881 22.3107 40.5553 22.3107 40.6561C22.3107 40.7569 22.3107 40.8241 22.2771 40.9249C22.2771 40.9921 22.2435 41.0929 22.2099 41.1601C22.1763 41.2273 22.1427 41.3281 22.0755 41.3953C22.0419 41.4625 21.9747 41.5297 21.9075 41.5969C21.6723 41.7985 21.3363 41.9665 20.9667 41.9665ZM1.344 22.3104C0.9744 22.3104 0.6384 22.176 0.4032 21.9072C0.1344 21.672 0 21.336 0 20.9664C0 20.8656 -3.25441e-08 20.7984 0.0336 20.6976C0.0336 20.6304 0.0672 20.5296 0.1008 20.4288C0.1344 20.3616 0.168 20.2608 0.2352 20.1936C0.2688 20.1264 0.336 20.0592 0.4032 19.992C0.4704 19.9248 0.5376 19.8912 0.6048 19.824C0.672 19.7904 0.7728 19.7232 0.84 19.6896C0.9072 19.656 1.008 19.6224 1.1088 19.6224C1.5456 19.5216 2.016 19.6896 2.3184 19.992C2.352 20.0928 2.4192 20.16 2.4528 20.2272C2.4864 20.2944 2.5536 20.3952 2.5872 20.4624C2.6208 20.5296 2.6544 20.6304 2.6544 20.7312C2.688 20.7984 2.688 20.8992 2.688 20.9664C2.688 21.3024 2.5536 21.672 2.2848 21.9072C2.0496 22.176 1.68 22.3104 1.344 22.3104ZM34.8765 8.43366C34.7757 8.43366 34.7085 8.43367 34.6077 8.40007C34.5069 8.36646 34.4397 8.36646 34.3389 8.33286C34.2717 8.29926 34.1709 8.26567 34.1037 8.19846C34.0365 8.16486 33.9693 8.09766 33.9021 8.03047C33.6669 7.79526 33.4989 7.42566 33.4989 7.08966C33.4989 6.98886 33.4989 6.92166 33.5325 6.82086C33.5325 6.75366 33.5661 6.65286 33.5997 6.55206C33.6333 6.48487 33.6669 6.38406 33.7341 6.31686C33.7677 6.24966 33.8349 6.18246 33.9021 6.11526C33.9693 6.04806 34.0365 5.98086 34.1037 5.94726C34.1709 5.88006 34.2717 5.84646 34.3389 5.81286C34.4061 5.77926 34.5069 5.74566 34.6077 5.74566C35.0445 5.64486 35.5149 5.81286 35.8173 6.11526C35.8845 6.18246 35.9181 6.24966 35.9853 6.31686C36.0189 6.38406 36.0861 6.48487 36.1197 6.55206C36.1533 6.61927 36.1869 6.72006 36.1869 6.82086C36.1869 6.92166 36.2205 6.98886 36.2205 7.08966C36.2205 7.45926 36.0861 7.79526 35.8173 8.03047C35.5485 8.29926 35.2125 8.43366 34.8765 8.43366ZM7.08947 36.2209C6.75347 36.2209 6.38387 36.0865 6.14867 35.8177C5.87987 35.5489 5.74547 35.2129 5.74547 34.8769C5.74547 34.5409 5.87987 34.1713 6.14867 33.9361C6.21587 33.8689 6.28307 33.8017 6.35027 33.7681C6.41747 33.7345 6.51827 33.6673 6.58547 33.6337C6.65267 33.6001 6.75347 33.5666 6.85427 33.5666C7.02226 33.533 7.19027 33.533 7.39187 33.5666C7.45907 33.5666 7.55987 33.6001 7.62707 33.6337C7.69427 33.6673 7.79507 33.7009 7.86227 33.7681C7.92947 33.8017 7.99667 33.8689 8.06387 33.9361C8.33267 34.2049 8.46707 34.5409 8.46707 34.8769C8.46707 35.2129 8.33267 35.5825 8.06387 35.8177C7.79507 36.0529 7.45907 36.2209 7.08947 36.2209ZM34.8771 36.2209C34.5075 36.2209 34.1715 36.0865 33.9363 35.8177C33.7011 35.5489 33.5331 35.2129 33.5331 34.8769C33.5331 34.7761 33.5331 34.7089 33.5667 34.6081C33.5667 34.5073 33.6003 34.4401 33.6339 34.3393C33.6675 34.2721 33.7011 34.1713 33.7683 34.1041C33.8019 34.0369 33.8691 33.9697 33.9363 33.9025C34.0035 33.8353 34.0707 33.7681 34.1379 33.7345C34.2051 33.7009 34.3059 33.6337 34.3731 33.6C34.4403 33.5664 34.5411 33.5328 34.6419 33.5328C34.8099 33.4992 35.0115 33.4992 35.1795 33.5328C35.2803 33.5328 35.3475 33.5664 35.4483 33.6C35.5155 33.6337 35.6163 33.6673 35.6835 33.7345C35.7507 33.7681 35.8179 33.8353 35.8851 33.9025C35.9523 33.9697 35.9859 34.0369 36.0531 34.1041C36.0867 34.1713 36.1539 34.2385 36.1875 34.3393C36.2211 34.4401 36.2547 34.5073 36.2547 34.6081C36.2547 34.7089 36.2883 34.7761 36.2883 34.8769C36.2883 35.2129 36.1539 35.5825 35.8851 35.8177C35.5491 36.0529 35.2131 36.2209 34.8771 36.2209ZM7.08947 8.43383C6.71987 8.43383 6.38387 8.29943 6.14867 8.03063C5.87987 7.79543 5.74547 7.42583 5.74547 7.08983C5.74547 6.98903 5.74547 6.92183 5.77907 6.82103C5.77907 6.75383 5.81266 6.65303 5.84627 6.55223C5.87987 6.48503 5.91347 6.38423 5.98067 6.31703C6.01427 6.24983 6.08147 6.18263 6.14867 6.11543C6.21587 6.04823 6.28307 5.98103 6.35027 5.94743C6.41747 5.88023 6.51827 5.84663 6.58547 5.81303C6.65267 5.77943 6.75347 5.74583 6.82067 5.74583C6.98867 5.71223 7.15667 5.71223 7.35827 5.74583C7.42547 5.77943 7.52627 5.77943 7.59347 5.81303C7.66067 5.84663 7.76147 5.88023 7.82867 5.94743C7.89587 5.98103 7.96307 6.04823 8.03026 6.11543C8.09747 6.18263 8.16467 6.24983 8.19827 6.31703C8.23186 6.38423 8.29907 6.48503 8.33267 6.55223C8.36627 6.61943 8.39987 6.72023 8.39987 6.82103C8.39987 6.92183 8.43347 6.98903 8.43347 7.08983C8.43347 7.45943 8.29907 7.79543 8.03026 8.03063C7.79507 8.29943 7.45907 8.43383 7.08947 8.43383Z" fill="#FFC44C"/>
<path d="M40.6224 22.3104C40.2528 22.3104 39.9168 22.176 39.6816 21.9072C39.4128 21.672 39.2784 21.3024 39.2784 20.9664C39.2784 20.8656 39.2784 20.7984 39.312 20.6976C39.3456 20.6304 39.3456 20.5296 39.3792 20.4288C39.4128 20.3616 39.4464 20.2608 39.5136 20.1936C39.5472 20.1264 39.6144 20.0592 39.6816 19.992C39.7488 19.9248 39.816 19.8912 39.8832 19.824C39.9504 19.7904 40.0512 19.7232 40.1184 19.6896C40.1856 19.656 40.2864 19.6224 40.3872 19.6224C40.824 19.5216 41.2944 19.6896 41.5968 19.992C41.664 20.0592 41.7312 20.1264 41.7648 20.1936C41.7984 20.2608 41.8656 20.3616 41.8992 20.4288C41.9328 20.496 41.9664 20.5968 41.9664 20.6976C41.9664 20.7984 42 20.8656 42 20.9664C42 21.3024 41.8656 21.672 41.5968 21.9072C41.2944 22.176 40.9584 22.3104 40.6224 22.3104ZM20.9665 2.68807C20.6305 2.68807 20.2609 2.55367 20.0257 2.28487C19.9585 2.21767 19.9249 2.15047 19.8577 2.08327C19.8241 2.01607 19.7569 1.94887 19.7233 1.84807C19.6897 1.78087 19.6561 1.68007 19.6561 1.57927C19.6561 1.47847 19.6225 1.41127 19.6225 1.31047C19.6225 0.974468 19.7569 0.604868 20.0257 0.369668C20.0929 0.336069 20.1601 0.268869 20.2273 0.235269C20.2945 0.201669 20.3617 0.134469 20.4625 0.100869C20.5297 0.0672688 20.6305 0.0336688 20.7313 0.0336688C21.1681 -0.0671312 21.6385 0.100869 21.9409 0.403268C22.1761 0.638468 22.3105 1.00807 22.3105 1.34407C22.3105 1.44487 22.3105 1.51207 22.2769 1.61287C22.2769 1.71367 22.2433 1.78087 22.2097 1.88167C22.1761 1.94887 22.1425 2.01607 22.1089 2.08327C22.0753 2.15047 22.0081 2.21767 21.9409 2.28487C21.8737 2.35207 21.8065 2.38567 21.7393 2.45287C21.6721 2.52007 21.5713 2.55367 21.5041 2.58727C21.4369 2.62087 21.3361 2.65447 21.2353 2.65447C21.1681 2.68807 21.0673 2.68807 20.9665 2.68807ZM20.9667 41.9665C20.8659 41.9665 20.7987 41.9665 20.6979 41.9329C20.6307 41.8993 20.5299 41.8993 20.4291 41.8657C20.3619 41.8321 20.2611 41.7985 20.1939 41.7313C20.1267 41.6977 20.0595 41.6305 19.9923 41.5633C19.9251 41.4961 19.8915 41.4289 19.8243 41.3617C19.7907 41.2945 19.7235 41.2273 19.6899 41.1265C19.6563 41.0593 19.6227 40.9585 19.6227 40.8913C19.6227 40.7905 19.5891 40.7233 19.5891 40.6225C19.5891 40.2865 19.7235 39.9169 19.9923 39.6817C20.0595 39.6145 20.1267 39.5473 20.1939 39.5137C20.2611 39.4465 20.3283 39.4129 20.4291 39.3793C20.4963 39.3457 20.5971 39.3121 20.6979 39.3121C21.1347 39.2113 21.6051 39.3793 21.9075 39.6817C21.9747 39.7489 22.0419 39.8161 22.0755 39.8833C22.1091 39.9505 22.1763 40.0513 22.2099 40.1185C22.2435 40.1857 22.2771 40.2865 22.2771 40.3873C22.3107 40.4881 22.3107 40.5553 22.3107 40.6561C22.3107 40.7569 22.3107 40.8241 22.2771 40.9249C22.2771 40.9921 22.2435 41.0929 22.2099 41.1601C22.1763 41.2273 22.1427 41.3281 22.0755 41.3953C22.0419 41.4625 21.9747 41.5297 21.9075 41.5969C21.6723 41.7985 21.3363 41.9665 20.9667 41.9665ZM1.344 22.3104C0.9744 22.3104 0.6384 22.176 0.4032 21.9072C0.1344 21.672 0 21.336 0 20.9664C0 20.8656 -3.25441e-08 20.7984 0.0336 20.6976C0.0336 20.6304 0.0672 20.5296 0.1008 20.4288C0.1344 20.3616 0.168 20.2608 0.2352 20.1936C0.2688 20.1264 0.336 20.0592 0.4032 19.992C0.4704 19.9248 0.5376 19.8912 0.6048 19.824C0.672 19.7904 0.7728 19.7232 0.84 19.6896C0.9072 19.656 1.008 19.6224 1.1088 19.6224C1.5456 19.5216 2.016 19.6896 2.3184 19.992C2.352 20.0928 2.4192 20.16 2.4528 20.2272C2.4864 20.2944 2.5536 20.3952 2.5872 20.4624C2.6208 20.5296 2.6544 20.6304 2.6544 20.7312C2.688 20.7984 2.688 20.8992 2.688 20.9664C2.688 21.3024 2.5536 21.672 2.2848 21.9072C2.0496 22.176 1.68 22.3104 1.344 22.3104ZM34.8765 8.43366C34.7757 8.43366 34.7085 8.43367 34.6077 8.40007C34.5069 8.36646 34.4397 8.36646 34.3389 8.33286C34.2717 8.29926 34.1709 8.26567 34.1037 8.19846C34.0365 8.16486 33.9693 8.09766 33.9021 8.03047C33.6669 7.79526 33.4989 7.42566 33.4989 7.08966C33.4989 6.98886 33.4989 6.92166 33.5325 6.82086C33.5325 6.75366 33.5661 6.65286 33.5997 6.55206C33.6333 6.48487 33.6669 6.38406 33.7341 6.31686C33.7677 6.24966 33.8349 6.18246 33.9021 6.11526C33.9693 6.04806 34.0365 5.98086 34.1037 5.94726C34.1709 5.88006 34.2717 5.84646 34.3389 5.81286C34.4061 5.77926 34.5069 5.74566 34.6077 5.74566C35.0445 5.64486 35.5149 5.81286 35.8173 6.11526C35.8845 6.18246 35.9181 6.24966 35.9853 6.31686C36.0189 6.38406 36.0861 6.48487 36.1197 6.55206C36.1533 6.61927 36.1869 6.72006 36.1869 6.82086C36.1869 6.92166 36.2205 6.98886 36.2205 7.08966C36.2205 7.45926 36.0861 7.79526 35.8173 8.03047C35.5485 8.29926 35.2125 8.43366 34.8765 8.43366ZM7.08947 36.2209C6.75347 36.2209 6.38387 36.0865 6.14867 35.8177C5.87987 35.5489 5.74547 35.2129 5.74547 34.8769C5.74547 34.5409 5.87987 34.1713 6.14867 33.9361C6.21587 33.8689 6.28307 33.8017 6.35027 33.7681C6.41747 33.7345 6.51827 33.6673 6.58547 33.6337C6.65267 33.6001 6.75347 33.5666 6.85427 33.5666C7.02226 33.533 7.19027 33.533 7.39187 33.5666C7.45907 33.5666 7.55987 33.6001 7.62707 33.6337C7.69427 33.6673 7.79507 33.7009 7.86227 33.7681C7.92947 33.8017 7.99667 33.8689 8.06387 33.9361C8.33267 34.2049 8.46707 34.5409 8.46707 34.8769C8.46707 35.2129 8.33267 35.5825 8.06387 35.8177C7.79507 36.0529 7.45907 36.2209 7.08947 36.2209ZM34.8771 36.2209C34.5075 36.2209 34.1715 36.0865 33.9363 35.8177C33.7011 35.5489 33.5331 35.2129 33.5331 34.8769C33.5331 34.7761 33.5331 34.7089 33.5667 34.6081C33.5667 34.5073 33.6003 34.4401 33.6339 34.3393C33.6675 34.2721 33.7011 34.1713 33.7683 34.1041C33.8019 34.0369 33.8691 33.9697 33.9363 33.9025C34.0035 33.8353 34.0707 33.7681 34.1379 33.7345C34.2051 33.7009 34.3059 33.6337 34.3731 33.6C34.4403 33.5664 34.5411 33.5328 34.6419 33.5328C34.8099 33.4992 35.0115 33.4992 35.1795 33.5328C35.2803 33.5328 35.3475 33.5664 35.4483 33.6C35.5155 33.6337 35.6163 33.6673 35.6835 33.7345C35.7507 33.7681 35.8179 33.8353 35.8851 33.9025C35.9523 33.9697 35.9859 34.0369 36.0531 34.1041C36.0867 34.1713 36.1539 34.2385 36.1875 34.3393C36.2211 34.4401 36.2547 34.5073 36.2547 34.6081C36.2547 34.7089 36.2883 34.7761 36.2883 34.8769C36.2883 35.2129 36.1539 35.5825 35.8851 35.8177C35.5491 36.0529 35.2131 36.2209 34.8771 36.2209ZM7.08947 8.43383C6.71987 8.43383 6.38387 8.29943 6.14867 8.03063C5.87987 7.79543 5.74547 7.42583 5.74547 7.08983C5.74547 6.98903 5.74547 6.92183 5.77907 6.82103C5.77907 6.75383 5.81266 6.65303 5.84627 6.55223C5.87987 6.48503 5.91347 6.38423 5.98067 6.31703C6.01427 6.24983 6.08147 6.18263 6.14867 6.11543C6.21587 6.04823 6.28307 5.98103 6.35027 5.94743C6.41747 5.88023 6.51827 5.84663 6.58547 5.81303C6.65267 5.77943 6.75347 5.74583 6.82067 5.74583C6.98867 5.71223 7.15667 5.71223 7.35827 5.74583C7.42547 5.77943 7.52627 5.77943 7.59347 5.81303C7.66067 5.84663 7.76147 5.88023 7.82867 5.94743C7.89587 5.98103 7.96307 6.04823 8.03026 6.11543C8.09747 6.18263 8.16467 6.24983 8.19827 6.31703C8.23186 6.38423 8.29907 6.48503 8.33267 6.55223C8.36627 6.61943 8.39987 6.72023 8.39987 6.82103C8.39987 6.92183 8.43347 6.98903 8.43347 7.08983C8.43347 7.45943 8.29907 7.79543 8.03026 8.03063C7.79507 8.29943 7.45907 8.43383 7.08947 8.43383Z" fill="#FFC44C"/>
<path d="M20.8323 34.944C28.756 34.944 35.1796 28.6107 35.1796 20.7983C35.1796 12.9859 28.756 6.65274 20.8323 6.65274C12.9086 6.65274 6.48511 12.9859 6.48511 20.7983C6.48511 28.6107 12.9086 34.944 20.8323 34.944Z" fill="url(#paint0_linear_14_2895)"/>
</g>
<defs>
<linearGradient id="paint0_linear_14_2895" x1="20.8451" y1="34.9349" x2="20.8451" y2="6.63433" gradientUnits="userSpaceOnUse">
<stop stop-color="#FFC14C"/>
<stop offset="1" stop-color="#FFD04D"/>
</linearGradient>
<clipPath id="clip0_14_2895">
<rect width="42" height="42" fill="white"/>
</clipPath>
</defs>
</svg>
