<svg width="92" height="97" viewBox="0 0 92 97" fill="none" xmlns="http://www.w3.org/2000/svg">
<path d="M68.2937 65.0599C71.212 65.0599 74.092 64.7176 76.8843 64.049V37.9279H43.1526V55.1152C49.99 61.5363 58.8706 65.0599 68.2937 65.0599ZM57.2019 43.9364H62.835V56.579H57.2019V43.9364Z" fill="white"/>
<path d="M78.5323 32.2955C79.538 30.1574 80.2447 27.1745 79.455 23.4176C78.6723 19.6949 76.1148 15.9745 72.0584 12.6591C69.3638 10.4564 66.0868 8.51037 62.8358 7.15656V-0.000762939H57.2028V7.15656C53.9518 8.51037 50.6749 10.4564 47.9802 12.6591C43.9239 15.9747 41.3663 19.6949 40.5837 23.4176C39.7939 27.1745 40.5007 30.1575 41.5064 32.2955H78.5323Z" fill="white"/>
<path d="M27.1803 78.3984C28.1562 75.6081 27.8201 72.5505 26.6989 69.8345C23.0945 68.349 19.0076 68.5723 15.5528 70.4132C13.2025 71.6656 8.88031 76.1782 8.88031 76.1782C12.0185 80.6617 15.9233 84.5682 20.4053 87.7081C20.4053 87.7081 25.5952 82.9316 27.1803 78.3984Z" fill="white"/>
<path d="M2.54734 54.3271L0.785889 54.9101C1.46786 60.739 3.22255 66.2391 5.84773 71.2091C5.84773 71.2091 8.24346 69.165 8.45094 68.9752C12.3627 65.3047 13.5691 59.6223 11.507 54.6397C8.65485 53.4628 5.50806 53.3467 2.54734 54.3271V54.3271Z" fill="white"/>
<path d="M42.2065 93.9854C43.1866 91.0245 43.0708 87.8779 41.8936 85.0255C36.8861 82.9532 31.1708 84.1845 27.5046 88.1472C27.3381 88.3368 25.2779 90.692 25.2779 90.692C30.2534 93.3376 35.7632 95.1094 41.6045 95.8038L42.2065 93.9854Z" fill="white"/>
<path d="M68.2956 70.6944C44.8833 70.6944 25.9037 51.7148 25.9037 28.3024C25.9037 19.6636 28.4902 11.63 32.9276 4.92913C14.2 10.92 0.612936 28.4012 0.4646 49.0819C5.15222 47.5304 11.0425 47.4739 15.7282 50.4151C17.9899 54.7029 18.7723 59.5224 17.662 63.6662C21.7997 62.7416 26.5333 63.0586 30.922 65.609C33.3866 69.9748 33.801 74.6833 32.8658 78.8692C36.7351 77.7358 42.2431 78.4244 46.1158 80.803C49.0027 86.2481 48.9785 91.447 47.4268 96.1344C68.1439 96.0246 85.6608 82.427 91.6611 63.6758C84.9619 68.1099 76.9311 70.6944 68.2956 70.6944Z" fill="white"/>
</svg>
