<svg width="42" height="42" fill="none" xmlns="http://www.w3.org/2000/svg"><path d="M7.326 7.975a.887.887 0 0 1-.684-.293c-.049-.05-.098-.098-.122-.147-.025-.049-.074-.097-.098-.17a.453.453 0 0 1-.049-.172c-.024-.073-.024-.122-.024-.195 0-.073 0-.122.024-.195 0-.05.025-.122.05-.196.023-.048.048-.122.097-.17a.647.647 0 0 1 .122-.147c.049-.049.098-.098.146-.122.05-.025.122-.073.171-.098a.46.46 0 0 1 .196-.049.97.97 0 0 1 .879.269c.049.049.073.098.122.146.024.05.073.123.097.171a.46.46 0 0 1 .05.196c0 .073.024.122.024.195 0 .073 0 .122-.025.195a.453.453 0 0 1-.049.171c-.024.05-.048.122-.097.171-.049.05-.073.098-.122.147a1.02 1.02 0 0 1-.708.293ZM.976 22.944a.924.924 0 0 1-.683-.293c-.17-.196-.293-.44-.293-.684 0-.244.098-.513.293-.684.049-.049.098-.098.147-.122a.394.394 0 0 1 .17-.098.459.459 0 0 1 .196-.049.97.97 0 0 1 .879.269c.17.195.293.44.293.684a.924.924 0 0 1-.293.684c-.049.048-.098.073-.147.122-.048.024-.122.073-.17.097a.459.459 0 0 1-.196.05c-.073.023-.146.023-.195.023Zm15.14-14.872a.924.924 0 0 1-.684-.293c-.048-.048-.073-.097-.122-.146-.024-.049-.073-.122-.097-.171a.46.46 0 0 1-.05-.195c-.024-.074-.024-.123-.024-.196 0-.073 0-.122.025-.195.024-.073.024-.122.049-.195.024-.05.049-.123.097-.171.05-.05.074-.098.122-.147.05-.049.098-.098.147-.122.049-.024.098-.073.171-.098a.453.453 0 0 1 .17-.048.97.97 0 0 1 .88.268c.195.171.293.44.293.684a.924.924 0 0 1-.293.684c-.049.048-.098.073-.146.122-.05.048-.123.073-.171.097a.46.46 0 0 1-.196.05.222.222 0 0 1-.17.072ZM1.05 14.152c-.073 0-.122 0-.195-.024-.049-.024-.122-.024-.171-.049-.049-.024-.122-.048-.171-.097-.049-.049-.098-.073-.147-.122-.048-.05-.097-.098-.122-.147-.024-.049-.073-.122-.097-.17a.453.453 0 0 1-.05-.172c0-.073-.024-.122-.024-.195 0-.073 0-.122.025-.195.024-.05.024-.122.049-.196.024-.049.049-.122.097-.17a.647.647 0 0 1 .122-.147.645.645 0 0 1 .147-.122c.049-.025.122-.073.17-.098a.453.453 0 0 1 .172-.049 1.05 1.05 0 0 1 .39 0c.05 0 .123.025.196.05.049.024.122.048.17.097a.645.645 0 0 1 .147.122.648.648 0 0 1 .122.146c.025.05.074.122.098.171a.46.46 0 0 1 .049.196c0 .073.024.122.024.195 0 .073 0 .122-.024.195-.024.05-.024.122-.049.171-.024.05-.049.122-.098.171-.024.05-.073.098-.122.147-.048.049-.097.073-.146.122-.049.024-.098.073-.171.098a.46.46 0 0 1-.195.048c-.074.025-.123.025-.196.025Z" fill="#FFC44C"/><path d="M7.326 7.975a.887.887 0 0 1-.684-.293c-.049-.05-.098-.098-.122-.147-.025-.049-.074-.097-.098-.17a.453.453 0 0 1-.049-.172c-.024-.073-.024-.122-.024-.195 0-.073 0-.122.024-.195 0-.05.025-.122.05-.196.023-.048.048-.122.097-.17a.647.647 0 0 1 .122-.147c.049-.049.098-.098.146-.122.05-.025.122-.073.171-.098a.46.46 0 0 1 .196-.049.97.97 0 0 1 .879.269c.049.049.073.098.122.146.024.05.073.123.097.171a.46.46 0 0 1 .05.196c0 .073.024.122.024.195 0 .073 0 .122-.025.195a.453.453 0 0 1-.049.171c-.024.05-.048.122-.097.171-.049.05-.073.098-.122.147a1.02 1.02 0 0 1-.708.293ZM.976 22.944a.924.924 0 0 1-.683-.293c-.17-.196-.293-.44-.293-.684 0-.244.098-.513.293-.684.049-.049.098-.098.147-.122a.394.394 0 0 1 .17-.098.459.459 0 0 1 .196-.049.97.97 0 0 1 .879.269c.17.195.293.44.293.684a.924.924 0 0 1-.293.684c-.049.048-.098.073-.147.122-.048.024-.122.073-.17.097a.459.459 0 0 1-.196.05c-.073.023-.146.023-.195.023Zm15.14-14.872a.924.924 0 0 1-.684-.293c-.048-.048-.073-.097-.122-.146-.024-.049-.073-.122-.097-.171a.46.46 0 0 1-.05-.195c-.024-.074-.024-.123-.024-.196 0-.073 0-.122.025-.195.024-.073.024-.122.049-.195.024-.05.049-.123.097-.171.05-.05.074-.098.122-.147.05-.049.098-.098.147-.122.049-.024.098-.073.171-.098a.453.453 0 0 1 .17-.048.97.97 0 0 1 .88.268c.195.171.293.44.293.684a.924.924 0 0 1-.293.684c-.049.048-.098.073-.146.122-.05.048-.123.073-.171.097a.46.46 0 0 1-.196.05.222.222 0 0 1-.17.072ZM1.05 14.152c-.073 0-.122 0-.195-.024-.049-.024-.122-.024-.171-.049-.049-.024-.122-.048-.171-.097-.049-.049-.098-.073-.147-.122-.048-.05-.097-.098-.122-.147-.024-.049-.073-.122-.097-.17a.453.453 0 0 1-.05-.172c0-.073-.024-.122-.024-.195 0-.073 0-.122.025-.195.024-.05.024-.122.049-.196.024-.049.049-.122.097-.17a.647.647 0 0 1 .122-.147.645.645 0 0 1 .147-.122c.049-.025.122-.073.17-.098a.453.453 0 0 1 .172-.049 1.05 1.05 0 0 1 .39 0c.05 0 .123.025.196.05.049.024.122.048.17.097a.645.645 0 0 1 .147.122.648.648 0 0 1 .122.146c.025.05.074.122.098.171a.46.46 0 0 1 .049.196c0 .073.024.122.024.195 0 .073 0 .122-.024.195-.024.05-.024.122-.049.171-.024.05-.049.122-.098.171-.024.05-.073.098-.122.147-.048.049-.097.073-.146.122-.049.024-.098.073-.171.098a.46.46 0 0 1-.195.048c-.074.025-.123.025-.196.025Z" fill="#FFC44C"/><path d="M8.424 9.855c4.25-1.71 9.084.39 10.818 4.688 1.733 4.298-.293 9.182-4.542 10.891-4.249 1.71-9.084-.39-10.818-4.688-1.709-4.298.318-9.182 4.542-10.891Z" fill="url(#a)"/><path d="M13.479 35.836h-.049a8.105 8.105 0 0 1-7.74-8.448 8.105 8.105 0 0 1 8.448-7.741h.025a9.315 9.315 0 0 1 3.003-6.056c1.856-1.685 4.25-2.564 6.764-2.442a9.372 9.372 0 0 1 8.913 8.254c.366-.025.733-.05 1.099-.025a8.105 8.105 0 0 1 7.74 8.449 7.992 7.992 0 0 1-2.637 5.616c-1.587 1.465-3.662 2.198-5.787 2.125l-19.779.268s.025 0 0 0Zm.318-14.236c-3.273 0-5.983 2.589-6.13 5.885-.146 3.37 2.467 6.251 5.837 6.422l19.754-.293h.049c1.636.074 3.223-.488 4.42-1.611a6.05 6.05 0 0 0 2.002-4.274c.147-3.394-2.49-6.275-5.86-6.422a5.572 5.572 0 0 0-1.685.171.94.94 0 0 1-.83-.195.947.947 0 0 1-.367-.757 7.422 7.422 0 0 0-7.106-7.423 7.436 7.436 0 0 0-7.74 6.886 8.021 8.021 0 0 1 4.761 3.809c.269.464.098 1.074-.366 1.319-.464.268-1.074.097-1.319-.367a6.118 6.118 0 0 0-5.103-3.15h-.318Z" fill="#2F2F2F"/><defs><linearGradient id="a" x1="14.73" y1="25.43" x2="8.438" y2="9.855" gradientUnits="userSpaceOnUse"><stop stop-color="#FFC14C"/><stop offset="1" stop-color="#FFD04D"/></linearGradient></defs></svg>