<svg width="42" height="42" fill="none" xmlns="http://www.w3.org/2000/svg">
  <path d="M41.818 17.465c-1.037 5.185-6.092 8.556-11.278 7.519-5.185-1.037-8.555-6.093-7.518-11.278C24.059 8.521 29.115 5.15 34.3 6.187c.415.078.83.182 1.218.337a6.902 6.902 0 0 0 1.53 9.67 7.236 7.236 0 0 0 4.77 1.271Z" fill="url(#a)"/>
  <path d="M9.463 36.936h-.337C4.407 36.754.7 32.762.88 28.017c.208-4.718 4.226-8.4 8.945-8.192h.026c.492-5.237 5.03-9.23 10.318-8.997a9.874 9.874 0 0 1 9.411 8.711c.39-.026.778-.051 1.141-.026 4.719.208 8.4 4.226 8.193 8.945a8.632 8.632 0 0 1-3.552 6.585c-2.256 1.634-5.056 1.66-7.493 1.66h-.518l-5.99.077c-3.914.078-7.932.13-11.9.156Zm-.026-15.037c-3.448 0-6.326 2.722-6.482 6.196a6.515 6.515 0 0 0 6.275 6.74h.259c3.94-.025 7.959-.077 11.848-.129l5.989-.078h.544c2.256-.026 4.563-.026 6.3-1.27a6.4 6.4 0 0 0 2.697-5.004 6.49 6.49 0 0 0-6.197-6.766 6.002 6.002 0 0 0-1.789.181.999.999 0 0 1-.881-.207 1.006 1.006 0 0 1-.389-.804c0-4.226-3.293-7.674-7.493-7.856-4.303-.181-7.907 3.06-8.218 7.286a8.593 8.593 0 0 1 5.03 4.018c.285.493.103 1.14-.39 1.4-.492.285-1.14.104-1.4-.389A6.484 6.484 0 0 0 9.749 21.9h-.311Z" fill="#2F2F2F"/>
  <path d="M1.037 16.117a.941.941 0 0 1-.726-.311c-.052-.052-.104-.104-.13-.156-.025-.051-.077-.13-.103-.181a.488.488 0 0 1-.052-.207c0-.078-.026-.13-.026-.208 0-.285.104-.544.311-.726.208-.207.467-.31.726-.31.26 0 .544.103.726.31.207.234.311.493.311.752 0 .078 0 .13-.026.207-.026.052-.026.13-.052.208-.026.052-.052.13-.103.181a.685.685 0 0 1-.13.156 1.064 1.064 0 0 1-.726.285Z" fill="#9975FF"/>
  <path d="M5.86 16.973a.98.98 0 0 1-.727-.312 1.09 1.09 0 0 1-.31-.726c0-.077 0-.13.025-.207 0-.078.026-.13.052-.207.026-.052.052-.13.104-.182a.687.687 0 0 1 .13-.155c.207-.208.466-.311.725-.311a.98.98 0 0 1 .726.31.687.687 0 0 1 .13.156.418.418 0 0 1 .103.182c.026.052.052.13.052.207.026.052.026.13.026.207a.941.941 0 0 1-.31.726 1.023 1.023 0 0 1-.727.312Z" fill="#2F2F2F"/>
  <path d="M8.556 11.399a.981.981 0 0 1-.726-.311.942.942 0 0 1-.311-.726c0-.078 0-.13.025-.208 0-.052.026-.13.052-.207.026-.052.052-.13.104-.182a.687.687 0 0 1 .13-.155c.052-.052.103-.078.155-.13.052-.026.104-.078.182-.104a.488.488 0 0 1 .207-.051c.337-.078.7.051.933.285a.687.687 0 0 1 .13.155c.026.052.078.13.104.182.026.052.052.13.052.207 0 .078.026.13.026.208a.942.942 0 0 1-.312.726 1.038 1.038 0 0 1-.751.31Z" fill="#9975FF"/>
  <defs>
    <linearGradient id="a" x1="27.913" y1="7.077" x2="35.406" y2="24.728" gradientUnits="userSpaceOnUse">
      <stop stop-color="#B9A0FF"/>
      <stop offset="1" stop-color="#855AFF"/>
    </linearGradient>
  </defs>
</svg>
