<svg width="42" height="42" viewBox="0 0 42 42" fill="none" xmlns="http://www.w3.org/2000/svg">
<path d="M16.6246 4.29502C16.3124 4.29502 16.0286 4.1815 15.83 3.95448C15.603 3.72745 15.4894 3.44367 15.4894 3.15989C15.4894 3.07475 15.4894 3.018 15.5178 2.93286C15.5462 2.84773 15.5462 2.79097 15.5746 2.70583C15.603 2.64907 15.6313 2.56394 15.6881 2.50719C15.7165 2.45043 15.7732 2.39367 15.83 2.33691C16.0854 2.08151 16.4827 1.93962 16.8516 2.02475C16.9367 2.02475 16.9935 2.05313 17.0786 2.08151C17.1354 2.10989 17.2205 2.13827 17.2773 2.19502C17.334 2.2234 17.3908 2.28016 17.4476 2.33691C17.5043 2.39367 17.5611 2.45043 17.5894 2.50719C17.6178 2.56394 17.6746 2.6207 17.703 2.70583C17.7313 2.79097 17.7597 2.84773 17.7597 2.93286C17.7881 3.018 17.7881 3.07475 17.7881 3.15989C17.7881 3.44367 17.6746 3.75583 17.4476 3.95448C17.2205 4.1815 16.9367 4.29502 16.6246 4.29502ZM1.414 19.5057C1.32886 19.5057 1.27211 19.5057 1.18697 19.4773C1.10184 19.4773 1.04508 19.4489 0.959947 19.4205C0.90319 19.3922 0.818052 19.3638 0.761295 19.307C0.704539 19.2503 0.647788 19.2219 0.591031 19.1651C0.534274 19.1084 0.477517 19.0516 0.449139 18.9949C0.420761 18.9381 0.363998 18.853 0.33562 18.7962C0.307241 18.7395 0.27886 18.6543 0.27886 18.5692C0.250481 18.5124 0.250488 18.4273 0.250488 18.3422C0.250488 18.257 0.250481 18.2003 0.27886 18.1151C0.27886 18.0584 0.307241 17.9733 0.33562 17.8881C0.363998 17.8314 0.392382 17.7462 0.449139 17.6895C0.477517 17.6327 0.534274 17.576 0.591031 17.5192C0.647788 17.4624 0.704539 17.4057 0.761295 17.3773C0.818052 17.3205 0.90319 17.2922 0.959947 17.2638C1.0167 17.2354 1.10184 17.207 1.18697 17.207C1.32886 17.1787 1.49914 17.1787 1.64104 17.207C1.72617 17.207 1.78292 17.2354 1.86806 17.2638C1.92481 17.2922 2.00996 17.3205 2.06671 17.3773C2.12347 17.4057 2.18022 17.4624 2.23697 17.5192C2.29373 17.576 2.32211 17.6327 2.37887 17.6895C2.40724 17.7462 2.46401 17.8314 2.49239 17.8881C2.52077 17.9449 2.54913 18.03 2.54913 18.1151C2.54913 18.2003 2.57752 18.257 2.57752 18.3422C2.57752 18.4273 2.57751 18.4841 2.54913 18.5692C2.52075 18.6543 2.52077 18.7111 2.49239 18.7962C2.46401 18.853 2.43562 18.9381 2.37887 18.9949C2.32211 19.0516 2.29373 19.1084 2.23697 19.1651C2.00995 19.3638 1.72616 19.5057 1.414 19.5057ZM27.3802 8.75033C27.2951 8.75033 27.2383 8.75033 27.1532 8.72196C27.0964 8.69358 27.0113 8.69358 26.9262 8.6652C26.8694 8.63682 26.7843 8.60844 26.7275 8.55169C26.6708 8.52331 26.614 8.46655 26.5572 8.40979C26.5005 8.35304 26.4721 8.29628 26.4154 8.23952C26.387 8.18277 26.3302 8.12601 26.3018 8.04087C26.2735 7.98412 26.2451 7.89898 26.2451 7.84223C26.2451 7.75709 26.2167 7.70033 26.2167 7.6152C26.2167 7.53006 26.2167 7.47331 26.2451 7.38817C26.2451 7.33142 26.2735 7.24628 26.3018 7.16115C26.3302 7.10439 26.3586 7.01925 26.4154 6.9625C26.4437 6.90574 26.5005 6.84898 26.5572 6.79223C26.614 6.73547 26.6708 6.67871 26.7275 6.65033C26.7843 6.59358 26.841 6.5652 26.9262 6.53682C26.9829 6.50844 27.0681 6.48006 27.1532 6.48006C27.2951 6.45169 27.437 6.45169 27.6072 6.48006C27.664 6.48006 27.7491 6.50844 27.8059 6.53682C27.8626 6.5652 27.9478 6.59358 28.0045 6.65033C28.0613 6.67871 28.1181 6.73547 28.1748 6.79223C28.2316 6.84898 28.2883 6.90574 28.3167 6.9625C28.3451 7.01925 28.4019 7.10439 28.4303 7.16115C28.4587 7.2179 28.487 7.30304 28.487 7.38817C28.487 7.47331 28.5154 7.53006 28.5154 7.6152C28.5154 7.70033 28.5154 7.75709 28.487 7.84223C28.4587 7.89898 28.4587 7.98412 28.4303 8.04087C28.4019 8.09763 28.3735 8.18277 28.3167 8.23952C28.2883 8.29628 28.2316 8.35304 28.1748 8.40979C27.9762 8.63682 27.664 8.75033 27.3802 8.75033ZM5.86918 30.2611C5.78404 30.2611 5.72728 30.2611 5.64215 30.2328C5.55701 30.2328 5.50026 30.2044 5.41512 30.176C5.35837 30.1476 5.27323 30.1193 5.21647 30.0625C5.15972 30.0057 5.10296 29.9774 5.0462 29.9206C4.81918 29.722 4.70566 29.4098 4.70566 29.126C4.70566 28.8422 4.81918 28.5301 5.0462 28.3314C5.24485 28.1044 5.55701 27.9909 5.8408 27.9909C6.15296 27.9909 6.43674 28.1044 6.63539 28.3314C6.83404 28.5301 6.97593 28.8422 6.97593 29.126C6.97593 29.4098 6.86242 29.722 6.63539 29.9206C6.57864 29.9774 6.52188 30.0057 6.46512 30.0625C6.40837 30.0909 6.32323 30.1476 6.26647 30.176C6.20972 30.2044 6.12458 30.2328 6.03945 30.2328C6.01107 30.2328 5.95431 30.2611 5.86918 30.2611ZM5.86963 8.75033C5.7845 8.75033 5.72774 8.75033 5.6426 8.72196C5.58585 8.69358 5.50071 8.69358 5.44395 8.6652C5.3872 8.63682 5.30206 8.60844 5.24531 8.55169C5.18855 8.52331 5.13179 8.46655 5.07504 8.40979C5.01828 8.35304 4.9899 8.29628 4.93314 8.23952C4.90477 8.18277 4.84801 8.12601 4.81963 8.04087C4.79125 7.98412 4.76287 7.89898 4.76287 7.84223C4.7345 7.75709 4.7345 7.70033 4.7345 7.6152C4.7345 7.53006 4.7345 7.47331 4.76287 7.38817C4.79125 7.33142 4.79125 7.24628 4.81963 7.16115C4.84801 7.10439 4.87639 7.01925 4.93314 6.9625C4.9899 6.90574 5.01828 6.84898 5.07504 6.79223C5.13179 6.73547 5.18855 6.67871 5.24531 6.65033C5.30206 6.59358 5.35882 6.5652 5.44395 6.53682C5.50071 6.50844 5.58585 6.48006 5.6426 6.48006C5.7845 6.45169 5.95477 6.45169 6.09666 6.48006C6.15341 6.48006 6.23855 6.50844 6.32368 6.53682C6.38044 6.5652 6.46558 6.59358 6.52233 6.65033C6.57909 6.67871 6.63585 6.73547 6.6926 6.79223C6.74936 6.84898 6.80612 6.90574 6.8345 6.9625C6.86287 7.01925 6.91963 7.10439 6.94801 7.16115C6.97639 7.2179 7.00477 7.30304 7.00477 7.38817C7.03314 7.47331 7.03314 7.53006 7.03314 7.6152C7.03314 7.70033 7.03314 7.75709 7.00477 7.84223C7.00477 7.89898 6.97639 7.98412 6.94801 8.04087C6.91963 8.09763 6.89125 8.18277 6.8345 8.23952C6.80612 8.29628 6.74936 8.35304 6.6926 8.40979C6.63585 8.46655 6.57909 8.52331 6.52233 8.55169C6.46558 8.58006 6.38044 8.63682 6.32368 8.6652C6.26693 8.69358 6.18179 8.72196 6.09666 8.72196C6.01152 8.75033 5.95477 8.75033 5.86963 8.75033Z" fill="#FFC44C"/>
<path d="M16.6246 4.29502C16.3124 4.29502 16.0286 4.1815 15.83 3.95448C15.603 3.72745 15.4894 3.44367 15.4894 3.15989C15.4894 3.07475 15.4894 3.018 15.5178 2.93286C15.5462 2.84773 15.5462 2.79097 15.5746 2.70583C15.603 2.64907 15.6313 2.56394 15.6881 2.50719C15.7165 2.45043 15.7732 2.39367 15.83 2.33691C16.0854 2.08151 16.4827 1.93962 16.8516 2.02475C16.9367 2.02475 16.9935 2.05313 17.0786 2.08151C17.1354 2.10989 17.2205 2.13827 17.2773 2.19502C17.334 2.2234 17.3908 2.28016 17.4476 2.33691C17.5043 2.39367 17.5611 2.45043 17.5894 2.50719C17.6178 2.56394 17.6746 2.6207 17.703 2.70583C17.7313 2.79097 17.7597 2.84773 17.7597 2.93286C17.7881 3.018 17.7881 3.07475 17.7881 3.15989C17.7881 3.44367 17.6746 3.75583 17.4476 3.95448C17.2205 4.1815 16.9367 4.29502 16.6246 4.29502ZM1.414 19.5057C1.32886 19.5057 1.27211 19.5057 1.18697 19.4773C1.10184 19.4773 1.04508 19.4489 0.959947 19.4205C0.90319 19.3922 0.818052 19.3638 0.761295 19.307C0.704539 19.2503 0.647788 19.2219 0.591031 19.1651C0.534274 19.1084 0.477517 19.0516 0.449139 18.9949C0.420761 18.9381 0.363998 18.853 0.33562 18.7962C0.307241 18.7395 0.27886 18.6543 0.27886 18.5692C0.250481 18.5124 0.250488 18.4273 0.250488 18.3422C0.250488 18.257 0.250481 18.2003 0.27886 18.1151C0.27886 18.0584 0.307241 17.9733 0.33562 17.8881C0.363998 17.8314 0.392382 17.7462 0.449139 17.6895C0.477517 17.6327 0.534274 17.576 0.591031 17.5192C0.647788 17.4624 0.704539 17.4057 0.761295 17.3773C0.818052 17.3205 0.90319 17.2922 0.959947 17.2638C1.0167 17.2354 1.10184 17.207 1.18697 17.207C1.32886 17.1787 1.49914 17.1787 1.64104 17.207C1.72617 17.207 1.78292 17.2354 1.86806 17.2638C1.92481 17.2922 2.00996 17.3205 2.06671 17.3773C2.12347 17.4057 2.18022 17.4624 2.23697 17.5192C2.29373 17.576 2.32211 17.6327 2.37887 17.6895C2.40724 17.7462 2.46401 17.8314 2.49239 17.8881C2.52077 17.9449 2.54913 18.03 2.54913 18.1151C2.54913 18.2003 2.57752 18.257 2.57752 18.3422C2.57752 18.4273 2.57751 18.4841 2.54913 18.5692C2.52075 18.6543 2.52077 18.7111 2.49239 18.7962C2.46401 18.853 2.43562 18.9381 2.37887 18.9949C2.32211 19.0516 2.29373 19.1084 2.23697 19.1651C2.00995 19.3638 1.72616 19.5057 1.414 19.5057ZM27.3802 8.75033C27.2951 8.75033 27.2383 8.75033 27.1532 8.72196C27.0964 8.69358 27.0113 8.69358 26.9262 8.6652C26.8694 8.63682 26.7843 8.60844 26.7275 8.55169C26.6708 8.52331 26.614 8.46655 26.5572 8.40979C26.5005 8.35304 26.4721 8.29628 26.4154 8.23952C26.387 8.18277 26.3302 8.12601 26.3018 8.04087C26.2735 7.98412 26.2451 7.89898 26.2451 7.84223C26.2451 7.75709 26.2167 7.70033 26.2167 7.6152C26.2167 7.53006 26.2167 7.47331 26.2451 7.38817C26.2451 7.33142 26.2735 7.24628 26.3018 7.16115C26.3302 7.10439 26.3586 7.01925 26.4154 6.9625C26.4437 6.90574 26.5005 6.84898 26.5572 6.79223C26.614 6.73547 26.6708 6.67871 26.7275 6.65033C26.7843 6.59358 26.841 6.5652 26.9262 6.53682C26.9829 6.50844 27.0681 6.48006 27.1532 6.48006C27.2951 6.45169 27.437 6.45169 27.6072 6.48006C27.664 6.48006 27.7491 6.50844 27.8059 6.53682C27.8626 6.5652 27.9478 6.59358 28.0045 6.65033C28.0613 6.67871 28.1181 6.73547 28.1748 6.79223C28.2316 6.84898 28.2883 6.90574 28.3167 6.9625C28.3451 7.01925 28.4019 7.10439 28.4303 7.16115C28.4587 7.2179 28.487 7.30304 28.487 7.38817C28.487 7.47331 28.5154 7.53006 28.5154 7.6152C28.5154 7.70033 28.5154 7.75709 28.487 7.84223C28.4587 7.89898 28.4587 7.98412 28.4303 8.04087C28.4019 8.09763 28.3735 8.18277 28.3167 8.23952C28.2883 8.29628 28.2316 8.35304 28.1748 8.40979C27.9762 8.63682 27.664 8.75033 27.3802 8.75033ZM5.86918 30.2611C5.78404 30.2611 5.72728 30.2611 5.64215 30.2328C5.55701 30.2328 5.50026 30.2044 5.41512 30.176C5.35837 30.1476 5.27323 30.1193 5.21647 30.0625C5.15972 30.0057 5.10296 29.9774 5.0462 29.9206C4.81918 29.722 4.70566 29.4098 4.70566 29.126C4.70566 28.8422 4.81918 28.5301 5.0462 28.3314C5.24485 28.1044 5.55701 27.9909 5.8408 27.9909C6.15296 27.9909 6.43674 28.1044 6.63539 28.3314C6.83404 28.5301 6.97593 28.8422 6.97593 29.126C6.97593 29.4098 6.86242 29.722 6.63539 29.9206C6.57864 29.9774 6.52188 30.0057 6.46512 30.0625C6.40837 30.0909 6.32323 30.1476 6.26647 30.176C6.20972 30.2044 6.12458 30.2328 6.03945 30.2328C6.01107 30.2328 5.95431 30.2611 5.86918 30.2611ZM5.86963 8.75033C5.7845 8.75033 5.72774 8.75033 5.6426 8.72196C5.58585 8.69358 5.50071 8.69358 5.44395 8.6652C5.3872 8.63682 5.30206 8.60844 5.24531 8.55169C5.18855 8.52331 5.13179 8.46655 5.07504 8.40979C5.01828 8.35304 4.9899 8.29628 4.93314 8.23952C4.90477 8.18277 4.84801 8.12601 4.81963 8.04087C4.79125 7.98412 4.76287 7.89898 4.76287 7.84223C4.7345 7.75709 4.7345 7.70033 4.7345 7.6152C4.7345 7.53006 4.7345 7.47331 4.76287 7.38817C4.79125 7.33142 4.79125 7.24628 4.81963 7.16115C4.84801 7.10439 4.87639 7.01925 4.93314 6.9625C4.9899 6.90574 5.01828 6.84898 5.07504 6.79223C5.13179 6.73547 5.18855 6.67871 5.24531 6.65033C5.30206 6.59358 5.35882 6.5652 5.44395 6.53682C5.50071 6.50844 5.58585 6.48006 5.6426 6.48006C5.7845 6.45169 5.95477 6.45169 6.09666 6.48006C6.15341 6.48006 6.23855 6.50844 6.32368 6.53682C6.38044 6.5652 6.46558 6.59358 6.52233 6.65033C6.57909 6.67871 6.63585 6.73547 6.6926 6.79223C6.74936 6.84898 6.80612 6.90574 6.8345 6.9625C6.86287 7.01925 6.91963 7.10439 6.94801 7.16115C6.97639 7.2179 7.00477 7.30304 7.00477 7.38817C7.03314 7.47331 7.03314 7.53006 7.03314 7.6152C7.03314 7.70033 7.03314 7.75709 7.00477 7.84223C7.00477 7.89898 6.97639 7.98412 6.94801 8.04087C6.91963 8.09763 6.89125 8.18277 6.8345 8.23952C6.80612 8.29628 6.74936 8.35304 6.6926 8.40979C6.63585 8.46655 6.57909 8.52331 6.52233 8.55169C6.46558 8.58006 6.38044 8.63682 6.32368 8.6652C6.26693 8.69358 6.18179 8.72196 6.09666 8.72196C6.01152 8.75033 5.95477 8.75033 5.86963 8.75033Z" fill="#FFC44C"/>
<path d="M16.5681 29.4382C22.6178 29.4382 27.5221 24.4577 27.5221 18.3139C27.5221 12.1701 22.6178 7.18958 16.5681 7.18958C10.5183 7.18958 5.61401 12.1701 5.61401 18.3139C5.61401 24.4577 10.5183 29.4382 16.5681 29.4382Z" fill="url(#paint0_linear_14_2889)"/>
<path d="M36.1821 22.6275H29.4281C28.8038 22.6275 28.293 22.1167 28.293 21.4924C28.293 20.8681 28.8038 20.3573 29.4281 20.3573H36.1821C38.0551 20.3573 39.5876 18.8248 39.5876 16.9519C39.5876 15.0789 38.0551 13.5465 36.1821 13.5465C34.7065 13.5465 33.5146 14.7383 33.5146 16.214C33.5146 16.8383 33.0038 17.3492 32.3794 17.3492C31.7551 17.3492 31.2443 16.8383 31.2443 16.214C31.2443 13.4897 33.4578 11.2762 36.1821 11.2762C39.3038 11.2762 41.8578 13.8302 41.8578 16.9519C41.8578 20.1019 39.3038 22.6275 36.1821 22.6275ZM28.3779 26.9408H17.8495C17.2252 26.9408 16.7144 26.43 16.7144 25.8057C16.7144 25.1814 17.2252 24.6706 17.8495 24.6706H28.3779C29.0024 24.6706 29.5132 25.1814 29.5132 25.8057C29.5132 26.43 29.0024 26.9408 28.3779 26.9408ZM30.9605 40.3641C30.6484 40.3641 30.3078 40.3358 29.9957 40.2506C28.8321 39.9385 27.8388 39.0871 27.3848 37.9804C27.1577 37.4128 27.4131 36.7314 28.0091 36.5044C28.5767 36.249 29.2578 36.5331 29.4848 37.129C29.6835 37.5831 30.0808 37.952 30.5632 38.0939C31.3578 38.2925 32.1524 37.8666 32.4362 37.072C32.72 36.249 32.2943 35.3125 31.8403 34.7449C31.074 33.7801 29.4281 33.1844 27.0158 32.9858C21.7658 32.5317 16.4023 33.3544 11.7767 34.1774C11.1523 34.2909 10.5847 33.8652 10.4712 33.2409C10.3577 32.6166 10.7834 32.049 11.4077 31.9355C16.1753 31.1125 21.7091 30.2614 27.2429 30.7439C30.3078 30.9993 32.4646 31.8787 33.6565 33.3544C34.7348 34.7166 35.1038 36.4195 34.593 37.8385C34.0254 39.3709 32.5497 40.3641 30.9605 40.3641ZM40.7227 30.091H34.5927C33.9684 30.091 33.4575 29.5802 33.4575 28.9559C33.4575 28.3315 33.9684 27.8207 34.5927 27.8207H40.7227C41.347 27.8207 41.8578 28.3315 41.8578 28.9559C41.8578 29.5802 41.347 30.091 40.7227 30.091Z" fill="#2F2F2F"/>
<defs>
<linearGradient id="paint0_linear_14_2889" x1="16.5774" y1="29.426" x2="16.5774" y2="7.20314" gradientUnits="userSpaceOnUse">
<stop stop-color="#FFC14C"/>
<stop offset="1" stop-color="#FFD04D"/>
</linearGradient>
</defs>
</svg>
