<svg width="42" height="42" viewBox="0 0 42 42" fill="none" xmlns="http://www.w3.org/2000/svg">
<path d="M7.32559 7.97479C7.05698 7.97479 6.81277 7.87711 6.64184 7.68176C6.59301 7.63292 6.54417 7.58408 6.51975 7.53525C6.49533 7.48641 6.44649 7.43758 6.42208 7.36432C6.39766 7.31548 6.37324 7.24223 6.37324 7.19339C6.34882 7.12013 6.34884 7.0713 6.34884 6.99804C6.34884 6.92479 6.34882 6.87594 6.37324 6.80269C6.37324 6.75385 6.39766 6.6806 6.42208 6.60734C6.44649 6.5585 6.47091 6.48525 6.51975 6.43641C6.54417 6.38757 6.59301 6.33873 6.64184 6.2899C6.69068 6.24106 6.73952 6.19222 6.78836 6.1678C6.83719 6.14339 6.91047 6.09455 6.95931 6.07013C7.00815 6.04571 7.08138 6.0213 7.15463 6.0213C7.47208 5.94804 7.81396 6.07013 8.03373 6.2899C8.08257 6.33873 8.10698 6.38757 8.15582 6.43641C8.18024 6.48525 8.22905 6.5585 8.25347 6.60734C8.27789 6.65618 8.30233 6.72943 8.30233 6.80269C8.30233 6.87594 8.32673 6.92479 8.32673 6.99804C8.32673 7.0713 8.32675 7.12013 8.30233 7.19339C8.30233 7.24223 8.27789 7.31548 8.25347 7.36432C8.22905 7.41316 8.20466 7.48641 8.15582 7.53525C8.10698 7.58408 8.08257 7.63292 8.03373 7.68176C7.83838 7.87711 7.56977 7.97479 7.32559 7.97479ZM0.976744 22.9435C0.732558 22.9435 0.463941 22.8458 0.293011 22.6505C0.122081 22.4551 0 22.2109 0 21.9667C0 21.7226 0.0976624 21.454 0.293011 21.283C0.341848 21.2342 0.390681 21.1853 0.439518 21.1609C0.488355 21.1121 0.53721 21.0877 0.610465 21.0633C0.659303 21.0388 0.732541 21.0144 0.805797 21.0144C1.12324 20.9412 1.46512 21.0633 1.68489 21.283C1.85582 21.4784 1.9779 21.7226 1.9779 21.9667C1.9779 22.2109 1.88024 22.4795 1.68489 22.6505C1.63605 22.6993 1.58719 22.7237 1.53836 22.7726C1.48952 22.797 1.41627 22.8458 1.36743 22.8702C1.3186 22.8947 1.24533 22.9191 1.17208 22.9191C1.09882 22.9435 1.02558 22.9435 0.976744 22.9435ZM16.1163 8.07241C15.8721 8.07241 15.6035 7.97474 15.4325 7.77939C15.3837 7.73055 15.3593 7.68171 15.3104 7.63287C15.286 7.58404 15.2372 7.51079 15.2128 7.46195C15.1884 7.41311 15.1639 7.33985 15.1639 7.2666C15.1395 7.19334 15.1395 7.1445 15.1395 7.07125C15.1395 6.99799 15.1395 6.94916 15.1639 6.8759C15.1884 6.80265 15.1884 6.75381 15.2128 6.68055C15.2372 6.63171 15.2616 6.55846 15.3104 6.50962C15.3593 6.46079 15.3837 6.41195 15.4325 6.36311C15.4814 6.31427 15.5302 6.26544 15.5791 6.24102C15.6279 6.2166 15.6768 6.16776 15.75 6.14334C15.7988 6.11893 15.8721 6.0945 15.9209 6.0945C16.2384 6.02125 16.5802 6.14334 16.8 6.36311C16.9953 6.53404 17.093 6.80264 17.093 7.04683C17.093 7.29102 16.9953 7.55962 16.8 7.73055C16.7511 7.77939 16.7023 7.80381 16.6535 7.85265C16.6046 7.90148 16.5314 7.9259 16.4826 7.95032C16.4337 7.97474 16.3604 7.99915 16.2872 7.99915C16.2384 8.04799 16.1895 8.07241 16.1163 8.07241ZM1.05019 14.1528C0.976935 14.1528 0.928115 14.1528 0.854859 14.1283C0.806022 14.1039 0.732749 14.1039 0.683912 14.0795C0.635074 14.0551 0.561831 14.0307 0.512994 13.9818C0.464156 13.933 0.415324 13.9086 0.366487 13.8597C0.31765 13.8109 0.268812 13.7621 0.244394 13.7132C0.219975 13.6644 0.171133 13.5911 0.146715 13.5423C0.122296 13.4935 0.0978896 13.4202 0.0978896 13.3714C0.0978896 13.2981 0.0734465 13.2493 0.0734465 13.176C0.0734465 13.1028 0.073471 13.0539 0.0978896 12.9807C0.122308 12.9318 0.122296 12.8586 0.146715 12.7853C0.171133 12.7365 0.195557 12.6632 0.244394 12.6144C0.268812 12.5656 0.31765 12.5167 0.366487 12.4679C0.415324 12.419 0.464156 12.3702 0.512994 12.3458C0.561831 12.3214 0.635074 12.2725 0.683912 12.2481C0.732749 12.2237 0.806022 12.1993 0.854859 12.1993C0.976952 12.1749 1.09904 12.1749 1.24555 12.1993C1.29439 12.1993 1.36766 12.2237 1.44091 12.2481C1.48975 12.2725 1.56299 12.297 1.61183 12.3458C1.66067 12.3702 1.7095 12.419 1.75834 12.4679C1.80717 12.5167 1.85601 12.5656 1.88043 12.6144C1.90485 12.6632 1.95369 12.7365 1.97811 12.7853C2.00253 12.8342 2.02693 12.9074 2.02693 12.9807C2.02693 13.0539 2.05138 13.1028 2.05138 13.176C2.05138 13.2493 2.05135 13.2981 2.02693 13.3714C2.00252 13.4202 2.00253 13.4935 1.97811 13.5423C1.95369 13.5911 1.92927 13.6644 1.88043 13.7132C1.85601 13.7621 1.80717 13.8109 1.75834 13.8597C1.7095 13.9086 1.66067 13.933 1.61183 13.9818C1.56299 14.0063 1.51417 14.0551 1.44091 14.0795C1.39208 14.1039 1.31881 14.1283 1.24555 14.1283C1.1723 14.1528 1.12345 14.1528 1.05019 14.1528Z" fill="#FFC44C"/>
<path d="M7.32559 7.97479C7.05698 7.97479 6.81277 7.87711 6.64184 7.68176C6.59301 7.63292 6.54417 7.58408 6.51975 7.53525C6.49533 7.48641 6.44649 7.43758 6.42208 7.36432C6.39766 7.31548 6.37324 7.24223 6.37324 7.19339C6.34882 7.12013 6.34884 7.0713 6.34884 6.99804C6.34884 6.92479 6.34882 6.87594 6.37324 6.80269C6.37324 6.75385 6.39766 6.6806 6.42208 6.60734C6.44649 6.5585 6.47091 6.48525 6.51975 6.43641C6.54417 6.38757 6.59301 6.33873 6.64184 6.2899C6.69068 6.24106 6.73952 6.19222 6.78836 6.1678C6.83719 6.14339 6.91047 6.09455 6.95931 6.07013C7.00815 6.04571 7.08138 6.0213 7.15463 6.0213C7.47208 5.94804 7.81396 6.07013 8.03373 6.2899C8.08257 6.33873 8.10698 6.38757 8.15582 6.43641C8.18024 6.48525 8.22905 6.5585 8.25347 6.60734C8.27789 6.65618 8.30233 6.72943 8.30233 6.80269C8.30233 6.87594 8.32673 6.92479 8.32673 6.99804C8.32673 7.0713 8.32675 7.12013 8.30233 7.19339C8.30233 7.24223 8.27789 7.31548 8.25347 7.36432C8.22905 7.41316 8.20466 7.48641 8.15582 7.53525C8.10698 7.58408 8.08257 7.63292 8.03373 7.68176C7.83838 7.87711 7.56977 7.97479 7.32559 7.97479ZM0.976744 22.9435C0.732558 22.9435 0.463941 22.8458 0.293011 22.6505C0.122081 22.4551 0 22.2109 0 21.9667C0 21.7226 0.0976624 21.454 0.293011 21.283C0.341848 21.2342 0.390681 21.1853 0.439518 21.1609C0.488355 21.1121 0.53721 21.0877 0.610465 21.0633C0.659303 21.0388 0.732541 21.0144 0.805797 21.0144C1.12324 20.9412 1.46512 21.0633 1.68489 21.283C1.85582 21.4784 1.9779 21.7226 1.9779 21.9667C1.9779 22.2109 1.88024 22.4795 1.68489 22.6505C1.63605 22.6993 1.58719 22.7237 1.53836 22.7726C1.48952 22.797 1.41627 22.8458 1.36743 22.8702C1.3186 22.8947 1.24533 22.9191 1.17208 22.9191C1.09882 22.9435 1.02558 22.9435 0.976744 22.9435ZM16.1163 8.07241C15.8721 8.07241 15.6035 7.97474 15.4325 7.77939C15.3837 7.73055 15.3593 7.68171 15.3104 7.63287C15.286 7.58404 15.2372 7.51079 15.2128 7.46195C15.1884 7.41311 15.1639 7.33985 15.1639 7.2666C15.1395 7.19334 15.1395 7.1445 15.1395 7.07125C15.1395 6.99799 15.1395 6.94916 15.1639 6.8759C15.1884 6.80265 15.1884 6.75381 15.2128 6.68055C15.2372 6.63171 15.2616 6.55846 15.3104 6.50962C15.3593 6.46079 15.3837 6.41195 15.4325 6.36311C15.4814 6.31427 15.5302 6.26544 15.5791 6.24102C15.6279 6.2166 15.6768 6.16776 15.75 6.14334C15.7988 6.11893 15.8721 6.0945 15.9209 6.0945C16.2384 6.02125 16.5802 6.14334 16.8 6.36311C16.9953 6.53404 17.093 6.80264 17.093 7.04683C17.093 7.29102 16.9953 7.55962 16.8 7.73055C16.7511 7.77939 16.7023 7.80381 16.6535 7.85265C16.6046 7.90148 16.5314 7.9259 16.4826 7.95032C16.4337 7.97474 16.3604 7.99915 16.2872 7.99915C16.2384 8.04799 16.1895 8.07241 16.1163 8.07241ZM1.05019 14.1528C0.976935 14.1528 0.928115 14.1528 0.854859 14.1283C0.806022 14.1039 0.732749 14.1039 0.683912 14.0795C0.635074 14.0551 0.561831 14.0307 0.512994 13.9818C0.464156 13.933 0.415324 13.9086 0.366487 13.8597C0.31765 13.8109 0.268812 13.7621 0.244394 13.7132C0.219975 13.6644 0.171133 13.5911 0.146715 13.5423C0.122296 13.4935 0.0978896 13.4202 0.0978896 13.3714C0.0978896 13.2981 0.0734465 13.2493 0.0734465 13.176C0.0734465 13.1028 0.073471 13.0539 0.0978896 12.9807C0.122308 12.9318 0.122296 12.8586 0.146715 12.7853C0.171133 12.7365 0.195557 12.6632 0.244394 12.6144C0.268812 12.5656 0.31765 12.5167 0.366487 12.4679C0.415324 12.419 0.464156 12.3702 0.512994 12.3458C0.561831 12.3214 0.635074 12.2725 0.683912 12.2481C0.732749 12.2237 0.806022 12.1993 0.854859 12.1993C0.976952 12.1749 1.09904 12.1749 1.24555 12.1993C1.29439 12.1993 1.36766 12.2237 1.44091 12.2481C1.48975 12.2725 1.56299 12.297 1.61183 12.3458C1.66067 12.3702 1.7095 12.419 1.75834 12.4679C1.80717 12.5167 1.85601 12.5656 1.88043 12.6144C1.90485 12.6632 1.95369 12.7365 1.97811 12.7853C2.00253 12.8342 2.02693 12.9074 2.02693 12.9807C2.02693 13.0539 2.05138 13.1028 2.05138 13.176C2.05138 13.2493 2.05135 13.2981 2.02693 13.3714C2.00252 13.4202 2.00253 13.4935 1.97811 13.5423C1.95369 13.5911 1.92927 13.6644 1.88043 13.7132C1.85601 13.7621 1.80717 13.8109 1.75834 13.8597C1.7095 13.9086 1.66067 13.933 1.61183 13.9818C1.56299 14.0063 1.51417 14.0551 1.44091 14.0795C1.39208 14.1039 1.31881 14.1283 1.24555 14.1283C1.1723 14.1528 1.12345 14.1528 1.05019 14.1528Z" fill="#FFC44C"/>
<path d="M8.42422 9.85488C12.6731 8.14559 17.5079 10.2456 19.2417 14.5433C20.9754 18.841 18.9486 23.7247 14.6998 25.434C10.451 27.1433 5.61611 25.0433 3.88239 20.7456C2.17308 16.4479 4.19981 11.5642 8.42422 9.85488Z" fill="url(#paint0_linear_14_2899)"/>
<path d="M13.479 35.8364C13.4546 35.8364 13.4546 35.8364 13.4302 35.8364C8.9616 35.641 5.49416 31.8561 5.68951 27.3875C5.88485 22.9189 9.66976 19.4514 14.1384 19.6468C14.1384 19.6468 14.1383 19.6468 14.1628 19.6468C14.3825 17.3026 15.4325 15.1782 17.1662 13.591C19.0221 11.9061 21.4151 11.027 23.9302 11.1491C28.5698 11.3444 32.3058 14.8851 32.843 19.4026C33.2093 19.3782 33.5756 19.3537 33.9419 19.3782C38.4105 19.5735 41.8779 23.3584 41.6826 27.827C41.5849 30.0003 40.657 31.9782 39.0454 33.4434C37.4582 34.9085 35.3826 35.641 33.2582 35.5678L13.479 35.8364C13.479 35.8364 13.5035 35.8364 13.479 35.8364ZM13.7965 21.6003C10.5244 21.6003 7.81395 24.1886 7.66744 27.4851C7.52093 30.855 10.1337 33.7364 13.5035 33.9073L33.2582 33.6143C33.2826 33.6143 33.307 33.6143 33.307 33.6143C34.943 33.6875 36.5303 33.1259 37.7268 32.0027C38.9477 30.9038 39.6558 29.3898 39.7291 27.7293C39.8756 24.3351 37.2384 21.4537 33.8686 21.3072C33.307 21.2828 32.7209 21.3316 32.1837 21.4782C31.8907 21.5514 31.5977 21.4782 31.3535 21.2828C31.1093 21.0875 30.9872 20.8189 30.9872 20.5258C30.9872 16.5456 27.8616 13.2735 23.8814 13.1026C19.8523 12.9316 16.4337 15.984 16.1407 19.9886C18.143 20.5747 19.8523 21.9177 20.9023 23.7979C21.1709 24.2619 21 24.8723 20.536 25.1165C20.0721 25.3851 19.4616 25.2142 19.2174 24.7503C18.1674 22.87 16.2628 21.6979 14.1139 21.6003C13.9918 21.6003 13.8942 21.6003 13.7965 21.6003Z" fill="#2F2F2F"/>
<defs>
<linearGradient id="paint0_linear_14_2899" x1="14.7303" y1="25.4302" x2="8.43761" y2="9.85549" gradientUnits="userSpaceOnUse">
<stop stop-color="#FFC14C"/>
<stop offset="1" stop-color="#FFD04D"/>
</linearGradient>
</defs>
</svg>
