<svg width="246" height="246" viewBox="0 0 246 246" fill="none" xmlns="http://www.w3.org/2000/svg">
<rect width="246" height="246" rx="42.1714" fill="url(#paint0_linear_14_3698)"/>
<g clip-path="url(#clip0_14_3698)">
<path d="M151.694 144.937C155.461 144.937 159.179 144.495 162.784 143.632V109.91H119.237V132.099C128.064 140.388 139.529 144.937 151.694 144.937ZM137.375 117.667H144.647V133.989H137.375V117.667Z" fill="white"/>
<path d="M164.912 102.639C166.21 99.8787 167.123 96.0279 166.103 91.1778C165.093 86.3719 161.791 81.5689 156.554 77.2888C153.075 74.4451 148.845 71.9329 144.648 70.1851V60.9452H137.376V70.1851C133.179 71.9329 128.948 74.4451 125.47 77.2888C120.233 81.5692 116.931 86.3719 115.921 91.1778C114.901 96.0279 115.814 99.8789 117.112 102.639H164.912Z" fill="white"/>
<path d="M98.6174 162.157C99.8772 158.555 99.4433 154.608 97.9959 151.101C93.3427 149.183 88.0665 149.472 83.6065 151.848C80.5723 153.465 74.9924 159.291 74.9924 159.291C79.0437 165.079 84.0848 170.122 89.871 174.176C89.871 174.176 96.571 168.009 98.6174 162.157Z" fill="white"/>
<path d="M66.8167 131.081L64.5427 131.834C65.4231 139.359 67.6883 146.46 71.0774 152.876C71.0774 152.876 74.1702 150.237 74.4381 149.992C79.4881 145.253 81.0456 137.917 78.3835 131.485C74.7013 129.966 70.6389 129.816 66.8167 131.081Z" fill="white"/>
<path d="M118.016 182.28C119.281 178.457 119.132 174.395 117.612 170.713C111.147 168.037 103.769 169.627 99.036 174.742C98.821 174.987 96.1614 178.028 96.1614 178.028C102.585 181.443 109.698 183.731 117.239 184.627L118.016 182.28Z" fill="white"/>
<path d="M151.697 152.211C121.472 152.211 96.9693 127.709 96.9693 97.4841C96.9693 86.3315 100.308 75.9603 106.037 67.3096C81.86 75.0437 64.3194 97.6116 64.1279 124.31C70.1795 122.307 77.7838 122.234 83.833 126.031C86.7527 131.567 87.7628 137.788 86.3295 143.138C91.6711 141.944 97.7821 142.354 103.448 145.646C106.63 151.282 107.165 157.361 105.957 162.765C110.952 161.302 118.063 162.191 123.063 165.261C126.79 172.291 126.758 179.002 124.755 185.054C151.501 184.912 174.115 167.358 181.861 143.15C173.212 148.875 162.845 152.211 151.697 152.211Z" fill="white"/>
</g>
<defs>
<linearGradient id="paint0_linear_14_3698" x1="30.75" y1="-2.54561e-06" x2="201.583" y2="246" gradientUnits="userSpaceOnUse">
<stop stop-color="#003C4B"/>
<stop offset="1" stop-color="#76D6EE"/>
</linearGradient>
<clipPath id="clip0_14_3698">
<rect width="124.108" height="124.108" fill="white" transform="translate(60.9462 60.9461)"/>
</clipPath>
</defs>
</svg>
