<svg width="23" height="24" viewBox="0 0 23 24" fill="none" xmlns="http://www.w3.org/2000/svg">
<g clip-path="url(#clip0_2_1387)">
<path d="M12.8 16.7091L8.86342 14.5622C8.34947 15.1116 7.68215 15.4938 6.94817 15.659C6.21419 15.8242 5.44749 15.7648 4.74772 15.4885C4.04794 15.2122 3.44744 14.7318 3.02426 14.1098C2.60108 13.4878 2.37479 12.7528 2.37479 12.0005C2.37479 11.2481 2.60108 10.5132 3.02426 9.89115C3.44744 9.26911 4.04794 8.78874 4.74772 8.51247C5.44749 8.2362 6.21419 8.1768 6.94817 8.34199C7.68215 8.50718 8.34947 8.88932 8.86342 9.43876L12.8009 7.29188C12.5774 6.40695 12.6842 5.47087 13.1015 4.6591C13.5188 3.84734 14.2178 3.21561 15.0675 2.88235C15.9172 2.54909 16.8593 2.53717 17.7172 2.84882C18.575 3.16047 19.2898 3.7743 19.7275 4.57525C20.1651 5.3762 20.2957 6.30928 20.0946 7.19958C19.8935 8.08989 19.3746 8.87629 18.6352 9.41139C17.8958 9.94649 16.9866 10.1935 16.078 10.1063C15.1695 10.019 14.324 9.6033 13.7 8.9372L9.76248 11.0841C9.91361 11.6853 9.91361 12.3147 9.76248 12.9159L13.699 15.0628C14.323 14.3967 15.1686 13.9811 16.0771 13.8938C16.9856 13.8065 17.8948 14.0535 18.6343 14.5886C19.3737 15.1237 19.8926 15.9101 20.0936 16.8004C20.2947 17.6907 20.1642 18.6238 19.7265 19.4248C19.2888 20.2257 18.5741 20.8395 17.7162 21.1512C16.8583 21.4628 15.9163 21.4509 15.0665 21.1177C14.2168 20.7844 13.5178 20.1527 13.1006 19.3409C12.6833 18.5291 12.5764 17.5931 12.8 16.7081V16.7091ZM6.12498 13.875C6.62226 13.875 7.09917 13.6775 7.4508 13.3258C7.80244 12.9742 7.99998 12.4973 7.99998 12C7.99998 11.5027 7.80244 11.0258 7.4508 10.6742C7.09917 10.3226 6.62226 10.125 6.12498 10.125C5.6277 10.125 5.15078 10.3226 4.79915 10.6742C4.44752 11.0258 4.24998 11.5027 4.24998 12C4.24998 12.4973 4.44752 12.9742 4.79915 13.3258C5.15078 13.6775 5.6277 13.875 6.12498 13.875V13.875ZM16.4375 8.25001C16.9348 8.25001 17.4117 8.05246 17.7633 7.70083C18.1149 7.3492 18.3125 6.87229 18.3125 6.37501C18.3125 5.87773 18.1149 5.40081 17.7633 5.04918C17.4117 4.69755 16.9348 4.50001 16.4375 4.50001C15.9402 4.50001 15.4633 4.69755 15.1117 5.04918C14.76 5.40081 14.5625 5.87773 14.5625 6.37501C14.5625 6.87229 14.76 7.3492 15.1117 7.70083C15.4633 8.05246 15.9402 8.25001 16.4375 8.25001V8.25001ZM16.4375 19.5C16.9348 19.5 17.4117 19.3025 17.7633 18.9508C18.1149 18.5992 18.3125 18.1223 18.3125 17.625C18.3125 17.1277 18.1149 16.6508 17.7633 16.2992C17.4117 15.9476 16.9348 15.75 16.4375 15.75C15.9402 15.75 15.4633 15.9476 15.1117 16.2992C14.76 16.6508 14.5625 17.1277 14.5625 17.625C14.5625 18.1223 14.76 18.5992 15.1117 18.9508C15.4633 19.3025 15.9402 19.5 16.4375 19.5V19.5Z" fill="white"/>
</g>
<defs>
<clipPath id="clip0_2_1387">
<rect width="22.5" height="22.5" fill="white" transform="translate(0.5 0.75)"/>
</clipPath>
</defs>
</svg>
